<svg xmlns="http://www.w3.org/2000/svg" width="21" height="21" viewBox="0 0 21 21">
  <g id="Group_228" data-name="Group 228" transform="translate(-69 -315)">
    <path id="email" d="M10.5,0a10.5,10.5,0,1,0,5.251,19.595l-1.314-2.273A7.876,7.876,0,1,1,18.375,10.5v1.143a1.358,1.358,0,0,1-1.313,1.482,1.314,1.314,0,0,1-1.313-1.313V6.562H13.936a5.245,5.245,0,1,0,.127,7.77,3.913,3.913,0,0,0,3,1.417A3.982,3.982,0,0,0,21,11.643V10.5A10.512,10.512,0,0,0,10.5,0Zm0,13.125A2.625,2.625,0,1,1,13.125,10.5,2.628,2.628,0,0,1,10.5,13.125Z" transform="translate(69 315)" fill="#ed4c28"/>
  </g>
</svg>
