<svg id="topup" xmlns="http://www.w3.org/2000/svg" width="25" height="25" viewBox="0 0 25 25">
  <path id="Path_44" data-name="Path 44" d="M22.344,25H2.656A2.634,2.634,0,0,1,0,22.344V2.656A2.634,2.634,0,0,1,2.656,0H22.344A2.634,2.634,0,0,1,25,2.656V22.344A2.634,2.634,0,0,1,22.344,25Z" fill="#01fe90"/>
  <g id="Group_198" data-name="Group 198" transform="translate(6.766 5.848)">
    <path id="Path_46" data-name="Path 46" d="M166.766,78.934H165.2V84.96a1.08,1.08,0,0,1-1.085,1.085h-4.821a1.08,1.08,0,0,1-1.085-1.085V78.934h-1.567a1.069,1.069,0,0,1-.844-1.687l5.062-6.75a1.012,1.012,0,0,1,1.687,0l5.062,6.75A1.069,1.069,0,0,1,166.766,78.934Z" transform="translate(-155.824 -72.045)" fill="#fff"/>
  </g>
</svg>
