<svg id="Layer_1" data-name="Layer 1" xmlns="http://www.w3.org/2000/svg" viewBox="0 0 25 25"><title>iconberi</title><g id="Group_159-2" data-name="Group 159-2"><g id="boxx-4"><path id="Path_37-4" data-name="Path 37-4" d="M10.71-2A12.5,12.5,0,1,1-2,10.29,12.5,12.5,0,0,1,10.71-2Z" transform="translate(2 2)" fill="#3639a4"/><g id="borrow-3"><g id="Group_36-3" data-name="Group 36-3"><rect id="Rectangle_12-3" data-name="Rectangle 12-3" x="1.34" y="2.16" width="18.11" height="16.88" transform="matrix(0.03, -1, 1, 0.03, 1.44, 22.64)" fill="none"/></g><g id="Group_35-3" data-name="Group 35-3"><path id="Path_14-3" data-name="Path 14-3" d="M3.53,9.65H8.72l-.63.62a.48.48,0,0,0,0,.67h0l2.45,2.41a.49.49,0,0,0,.35.14h5.88v1h1V8.67h-1v1H14l-2.8-2.75a.49.49,0,0,0-.35-.14H3.53A.49.49,0,0,0,3,7.25H3V9.17A.49.49,0,0,0,3.53,9.65Z" transform="translate(2 2)" fill="#fff"/></g></g></g></g></svg>