<svg xmlns="http://www.w3.org/2000/svg" width="25" height="25" viewBox="0 0 25 25">
  <g id="Group_73" data-name="Group 73" transform="translate(-26 -43)">
    <g id="Group_30" data-name="Group 30" transform="translate(26 43)">
      <rect id="Rectangle_4" data-name="Rectangle 4" width="25" height="25" fill="#fff" opacity="0"/>
    </g>
    <path id="_134-left-arrow" data-name="134-left-arrow" d="M7.487,15.926.265,8.7a.851.851,0,0,1-.136-.166v0L.119,8.52l0,0L.109,8.5l0-.007L.1,8.486l0-.008,0-.009-.005-.01,0-.007L.076,8.439l0-.006L.068,8.42l0-.005L.06,8.4l0-.005L.052,8.381l0,0L.045,8.361v0L.039,8.341v0L.033,8.321v0L.027,8.3h0a.848.848,0,0,1,.167-.752h0l.012-.014,0,0,.01-.012.006-.006L.234,7.5l.015-.015L7.487.249a.848.848,0,0,1,1.2,1.2L2.9,7.239H20.152a.848.848,0,0,1,0,1.7H2.9l5.792,5.791a.849.849,0,0,1-1.2,1.2Z" transform="translate(28 47.4)" fill="#fff"/>
  </g>
</svg>
