<svg xmlns="http://www.w3.org/2000/svg" width="41.667" height="32.795" viewBox="0 0 41.667 32.795">
  <g id="camera" transform="translate(0 0)">
    <g id="Group_135" data-name="Group 135" transform="translate(0 0)">
      <g id="Group_134" data-name="Group 134" transform="translate(0 0)">
        <path id="Path_30" data-name="Path 30" d="M40.28,49.909a4.48,4.48,0,0,0-3.287-1.386H30.418v-.079a3.556,3.556,0,0,0-1.069-2.574A3.624,3.624,0,0,0,26.774,44.8H14.892a3.651,3.651,0,0,0-3.683,3.644v.079H4.674a4.48,4.48,0,0,0-3.287,1.386A4.709,4.709,0,0,0,0,53.2V72.921a4.48,4.48,0,0,0,1.386,3.287,4.709,4.709,0,0,0,3.287,1.386H36.993a4.48,4.48,0,0,0,3.287-1.386,4.709,4.709,0,0,0,1.386-3.287V53.2A4.48,4.48,0,0,0,40.28,49.909Zm-.673,23.012h-.04A2.569,2.569,0,0,1,36.993,75.5H4.674A2.569,2.569,0,0,1,2.1,72.921V53.2a2.569,2.569,0,0,1,2.574-2.574h7.644a1.065,1.065,0,0,0,1.069-1.069V48.4a1.491,1.491,0,0,1,1.545-1.545H26.774A1.491,1.491,0,0,1,28.319,48.4v1.149a1.065,1.065,0,0,0,1.069,1.069h7.644A2.569,2.569,0,0,1,39.607,53.2Z" transform="translate(0 -44.8)" fill="#aaa"/>
        <path id="Path_31" data-name="Path 31" d="M121.743,130.8a9.736,9.736,0,1,0,6.892,2.852A9.761,9.761,0,0,0,121.743,130.8Zm5.387,15.17a7.65,7.65,0,0,1-10.773,0,7.572,7.572,0,0,1-2.218-5.387,7.74,7.74,0,0,1,2.218-5.387,7.572,7.572,0,0,1,5.387-2.218,7.74,7.74,0,0,1,5.387,2.218,7.572,7.572,0,0,1,2.218,5.387A7.411,7.411,0,0,1,127.13,145.97Z" transform="translate(-100.91 -122.284)" fill="#aaa"/>
        <circle id="Ellipse_5" data-name="Ellipse 5" cx="1.941" cy="1.941" r="1.941" transform="translate(32.993 8.476)" fill="#aaa"/>
      </g>
    </g>
  </g>
</svg>
