<svg xmlns="http://www.w3.org/2000/svg" width="20" height="14" viewBox="0 0 20 14">
  <g id="deal" transform="translate(0 -85.333)">
    <g id="Group_169" data-name="Group 169" transform="translate(0 85.333)">
      <path id="Path_42" data-name="Path 42" d="M19.822,86.287a.4.4,0,0,0-.381-.053l-3.4,1.3a1.688,1.688,0,0,0-.944.912,1.817,1.817,0,0,0-.081.246,14.958,14.958,0,0,1-2.745-1.121,3.189,3.189,0,0,0-3.914.408c-.542.01-1.3.078-2.042.147-.467.043-.909.083-1.267.106a1.821,1.821,0,0,0-.152-.661,1.688,1.688,0,0,0-.944-.912l-3.4-1.3a.4.4,0,0,0-.381.053A.445.445,0,0,0,0,85.77v8.75a.427.427,0,0,0,.417.438H1.634a1.648,1.648,0,0,0,1.31-.67c.166.132.362.287.568.45.486.384,1.018.8,1.252,1.009,1.552,1.364,3.417,2.836,3.788,3.093A2.96,2.96,0,0,0,10,99.333a1.475,1.475,0,0,0,.983-.292,1.28,1.28,0,0,0,1.044-.024A1.6,1.6,0,0,0,12.8,98.2a1.554,1.554,0,0,0,1.038-.16,1.459,1.459,0,0,0,.677-.716,1.268,1.268,0,0,0,.91-.305,1.449,1.449,0,0,0,.546-1.3l1.057-.614a1.646,1.646,0,0,0,1.338.72h1.217A.427.427,0,0,0,20,95.4v-8.75A.444.444,0,0,0,19.822,86.287Zm-4.9,10.042c-.141.114-.339.177-.427.085,0,0-.011,0-.016-.009s-.012-.018-.021-.025c-.3-.247-1.633-1.681-2.457-2.584a.4.4,0,0,0-.589-.013.452.452,0,0,0-.013.618c.194.212,1.748,1.912,2.37,2.506a.594.594,0,0,1-.3.356.616.616,0,0,1-.649.015s-.008,0-.011-.006-.007-.011-.013-.016c-.5-.419-1.753-1.818-2.037-2.142a.4.4,0,0,0-.589-.026.453.453,0,0,0-.025.618c.014.016,1.242,1.407,1.932,2.053a.758.758,0,0,1-.383.456.523.523,0,0,1-.569-.089c-.6-.533-1.8-1.875-2.035-2.14a.4.4,0,0,0-.589-.021.453.453,0,0,0-.02.618c.28.315,1.108,1.236,1.737,1.859a1.719,1.719,0,0,1-.214.014,2.218,2.218,0,0,1-.99-.35c-.292-.2-2.126-1.639-3.711-3.032-.24-.211-.787-.643-1.287-1.038-.268-.211-.515-.406-.7-.554l1.56-4.369c.4-.019.945-.068,1.516-.12.323-.03.647-.059.956-.084A3.355,3.355,0,0,0,6.259,91.2a1.266,1.266,0,0,0,.59.943,1.281,1.281,0,0,0,.715.193,2.452,2.452,0,0,0,1.833-.9,2.8,2.8,0,0,0,.945-.315c.488.482,1.143,1.048,1.831,1.644a17.076,17.076,0,0,1,2.913,2.868A.541.541,0,0,1,14.92,96.329Z" transform="translate(0 -85.333)" fill="#fff"/>
    </g>
  </g>
</svg>
