<svg id="Layer_1" data-name="Layer 1" xmlns="http://www.w3.org/2000/svg" viewBox="0 0 25 25"><title>iconbox</title><g id="Group_157-2" data-name="Group 157-2"><path d="M12.71,0A12.5,12.5,0,1,0,25,12.71,12.5,12.5,0,0,0,12.71,0Zm-.28,4.2a.57.57,0,0,1,.42,0L16,5.51l-7.72,3L4.75,7.07Zm-.62,16.63-7.39-3a.53.53,0,0,1-.33-.49L4.25,8,7.8,9.47l0,2.74a.55.55,0,0,0,1.1,0l0-2.31L12,11.2ZM9.7,9.11l7.73-3,3,1.24-7.89,2.95Zm11.05,8.46a.53.53,0,0,1-.35.48l-7.49,2.8.16-9.63,7.83-2.92Z" transform="translate(0 0)" fill="#feb201"/></g></svg>