<svg id="Layer_1" data-name="Layer 1" xmlns="http://www.w3.org/2000/svg" viewBox="0 0 25 25"><title>iconminta</title><g id="Group_159-2" data-name="Group 159-2"><g id="boxx-4"><path id="Path_37-4" data-name="Path 37-4" d="M12.71,0A12.5,12.5,0,1,1,0,12.29,12.5,12.5,0,0,1,12.71,0Z" transform="translate(0 0)" fill="#df035d"/><g id="borrow-3"><g id="Group_36-3" data-name="Group 36-3"><rect id="Rectangle_12-3" data-name="Rectangle 12-3" x="3.91" y="3.5" width="16.89" height="18.12" transform="translate(-0.37 0.38) rotate(-1.72)" fill="none"/></g><g id="Group_35-3" data-name="Group 35-3"><path id="Path_14-3" data-name="Path 14-3" d="M5.5,13.47A.49.49,0,0,0,5,14v1.92H5v0a.49.49,0,0,0,.53.45h7.32a.49.49,0,0,0,.35-.14L16,13.46h2.77v1h1V8.64h-1v1H12.89a.49.49,0,0,0-.35.14l-2.45,2.41h0a.48.48,0,0,0,0,.67l.63.62H5.5Z" transform="translate(0 0)" fill="#fff"/></g></g></g></g></svg>