<svg xmlns="http://www.w3.org/2000/svg" width="25" height="25" viewBox="0 0 25 25">
  <path id="icon-topup" d="M-1479.656-3455h-19.687a2.628,2.628,0,0,1-2.657-2.656v-19.687a2.629,2.629,0,0,1,2.657-2.657h19.688a2.628,2.628,0,0,1,2.656,2.657v19.688A2.628,2.628,0,0,1-1479.656-3455Zm-9.654-21.152a1.147,1.147,0,0,0-.889.452l-5.062,6.749a1.112,1.112,0,0,0-.061,1.142,1.014,1.014,0,0,0,.905.545h1.567v6.026a1.086,1.086,0,0,0,1.084,1.085h4.821a1.086,1.086,0,0,0,1.085-1.085v-6.026h1.567a1.013,1.013,0,0,0,.9-.546,1.111,1.111,0,0,0-.062-1.142l-5.062-6.749A.912.912,0,0,0-1489.309-3476.152Z" transform="translate(1502 3480)" fill="#01fe90"/>
</svg>
