<svg xmlns="http://www.w3.org/2000/svg" xmlns:xlink="http://www.w3.org/1999/xlink" width="394" height="389.333" viewBox="0 0 394 389.333">
  <defs>
    <filter id="Union_1" x="165.374" y="0" width="141.753" height="129.014" filterUnits="userSpaceOnUse">
      <feOffset dy="1" input="SourceAlpha"/>
      <feGaussianBlur stdDeviation="3" result="blur"/>
      <feFlood flood-opacity="0.051"/>
      <feComposite operator="in" in2="blur"/>
      <feComposite in="SourceGraphic"/>
    </filter>
  </defs>
  <g id="Group_216" data-name="Group 216" transform="translate(32.63 -200)">
    <g id="Group_213" data-name="Group 213" transform="translate(-32.63 208)">
      <g id="thinking" transform="translate(0 98.252)">
        <path id="Path_51" data-name="Path 51" d="M491.864,526.029a51.271,51.271,0,0,0-7.989,5.059,17.181,17.181,0,0,0-5.56,7.525,69.324,69.324,0,0,1-3.44-10.173,169.28,169.28,0,0,0-7.025-18.281,24.359,24.359,0,0,0,11.056-8.49c5.46,5.414,11.02,11.056,13.722,18.2.464,1.238,1.82,2.557,2.138,3.64C495.194,525.12,493.047,525.374,491.864,526.029Z" transform="translate(-341.504 -463.184)" fill="#ffbfc5"/>
        <path id="Path_52" data-name="Path 52" d="M329,715.576c0,40.6,29.291,44.906,65.434,44.906s65.425-4.3,65.425-44.906-29.291-56.026-65.425-56.026S329,674.983,329,715.576Z" transform="translate(-329 -477.401)" fill="#f70"/>
        <path id="Path_53" data-name="Path 53" d="M549.433,673.337a50.111,50.111,0,0,1,16.324,8.735,1.683,1.683,0,0,1,.737,1c.127.91-1.128,1.319-2.038,1.583-2.73.773-4.4,3.294-6.37,5.26s-5.141,3.521-7.443,1.947a7.281,7.281,0,0,1-1.565-1.647L539.36,677.55A58.844,58.844,0,0,1,549.706,673" transform="translate(-347.943 -478.612)" fill="#f1f1f1"/>
        <path id="Path_54" data-name="Path 54" d="M567.448,676.11c1.292,1.31,1.82,3.2,3.112,4.55a11.131,11.131,0,0,0,2.875,1.993l7.443,4.095a20.578,20.578,0,0,0,3.64,1.7,32.3,32.3,0,0,0,4.268.91,30.749,30.749,0,0,1,6.024,1.82c1.456.6,3.085,1.629,3.076,3.2a3.476,3.476,0,0,1-.91,2.075c-2.93,3.694-8.126,4.55-12.821,5.014-10.155,1.074-20.547,1.875-30.474-.519a13,13,0,0,1-5.36-2.32c-2.994-2.484-3.64-7.007-2.475-10.728a5.805,5.805,0,0,1,2.366-3.521c1.574-.91,3.531-.482,5.341-.619a16.849,16.849,0,0,0,5.46-1.756c1.137-.51,2.439-1.174,2.73-2.521s-1.247-2.511-.91-3.64C561.47,673.307,566.265,674.9,567.448,676.11Z" transform="translate(-348.478 -478.746)" fill="#585963"/>
        <path id="Path_56" data-name="Path 56" d="M586.275,720.044l3.13,2.066a5.6,5.6,0,0,1,2.266,2.239c.683,1.592-.237,3.394-1.256,4.8a27.554,27.554,0,0,1-12.048,9.336,17.959,17.959,0,0,1-5.232,1.3,2.184,2.184,0,0,1-1.21-.146c-.956-.51-.819-1.865-.828-2.948,0-3.121-2.393-5.66-4.55-7.962s-4.286-5.123-3.794-8.19a10.192,10.192,0,0,1,2.73-4.8,19.647,19.647,0,0,1,4.095-3.867c2.211-1.447,2.985-.664,5.059.655Q580.488,716.24,586.275,720.044Z" transform="translate(-350.043 -482.042)" fill="#f1f1f1"/>
        <path id="Path_57" data-name="Path 57" d="M576.431,736.177a5.578,5.578,0,0,0,4.923-1.11,12.333,12.333,0,0,0,3.194-4.113,33.421,33.421,0,0,0,1.984-4.35c.655-1.756,1.256-3.694,2.8-4.759,1.82-1.292,4.5-.783,6.37.464s3.294,3.094,4.9,4.7c3.794,3.785,8.79,6.179,13.922,7.744s10.455,2.348,15.724,3.358a8.915,8.915,0,0,1,3.021.974c2.129,1.3,2.848,4.2,2.247,6.625a14.472,14.472,0,0,1-3.895,6.242,15.687,15.687,0,0,1-5.214,4.031,16.644,16.644,0,0,1-5.269,1,89.987,89.987,0,0,1-26.025-2.038,69.62,69.62,0,0,0-9.536-1.9c-1.956-.173-3.94-.118-5.9-.255a31.043,31.043,0,0,1-11.265-2.967,3.976,3.976,0,0,1-2.047-1.711,4.2,4.2,0,0,1-.155-2.257l1.3-11.411c.118-.992.446-2.229,1.438-2.384s1.62.819,2.211,1.565a8.071,8.071,0,0,0,9.654,2.111" transform="translate(-350.354 -482.943)" fill="#585963"/>
        <path id="Path_58" data-name="Path 58" d="M489.24,579.5c5.724-.646,12.366-.755,16.243,3.512,2.375,2.621,3.094,6.288,3.913,9.718a63.107,63.107,0,0,0,6.206,16.525c1.82,3.221,4.031,6.233,5.46,9.654s1.966,7.28,2.8,11a66.372,66.372,0,0,0,23.24,36.98c-2.066,5.614-8.044,8.826-13.858,10.264a7.636,7.636,0,0,1-4.341.137,7.752,7.752,0,0,1-2.812-2.075,96.471,96.471,0,0,1-7.58-9.29c-8.381-11.193-16.88-22.612-21.448-35.816-1.6-4.641-3.2-10.009-7.707-11.984-2.566-1.11-5.505-.764-8.262-.291a112.005,112.005,0,0,0-18.126,4.65c-6.3,2.193-13.5,4.887-19.264,1.538-3.449-2.011-5.46-5.86-6.251-9.773s-.391-7.953,0-11.92a12.275,12.275,0,0,1,1.256-5.15,11.167,11.167,0,0,1,3.012-3.048,62.016,62.016,0,0,1,16.961-9.1c5.815-2.057,12.075-2.73,18.144-3.758Q483.007,580.2,489.24,579.5Z" transform="translate(-338.725 -470.162)" fill="#3a3a3a"/>
        <path id="Path_59" data-name="Path 59" d="M489.24,579.5c5.724-.646,12.366-.755,16.243,3.512,2.375,2.621,3.094,6.288,3.913,9.718a63.107,63.107,0,0,0,6.206,16.525c1.82,3.221,4.031,6.233,5.46,9.654s1.966,7.28,2.8,11a66.372,66.372,0,0,0,23.24,36.98c-2.066,5.614-8.044,8.826-13.858,10.264a7.636,7.636,0,0,1-4.341.137,7.752,7.752,0,0,1-2.812-2.075,96.471,96.471,0,0,1-7.58-9.29c-8.381-11.193-16.88-22.612-21.448-35.816-1.6-4.641-3.2-10.009-7.707-11.984-2.566-1.11-5.505-.764-8.262-.291a112.005,112.005,0,0,0-18.126,4.65c-6.3,2.193-13.5,4.887-19.264,1.538-3.449-2.011-5.46-5.86-6.251-9.773s-.391-7.953,0-11.92a12.275,12.275,0,0,1,1.256-5.15,11.167,11.167,0,0,1,3.012-3.048,62.016,62.016,0,0,1,16.961-9.1c5.815-2.057,12.075-2.73,18.144-3.758Q483.007,580.2,489.24,579.5Z" transform="translate(-338.725 -470.162)" opacity="0.1"/>
        <path id="Path_60" data-name="Path 60" d="M529.33,624.613a29.554,29.554,0,0,1,7.28,5.141,26.123,26.123,0,0,1,4.932,8.854,10.747,10.747,0,0,1,.855,3.421,3.886,3.886,0,0,1-1.265,3.167,5.669,5.669,0,0,1-3.576.91c-1.656,0-3.321,0-4.977-.127a8.318,8.318,0,0,1-2.948-.564,8.19,8.19,0,0,1-2.293-1.738,32.24,32.24,0,0,1-7.052-9.518c-1.2-2.648-3.185-8.763-1.292-11.52S527.273,623.44,529.33,624.613Z" transform="translate(-346.039 -473.985)" fill="#ffbfc5"/>
        <path id="Path_61" data-name="Path 61" d="M435.946,623.87c8.472,2.73,17.489,3.021,26.343,3.849a220.007,220.007,0,0,1,43.9,8.681c2.93.91,5.924,1.893,8.281,3.849a24.623,24.623,0,0,1,4.8,6.115,103.266,103.266,0,0,1,6.306,11.028c1.611,3.44,2.839,7.043,4.331,10.528A73.987,73.987,0,0,0,553,697.485c1.82,1.41,3.9,2.939,4.377,5.2a7.225,7.225,0,0,1-.682,4.277c-2.184,5.087-6.715,8.79-11.474,11.62-2.038,1.219-4.295,2.448-5.3,4.613-7.225-2.985-12.6-9.354-17.071-15.76s-8.444-13.313-14.177-18.627c-2.521-2.348-5.387-4.386-7.38-7.207-3.03-4.295-3.849-10.173-7.926-13.485s-10.009-2.885-15.278-2.366a374.912,374.912,0,0,1-81.122-.91c-5.6-.664-11.347-1.52-16.2-4.4s-8.626-8.271-7.944-13.868c.646-5.241,5-9.391,9.873-11.438s10.237-2.42,15.469-3.012C411.2,630.685,423.625,628.32,435.946,623.87Z" transform="translate(-332.94 -474.188)" fill="#3a3a3a"/>
        <path id="Path_62" data-name="Path 62" d="M357.076,624.183c.664-4.441,2.384-8.644,3.467-13a78.648,78.648,0,0,1,2.057-8.126c0-.082.064-.155.091-.227a1.875,1.875,0,0,0,1.383-.792,2.292,2.292,0,0,0,.118-1.219,8.845,8.845,0,0,1,0-1.3,93.042,93.042,0,0,1,5.805-8.6c3.64-5.2,6.843-10.719,10.009-16.233,2.6-4.55,5.2-9.045,7.352-13.795,1.62-3.558,2.976-7.28,4.759-10.719,6.37-12.375,17.762-21.5,30.028-28.054,11.775-6.288,24.5-10.519,36.88-15.524a8.385,8.385,0,0,1,.864,1.019c6.688,9.145,7.407,21.156,10.164,32.148,1.11,4.441,2.593,8.863,2.593,13.431,0,6.752-3.23,13.03-6.442,18.972A102.563,102.563,0,0,1,456.1,588.294c-1.893,2.348-3.976,4.55-5.878,6.87-7.807,9.564-12.312,21.329-16.7,32.877-2.53,6.688-6.679,12.612-9.463,19.2-1.074,2.53-1.692,5.25-3.039,7.653s-3.685,4.5-6.433,4.55a9.649,9.649,0,0,1-2.375-.373c-9.946-2.557-18.272-9.1-26.534-15.232-1.483-1.092-2.966-2.166-4.55-3.148s-3.185-1.884-4.8-2.73l-3.694-2.029c-4.022-2.2-8.062-4.413-12.257-6.279a22.3,22.3,0,0,1-3.64-1.82A21.732,21.732,0,0,1,357.076,624.183Z" transform="translate(-331.497 -463.627)" fill="#aaa"/>
        <circle id="Ellipse_13" data-name="Ellipse 13" cx="22.913" cy="22.913" r="22.913" transform="translate(132.68 16.256)" fill="#ffbfc5"/>
        <path id="Path_63" data-name="Path 63" d="M511.977,487.825a5.46,5.46,0,0,0,5.642,2.648,7.908,7.908,0,0,0,5.269-3.758,14.858,14.858,0,0,0,1.947-6.315c.191-1.738.164-3.64-.956-5a10.974,10.974,0,0,0-2.9-2.038,11.048,11.048,0,0,1-3.64-3.64c-.637-1.065-1.1-2.22-1.674-3.312-2.084-3.958-6.142-7.18-10.61-7.034-2.147.073-4.195.91-6.315,1.256-7.107,1.247-14.823-2.511-21.42.419a20.015,20.015,0,0,0-4.477,2.985q-2.784,2.3-5.351,4.841a11.047,11.047,0,0,0-3.258,4.741c-.91,3.367,1.228,7.125-.127,10.328a15.212,15.212,0,0,1-1.647,2.593c-1.492,2.193.127,10.756,0,13.4a4.959,4.959,0,0,0,.91,3.64c1.083,1.21,2.894,1.31,4.55,1.329h2.975a3.776,3.776,0,0,0,1.319-.137,4,4,0,0,0,1.5-1.147c2.475-2.611,3-11.138,6.6-11.1a2.566,2.566,0,0,1,1.556.4c.646.473.837,1.356,1.3,2.011a3.8,3.8,0,0,0,4.413,1.037,9.955,9.955,0,0,0,3.758-3.039,14.809,14.809,0,0,1,3.512-3.358c1.92-1.119,4.086-1.6,5.951-2.866,1.556-1.056,2.439-2.584,3.84-3.749s2.584-1,4.077-.228C510.875,483.93,510.966,485.823,511.977,487.825Z" transform="translate(-340.961 -459.375)" fill="#3f3d56"/>
        <path id="Path_64" data-name="Path 64" d="M456.393,534.964a36.462,36.462,0,0,1,15.96,1.274,8.481,8.481,0,0,1,4.45,2.648,7.989,7.989,0,0,1,1.274,3.33,26.926,26.926,0,0,1-1.938,16.234,2.147,2.147,0,0,0-.264,1.729,3.059,3.059,0,0,0,.91.91,3.167,3.167,0,0,1-.191,4.723c-.428.309-.992.582-1.074,1.1s.446,1.019.864,1.42a5.086,5.086,0,0,1,1.419,4.677,10.246,10.246,0,0,0-.464,2.066,6.742,6.742,0,0,0,.755,2.466,10.791,10.791,0,0,1,.682,5.46,6.015,6.015,0,0,0-.064,2.666,6.206,6.206,0,0,0,1.019,1.6c1.647,2.22,2,5.933-.382,7.28a5.524,5.524,0,0,1,2.939,5.7c1.429-.755,3.157.218,4.349,1.31s2.4,2.439,4.013,2.521c1.128.054,2.32-.528,3.34-.064,1.565.7,1.51,3.239,3.048,3.995,1.347.673,3.23-.419,4.377.555.4.337.6.855.992,1.21.865.8,2.229.464,3.412.41,2.794-.109,5.369,1.82,6.816,4.168a20.292,20.292,0,0,1,2.339,7.98,10.563,10.563,0,0,1-.091,4.6,3.94,3.94,0,0,1-3.23,2.912c-14.059.91-27.935-2.466-41.63-5.8-4.022-.983-8.108-2.129-11.465-4.55-3.048-2.211-5.287-5.323-7.471-8.381-4.031-5.651-8.089-11.338-10.974-17.644-3.713-8.108-5.369-16.989-6.988-25.77a23.97,23.97,0,0,1-.592-7.189,20.373,20.373,0,0,1,3.167-7.88,85.812,85.812,0,0,1,6.37-9.036C445.592,539.25,450.861,535.755,456.393,534.964Z" transform="translate(-338.318 -466.149)" opacity="0.1"/>
        <path id="Path_65" data-name="Path 65" d="M457.409,533.964a36.4,36.4,0,0,1,15.97,1.283,8.407,8.407,0,0,1,4.45,2.639,8.117,8.117,0,0,1,1.274,3.33,26.99,26.99,0,0,1-1.938,16.234,2.147,2.147,0,0,0-.264,1.729,3.056,3.056,0,0,0,.91.91,3.167,3.167,0,0,1-.191,4.723c-.428.309-.992.582-1.074,1.1s.446,1.019.91,1.42a5.087,5.087,0,0,1,1.42,4.677,10.246,10.246,0,0,0-.464,2.066,6.723,6.723,0,0,0,.746,2.466,10.711,10.711,0,0,1,.692,5.46,3.931,3.931,0,0,0,.955,4.268c1.647,2.22,2,5.933-.382,7.334a5.505,5.505,0,0,1,2.939,5.687c1.429-.755,3.157.218,4.349,1.31s2.4,2.439,4.013,2.521c1.128.055,2.311-.528,3.339-.064,1.565.71,1.511,3.239,3.048,4,1.347.664,3.23-.428,4.377.546.4.337.6.855.992,1.21.864.8,2.229.464,3.412.409,2.794-.109,5.369,1.82,6.815,4.168a20.475,20.475,0,0,1,2.339,7.98,10.858,10.858,0,0,1-.091,4.55,3.94,3.94,0,0,1-3.23,2.912c-14.059.91-27.935-2.466-41.63-5.8-4.022-.983-8.117-2.129-11.465-4.55-3.048-2.2-5.287-5.323-7.471-8.381-4.031-5.642-8.089-11.329-10.974-17.635-3.713-8.117-5.369-17-6.988-25.77a24.019,24.019,0,0,1-.591-7.2,20.372,20.372,0,0,1,3.085-7.889,83.473,83.473,0,0,1,6.37-9.027C446.617,538.232,451.885,534.746,457.409,533.964Z" transform="translate(-338.415 -466.059)" fill="#aaa"/>
      </g>
      <g transform="matrix(1, 0, 0, 1, 0, -8)" filter="url(#Union_1)">
        <path id="Union_1-2" data-name="Union 1" d="M31.3,103.776c-7.064.623-18.258.039-22.561-.228a17.376,17.376,0,0,0,5.7-2.916,19.414,19.414,0,0,0,4.633-5.04C7.32,85.488,0,71.263,0,55.507,0,24.851,27.7,0,61.876,0s61.877,24.851,61.877,55.507-27.7,55.507-61.877,55.507A67.132,67.132,0,0,1,31.3,103.776Zm-24.328-.345s.653.048,1.766.117a4.152,4.152,0,0,1-.885.107A1.284,1.284,0,0,1,6.974,103.431Z" transform="translate(174.37 8)" fill="#f5f5f5"/>
      </g>
    </g>
    <path id="Path_73" data-name="Path 73" d="M-2241.7-1.595s1.383,8.646,8.54,11.188c8.113,2.647,5.229-6.161,7.491-5.382,10.927,3.76,18.42-5.013,19.98-12.846,1.166-5.851-3.765-9.954-6.229-7.687-.454.351-.876,1.708-.64,3.927.4,3.781,1.033,8.594,2.811,8.146,1.436-.281,4.058-7.092,4.058-11.906,0-8.459-15.61-17.859-14.049-9.4s-2.809,11.279,3.123,5.013,2.5-21.932-6.556-17.545-20.6,10.026-10.927,16.292,10.615,2.506,5.932-3.76-17.171-16.292-15.922-2.506,9.99,22.871,9.99,15.665-4.683-24.751-9.99-10.966A26.236,26.236,0,0,0-2245.474-7.8c1.3,5.507,5.235,9.045,9.816,7.942,7.805-1.88,19.668-6.579,9.991-12.532s-5.932,5.326-5.932,5.326,9.054,14.725,13.425,5.953,5.932-18.172-1.562-15.039-11.238,22.245,3.123,23.5,15.61,3.76,15.3-3.133-12.8-8.146-6.557-2.506-30.595-13.786-34.341-10.339-5.307,16.292,1.561,12.846,17.171-42.923,10.927-42.3-6.245,28.511,1.561,28.2" transform="translate(2426.712 279.657)" fill="none" stroke="#707070" stroke-width="2"/>
    <text id="Pernah_gak_waktu_mau_pakai_barang_tapi_barangnya_ilang_Atau_lagi_butuh_banget_barang_itu_dengan_segera_tapi_malah_gaada_Pasti_kesel_banget_sih." data-name="Pernah gak waktu mau pakai
barang, tapi barangnya ilang?
Atau lagi butuh banget barang itu dengan segera tapi malah gaada?
Pasti kesel banget sih." transform="translate(116.37 344)" fill="#3a3a3a" font-size="12" font-family="Poppins-Regular, Poppins"><tspan x="71.288" y="13">Pernah gak waktu mau pakai</tspan><tspan x="62.972" y="31">barang, tapi barangnya ilang?</tspan><tspan x="41.156" y="49">Atau lagi butuh banget barang itu </tspan><tspan x="34.952" y="67">dengan segera tapi malah gaada?</tspan><tspan x="114.92" y="85">Pasti kesel banget sih.</tspan></text>
  </g>
</svg>
