<svg xmlns="http://www.w3.org/2000/svg" width="345.14" height="234.908" viewBox="0 0 345.14 234.908">
  <g id="pinjeeem" transform="translate(-14.86 -157)">
    <g id="Group_223" data-name="Group 223" transform="translate(14.86 157)">
      <path id="Path_180" data-name="Path 180" d="M726.354,198.09V216.97a.66.66,0,0,1-.658.658h-.468v98.357a10.263,10.263,0,0,1-10.262,10.263H653.508a10.26,10.26,0,0,1-10.26-10.262V221.078h-.339a.465.465,0,0,1-.466-.463V209.87a.466.466,0,0,1,.466-.466h.339v-4.048h-.342a.488.488,0,0,1-.486-.489v-10.6a.487.487,0,0,1,.486-.486h.342v-5.525H642.9a.431.431,0,0,1-.431-.431v-5.784a.433.433,0,0,1,.431-.434h.348V169.9a10.26,10.26,0,0,1,10.259-10.26h61.458a10.263,10.263,0,0,1,10.263,10.26v27.533h.468A.66.66,0,0,1,726.354,198.09Z" transform="translate(-642.42 -159.638)" fill="#3f3d56"/>
      <rect id="Rectangle_71" data-name="Rectangle 71" width="11.448" height="2.325" rx="1.162" transform="translate(34.06 5.263)" fill="#e6e8ec"/>
      <circle id="Ellipse_24" data-name="Ellipse 24" cx="1.319" cy="1.319" r="1.319" transform="translate(47.239 5.106)" fill="#e6e8ec"/>
      <path id="Path_181" data-name="Path 181" d="M735.287,186.249V331.158a6.511,6.511,0,0,1-6.511,6.508h-58.83a6.5,6.5,0,0,1-6.511-6.508V186.249a6.511,6.511,0,0,1,6.511-6.511h8.8v1.13a5.361,5.361,0,0,0,5.361,5.361h29.92a5.361,5.361,0,0,0,5.361-5.361v-1.13h9.383A6.509,6.509,0,0,1,735.287,186.249Z" transform="translate(-657.394 -173.96)" fill="#fff"/>
      <rect id="Rectangle_72" data-name="Rectangle 72" width="59.793" height="7.762" transform="translate(12.191 101.176)" fill="#e6e6e6"/>
      <rect id="Rectangle_73" data-name="Rectangle 73" width="59.793" height="7.762" transform="translate(12.191 114.975)" fill="#e6e6e6"/>
      <rect id="Rectangle_74" data-name="Rectangle 74" width="59.793" height="7.762" transform="translate(12.191 128.773)" fill="#e6e6e6"/>
      <circle id="Ellipse_25" data-name="Ellipse 25" cx="5.749" cy="5.749" r="5.749" transform="translate(59.623 20.398)" fill="#f70"/>
      <rect id="Rectangle_75" data-name="Rectangle 75" width="59.793" height="39.67" transform="translate(12.071 45.408)" fill="#e6e6e6"/>
      <g id="Group_225" data-name="Group 225" transform="translate(34.399 51.83)">
        <g id="Group_98" data-name="Group 98">
          <path id="Path_7" data-name="Path 7" d="M233.54,51.416l-8.24-4.558,8.24-4.558,8.072,4.558Z" transform="translate(-225.3 -42.3)" fill="#fa3"/>
          <path id="Path_8" data-name="Path 8" d="M283.242,80.385l-.042,9.187,8.2-4.629-.042-9.046Z" transform="translate(-275.086 -71.34)" fill="#f90"/>
          <path id="Path_9" data-name="Path 9" d="M225.642,151.084,225.6,141.9l8.2,4.629-.042,9.046Z" transform="translate(-225.558 -128.676)" fill="#f70"/>
        </g>
      </g>
    </g>
    <g id="Group_224" data-name="Group 224" transform="translate(70.249 214.901)">
      <path id="Path_159" data-name="Path 159" d="M304.558,538.263s6.989,11.085,4.493,14.086,18.726,3.076,18.726,3.076-3.188-16.125-2.25-19.836Z" transform="translate(-277.102 -490.301)" fill="#ffb8b8"/>
      <circle id="Ellipse_21" data-name="Ellipse 21" cx="21.915" cy="21.915" r="21.915" transform="translate(16.71 8.15)" fill="#2f2e41"/>
      <path id="Path_160" data-name="Path 160" d="M245.51,536.052v12.992l12.991-2.707-1.082-9.2Z" transform="translate(-155.34 -387.201)" fill="#ffb8b8"/>
      <path id="Path_161" data-name="Path 161" d="M468.888,699.038l36.269,5.955-9.2,13.533s-25.442-8.661-31.938-8.661S468.888,699.038,468.888,699.038Z" transform="translate(-332.706 -548.022)" fill="#ffb8b8"/>
      <path id="Path_162" data-name="Path 162" d="M341.895,642.582s27.066-31.4,35.727-29.773,12.45,11.368,12.45,11.368l4.872,48.178s-17.322,1.624-17.322,0-3.248-36.268-3.248-36.268-25.442,56.3-38.975,18.946Z" transform="translate(-287.993 -517.549)" fill="#d0cde1"/>
      <path id="Path_163" data-name="Path 163" d="M277.656,680.953s.541,28.36,16.781,29.984,34.1-12.12,34.1-12.12l29.231-14s34.645,18.335,44.93,13.463c0,0,10.826-11.368,3.789-14.616s-.541,0-.541,0l-41.682-21.653s-8.12-2.165-22.194,3.789-33.021,8.661-33.021,8.661Z" transform="translate(-267.602 -534.809)" fill="#d0cde1"/>
      <circle id="Ellipse_22" data-name="Ellipse 22" cx="16.24" cy="16.24" r="16.24" transform="translate(20.88 21.099)" fill="#ffb8b8"/>
      <path id="Path_164" data-name="Path 164" d="M325.423,578.217l-1.083,22.736s.541,29.773-4.331,31.938c-2.463,1.094-7.411,3.291-11.985,5.695a44.56,44.56,0,0,0-8.45,5.343,6.057,6.057,0,0,0-1.218,1.413c-2.165,3.789-16.24,3.248-19.488.541s-1.083,3.248-3.789,4.331c-2.62,1.05-6.252-7.535-4.027-20.354.07-.428.152-.861.238-1.3,2.485-12.423-1.418-42.18-.817-53.677a20.232,20.232,0,0,1,.276-2.62c1.624-8.661,22.346-26.287,26.222-18.779,4.774,9.267,15.742.8,17.625-3.416,10.826-.541,14.616,12.45,14.616,12.45Z" transform="translate(-265.026 -495.408)" fill="#f70"/>
      <path id="Path_165" data-name="Path 165" d="M413.528,708.243s-8.661,3.248-11.368,2.707a4.681,4.681,0,0,0-5.413,4.872c0,3.248-3.248,10.826,1.624,11.368s24.9-.541,29.231,1.083c0,0,19.488.541,17.864-7.578s-9.744-7.578-9.744-7.578S413.528,712.032,413.528,708.243Z" transform="translate(-309.284 -551.272)" fill="#2f2e41"/>
      <path id="Path_166" data-name="Path 166" d="M515.17,708.981s1.083-3.248,2.707-3.248,14.616,2.165,16.24,1.624,20.57-1.624,17.322,7.578-14.074,10.285-14.074,10.285-19.488-2.165-22.194-1.624-12.45,0-10.826-2.707S516.253,713.312,515.17,708.981Z" transform="translate(-347.592 -550.386)" fill="#2f2e41"/>
      <path id="Path_167" data-name="Path 167" d="M437.43,590.231l2.97,12.25a.765.765,0,0,1-.015.414l-13.472,42.1a.765.765,0,0,1-1.489-.147l-1.864-16.4a.765.765,0,0,1,.033-.323l12.365-37.949a.765.765,0,0,1,1.472.057Z" transform="translate(-319.126 -509.39)" fill="#3f3d56"/>
      <path id="Path_168" data-name="Path 168" d="M280.829,432.512l2.742,10.511L271.689,481.41l-2.742-11.881Z" transform="translate(-163.617 -350.637)" fill="#fff"/>
      <path id="Path_169" data-name="Path 169" d="M350.721,668.984c.457,1.371,47.527-.457,47.984-.914a9.923,9.923,0,0,0,1.005-1.828c.43-.914.823-1.828.823-1.828l-1.828-14.8-46.613-1.654s-1.165,12.54-1.4,18.279A13.712,13.712,0,0,0,350.721,668.984Z" transform="translate(-293.374 -529.984)" fill="#3f3d56"/>
      <path id="Path_170" data-name="Path 170" d="M249.035,493.975l.914,12.8H229.385v-12.8Z" transform="translate(-149.646 -372.342)" opacity="0.1"/>
      <path id="Path_171" data-name="Path 171" d="M212.3,500.321l.123-.025-.58,5.508H200.419v-5.483Z" transform="translate(-139.417 -374.574)" opacity="0.1"/>
      <path id="Path_172" data-name="Path 172" d="M350.721,678.963c.457,1.371,47.527-.457,47.984-.914a9.922,9.922,0,0,0,1.005-1.828H350.689A13.711,13.711,0,0,0,350.721,678.963Z" transform="translate(-293.374 -539.964)" opacity="0.1"/>
      <circle id="Ellipse_23" data-name="Ellipse 23" cx="6.107" cy="6.107" r="6.107" transform="translate(36.149)" fill="#2f2e41"/>
      <path id="Path_173" data-name="Path 173" d="M309.733,485.3s-6.24,10.379-20.75,14.265-.119,25.69-.119,25.69-5.233-7.929,2.315-16.326S310.875,494.786,309.733,485.3Z" transform="translate(-269.314 -472.539)" fill="#2f2e41"/>
      <path id="Path_174" data-name="Path 174" d="M308.051,651.3a54.374,54.374,0,0,0-3.172,6.214c-.179.72-2.16.3-5.278-.871-6.252-2.366-17.09-7.784-27.2-13.2a8.536,8.536,0,0,1-1.321-.866c.07-.428.152-.861.238-1.3,2.485-12.423-1.418-42.18-.817-53.678l4.607-1.537,9.2,8.661v36.81s23.818,12.992,25.442,14.074C310.579,646.16,309.437,648.677,308.051,651.3Z" transform="translate(-265.052 -508.125)" opacity="0.1"/>
      <path id="Path_175" data-name="Path 175" d="M356.4,641.185l14.616,7.578s8.661-9.2,14.074-2.165-15.7,9.2-15.7,9.2-18.4-4.331-18.946-10.285S356.4,641.185,356.4,641.185Z" transform="translate(-293.296 -527.52)" fill="#ffb8b8"/>
      <path id="Path_176" data-name="Path 176" d="M320.133,668.786l8.661,2.165s9.744-11.909,20.029-7.579-12.992,12.992-12.992,12.992-12.45,6.5-17.322,1.083S320.133,668.786,320.133,668.786Z" transform="translate(-281.389 -535.092)" fill="#ffb8b8"/>
      <path id="Path_177" data-name="Path 177" d="M346.866,561.794c.541.541,6.5,4.872,6.5,4.872s1.624,20.57-.541,24.9-3.789,4.331-2.165,6.5,3.789.541,1.624,4.331-4.331,3.248-2.707,4.872,1.083,2.165,1.083,2.165l6.5,5.413s-3.985,6.348-9.03,5.88-9.375-24.827-9.375-24.827Z" transform="translate(-289.176 -499.555)" fill="#f70"/>
      <path id="Path_178" data-name="Path 178" d="M272.167,581.878,267.3,583.5s-12.992,47.636,2.165,55.756S301.4,655.5,301.94,653.332s6.5-10.826,4.871-11.909-25.442-14.074-25.442-14.074v-36.81Z" transform="translate(-262.113 -506.647)" fill="#f70"/>
      <path id="Path_179" data-name="Path 179" d="M132.362,452.785l-1.082,25.983L159.97,492.3l-26.525-13.534Z" transform="translate(-115.001 -357.796)" opacity="0.1"/>
      <text id="Maka_dari_itu_hadirlah_aplikasi_Peminjaman_Online_khusus_Mahasiswa._Mari_tebarkan_kebaikan_dari_lingkungan_terdekatmu_dulu._" data-name="Maka dari itu, hadirlah aplikasi Peminjaman Online khusus Mahasiswa.
Mari tebarkan kebaikan dari  lingkungan terdekatmu dulu.
" transform="translate(44.751 -50.901)" fill="#3a3a3a" font-size="12" font-family="Poppins-Regular, Poppins"><tspan x="65.216" y="13">Maka dari itu, hadirlah aplikasi </tspan><tspan x="10.748" y="31">Peminjaman Online khusus Mahasiswa.</tspan><tspan x="5.456" y="49" xml:space="preserve">Mari tebarkan kebaikan dari  lingkungan </tspan><tspan x="143.228" y="67">terdekatmu dulu.</tspan><tspan x="245" y="85"></tspan></text>
    </g>
  </g>
</svg>
