<svg xmlns="http://www.w3.org/2000/svg" xmlns:xlink="http://www.w3.org/1999/xlink" width="340" height="269.281" viewBox="0 0 340 269.281">
  <defs>
    <filter id="Union_1" x="110.477" y="0" width="102.793" height="94.065" filterUnits="userSpaceOnUse">
      <feOffset dy="1" input="SourceAlpha"/>
      <feGaussianBlur stdDeviation="3" result="blur"/>
      <feFlood flood-opacity="0.051"/>
      <feComposite operator="in" in2="blur"/>
      <feComposite in="SourceGraphic"/>
    </filter>
  </defs>
  <g id="welcome-screen-1" transform="translate(-9 -274.609)">
    <text id="Pernah_gak_waktu_mau_pakai_barang_tapi_barangnya_ilang_Atau_lagi_butuh_banget_barang_itu_dengan_segera_tapi_malah_gaada_Pasti_kesel_banget_sih." data-name="Pernah gak waktu mau pakai
barang, tapi barangnya ilang?
Atau lagi butuh banget barang itu dengan segera tapi malah gaada?
Pasti kesel banget sih." transform="translate(104 379)" fill="#3a3a3a" font-size="12" font-family="Poppins-Regular, Poppins"><tspan x="71.288" y="13">Pernah gak waktu mau pakai</tspan><tspan x="62.972" y="31">barang, tapi barangnya ilang?</tspan><tspan x="41.156" y="49">Atau lagi butuh banget barang itu </tspan><tspan x="34.952" y="67">dengan segera tapi malah gaada?</tspan><tspan x="114.92" y="85">Pasti kesel banget sih.</tspan></text>
    <g id="Group_216" data-name="Group 216" transform="translate(41.63 74.609)">
      <g id="Group_213" data-name="Group 213" transform="translate(-32.63 208)">
        <g id="thinking" transform="translate(0 67.32)">
          <path id="Path_51" data-name="Path 51" d="M484.3,518.361a35.123,35.123,0,0,0-5.474,3.466,11.773,11.773,0,0,0-3.81,5.156,47.491,47.491,0,0,1-2.357-6.97,115.975,115.975,0,0,0-4.813-12.526,16.69,16.69,0,0,0,7.575-5.817c3.741,3.71,7.55,7.575,9.4,12.47.318.848,1.247,1.752,1.465,2.494C486.586,517.737,485.114,517.912,484.3,518.361Z" transform="translate(-381.28 -475.3)" fill="#ffbfc5"/>
          <path id="Path_52" data-name="Path 52" d="M329,697.938c0,27.82,20.07,30.769,44.834,30.769s44.828-2.949,44.828-30.769-20.07-38.388-44.828-38.388S329,670.124,329,697.938Z" transform="translate(-329 -534.745)" fill="#f70"/>
          <path id="Path_53" data-name="Path 53" d="M546.262,673.231a34.337,34.337,0,0,1,11.185,5.985,1.153,1.153,0,0,1,.505.686c.087.624-.773.9-1.4,1.085-1.871.53-3.011,2.257-4.365,3.6s-3.523,2.413-5.1,1.334a4.988,4.988,0,0,1-1.072-1.129l-6.659-8.679A40.32,40.32,0,0,1,546.449,673" transform="translate(-408.205 -539.809)" fill="#f1f1f1"/>
          <path id="Path_54" data-name="Path 54" d="M560.476,675.6c.885.9,1.247,2.195,2.132,3.117a7.629,7.629,0,0,0,1.97,1.365l5.1,2.806a14.1,14.1,0,0,0,2.494,1.166,22.139,22.139,0,0,0,2.924.624,21.064,21.064,0,0,1,4.127,1.247c1,.411,2.114,1.116,2.107,2.195a2.383,2.383,0,0,1-.624,1.422c-2.007,2.531-5.568,3.117-8.785,3.435-6.958.736-14.078,1.284-20.88-.355a8.908,8.908,0,0,1-3.672-1.59c-2.051-1.7-2.494-4.8-1.7-7.351a3.978,3.978,0,0,1,1.621-2.413c1.079-.624,2.419-.33,3.66-.424a11.548,11.548,0,0,0,3.741-1.2c.779-.349,1.671-.8,1.87-1.727s-.854-1.721-.623-2.494C556.38,673.681,559.665,674.772,560.476,675.6Z" transform="translate(-410.442 -540.372)" fill="#585963"/>
          <path id="Path_56" data-name="Path 56" d="M578.847,717.224l2.145,1.415a3.836,3.836,0,0,1,1.553,1.534c.468,1.091-.162,2.326-.86,3.286a18.879,18.879,0,0,1-8.255,6.4,12.305,12.305,0,0,1-3.585.892,1.5,1.5,0,0,1-.829-.1c-.655-.349-.561-1.278-.567-2.02,0-2.139-1.64-3.878-3.118-5.455s-2.937-3.51-2.6-5.611a6.984,6.984,0,0,1,1.87-3.292,13.46,13.46,0,0,1,2.806-2.65c1.515-.991,2.045-.455,3.467.449Q574.882,714.618,578.847,717.224Z" transform="translate(-416.986 -554.15)" fill="#f1f1f1"/>
          <path id="Path_57" data-name="Path 57" d="M573.189,731.428a3.822,3.822,0,0,0,3.373-.761,8.45,8.45,0,0,0,2.188-2.818,22.9,22.9,0,0,0,1.359-2.98c.449-1.2.86-2.531,1.92-3.261a4.007,4.007,0,0,1,4.364.318,24.051,24.051,0,0,1,3.361,3.217,22.707,22.707,0,0,0,9.539,5.306,103.446,103.446,0,0,0,10.774,2.3,6.11,6.11,0,0,1,2.07.667,4.173,4.173,0,0,1,1.54,4.539,9.916,9.916,0,0,1-2.668,4.277,10.75,10.75,0,0,1-3.572,2.762,11.4,11.4,0,0,1-3.61.686,61.655,61.655,0,0,1-17.831-1.4,47.711,47.711,0,0,0-6.534-1.3c-1.34-.119-2.7-.081-4.04-.175a21.269,21.269,0,0,1-7.719-2.033,2.723,2.723,0,0,1-1.4-1.172,2.878,2.878,0,0,1-.106-1.546l.891-7.818c.081-.68.305-1.528.985-1.633s1.11.561,1.515,1.072a5.53,5.53,0,0,0,6.615,1.446" transform="translate(-418.286 -557.917)" fill="#585963"/>
          <path id="Path_58" data-name="Path 58" d="M472.794,579.392c3.922-.443,8.473-.518,11.129,2.406,1.627,1.8,2.12,4.308,2.681,6.659a43.232,43.232,0,0,0,4.252,11.322A64.046,64.046,0,0,1,494.6,606.4a45.54,45.54,0,0,1,1.92,7.538,45.478,45.478,0,0,0,15.924,25.338c-1.415,3.847-5.512,6.048-9.5,7.033a5.23,5.23,0,0,1-2.974.094,5.311,5.311,0,0,1-1.927-1.422,66.09,66.09,0,0,1-5.194-6.366c-5.742-7.669-11.566-15.493-14.7-24.54-1.1-3.18-2.195-6.858-5.281-8.211a10.027,10.027,0,0,0-5.661-.2,76.74,76.74,0,0,0-12.42,3.186c-4.314,1.5-9.252,3.348-13.2,1.054a9.838,9.838,0,0,1-4.283-6.7,27.588,27.588,0,0,1,0-8.168,8.411,8.411,0,0,1,.86-3.529,7.653,7.653,0,0,1,2.064-2.089,42.5,42.5,0,0,1,11.622-6.235c3.984-1.409,8.273-1.87,12.432-2.575Q468.523,579.872,472.794,579.392Z" transform="translate(-369.664 -504.478)" fill="#3a3a3a"/>
          <path id="Path_59" data-name="Path 59" d="M472.794,579.392c3.922-.443,8.473-.518,11.129,2.406,1.627,1.8,2.12,4.308,2.681,6.659a43.232,43.232,0,0,0,4.252,11.322A64.046,64.046,0,0,1,494.6,606.4a45.54,45.54,0,0,1,1.92,7.538,45.478,45.478,0,0,0,15.924,25.338c-1.415,3.847-5.512,6.048-9.5,7.033a5.23,5.23,0,0,1-2.974.094,5.311,5.311,0,0,1-1.927-1.422,66.09,66.09,0,0,1-5.194-6.366c-5.742-7.669-11.566-15.493-14.7-24.54-1.1-3.18-2.195-6.858-5.281-8.211a10.027,10.027,0,0,0-5.661-.2,76.74,76.74,0,0,0-12.42,3.186c-4.314,1.5-9.252,3.348-13.2,1.054a9.838,9.838,0,0,1-4.283-6.7,27.588,27.588,0,0,1,0-8.168,8.411,8.411,0,0,1,.86-3.529,7.653,7.653,0,0,1,2.064-2.089,42.5,42.5,0,0,1,11.622-6.235c3.984-1.409,8.273-1.87,12.432-2.575Q468.523,579.872,472.794,579.392Z" transform="translate(-369.664 -504.478)" opacity="0.1"/>
          <path id="Path_60" data-name="Path 60" d="M525.829,623.67a20.257,20.257,0,0,1,4.988,3.523,17.9,17.9,0,0,1,3.379,6.067,7.365,7.365,0,0,1,.586,2.344,2.663,2.663,0,0,1-.867,2.17,3.886,3.886,0,0,1-2.45.623c-1.135,0-2.276,0-3.41-.087a5.7,5.7,0,0,1-2.02-.387,5.61,5.61,0,0,1-1.571-1.191,22.084,22.084,0,0,1-4.832-6.522c-.823-1.814-2.182-6-.885-7.893S524.42,622.865,525.829,623.67Z" transform="translate(-400.242 -520.462)" fill="#ffbfc5"/>
          <path id="Path_61" data-name="Path 61" d="M416.051,623.87c5.8,1.87,11.983,2.07,18.05,2.637a150.753,150.753,0,0,1,30.083,5.948,16.148,16.148,0,0,1,5.674,2.637,16.873,16.873,0,0,1,3.292,4.19,70.733,70.733,0,0,1,4.321,7.556c1.1,2.357,1.945,4.826,2.968,7.214a50.692,50.692,0,0,0,15.818,20.257c1.247.966,2.675,2.014,3,3.566a4.951,4.951,0,0,1-.468,2.93c-1.5,3.485-4.6,6.023-7.862,7.962-1.4.835-2.943,1.677-3.629,3.161-4.95-2.045-8.635-6.409-11.7-10.8s-5.786-9.121-9.714-12.763c-1.727-1.609-3.691-3.005-5.056-4.938-2.076-2.943-2.637-6.971-5.431-9.24s-6.858-1.976-10.468-1.621a256.886,256.886,0,0,1-55.583-.623c-3.834-.455-7.775-1.041-11.1-3.018s-5.911-5.667-5.443-9.5c.443-3.591,3.429-6.434,6.765-7.837s7.014-1.659,10.6-2.064A110.816,110.816,0,0,0,416.051,623.87Z" transform="translate(-345.474 -521.311)" fill="#3a3a3a"/>
          <path id="Path_62" data-name="Path 62" d="M356.967,587.162c.455-3.042,1.634-5.923,2.375-8.909a53.913,53.913,0,0,1,1.409-5.568c0-.056.044-.106.062-.156a1.285,1.285,0,0,0,.948-.542,1.571,1.571,0,0,0,.081-.835,6.062,6.062,0,0,1,0-.892,63.74,63.74,0,0,1,3.978-5.892c2.494-3.56,4.689-7.345,6.858-11.123,1.783-3.117,3.566-6.2,5.038-9.452,1.11-2.438,2.039-4.988,3.261-7.345,4.364-8.479,12.17-14.733,20.575-19.222,8.068-4.308,16.79-7.207,25.27-10.636a5.752,5.752,0,0,1,.592.7c4.583,6.266,5.075,14.5,6.964,22.028.761,3.042,1.777,6.073,1.777,9.2,0,4.626-2.213,8.928-4.414,13a70.27,70.27,0,0,1-6.927,11.054c-1.3,1.609-2.725,3.117-4.028,4.707-5.349,6.553-8.436,14.614-11.441,22.526-1.733,4.582-4.576,8.641-6.484,13.155a51.521,51.521,0,0,1-2.082,5.243,5.55,5.55,0,0,1-4.408,3.117,6.61,6.61,0,0,1-1.627-.256c-6.815-1.752-12.519-6.235-18.181-10.437-1.016-.748-2.033-1.484-3.117-2.157s-2.182-1.291-3.292-1.871l-2.531-1.39c-2.756-1.509-5.524-3.024-8.4-4.3a15.28,15.28,0,0,1-2.494-1.247A14.89,14.89,0,0,1,356.967,587.162Z" transform="translate(-339.441 -477.152)" fill="#aaa"/>
          <circle id="Ellipse_13" data-name="Ellipse 13" cx="15.699" cy="15.699" r="15.699" transform="translate(90.909 11.139)" fill="#ffbfc5"/>
          <path id="Path_63" data-name="Path 63" d="M496.187,478.868a3.741,3.741,0,0,0,3.865,1.814,5.418,5.418,0,0,0,3.61-2.575A10.18,10.18,0,0,0,505,473.78a4.521,4.521,0,0,0-.655-3.423,7.516,7.516,0,0,0-1.989-1.4,7.57,7.57,0,0,1-2.494-2.494c-.436-.729-.754-1.521-1.147-2.27-1.428-2.712-4.208-4.919-7.27-4.819a34.691,34.691,0,0,0-4.327.86c-4.869.854-10.157-1.721-14.677.287a13.715,13.715,0,0,0-3.068,2.045q-1.908,1.577-3.666,3.317a7.569,7.569,0,0,0-2.232,3.248c-.623,2.307.842,4.882-.087,7.076a10.419,10.419,0,0,1-1.128,1.777c-1.022,1.5.087,7.37,0,9.184a3.4,3.4,0,0,0,.624,2.494,4.1,4.1,0,0,0,3.117.91h2.039a2.586,2.586,0,0,0,.9-.094,2.737,2.737,0,0,0,1.029-.786c1.7-1.789,2.057-7.631,4.52-7.606a1.758,1.758,0,0,1,1.066.274c.443.324.574.929.892,1.378a2.606,2.606,0,0,0,3.024.711,6.821,6.821,0,0,0,2.575-2.082,10.147,10.147,0,0,1,2.407-2.3c1.316-.767,2.8-1.1,4.078-1.964a35.345,35.345,0,0,0,2.631-2.569,2.212,2.212,0,0,1,2.793-.156C495.432,476.2,495.495,477.5,496.187,478.868Z" transform="translate(-379.01 -459.375)" fill="#3f3d56"/>
          <path id="Path_64" data-name="Path 64" d="M448.864,534.849a24.982,24.982,0,0,1,10.936.873,5.811,5.811,0,0,1,3.049,1.814,5.474,5.474,0,0,1,.873,2.282,18.449,18.449,0,0,1-1.328,11.123,1.471,1.471,0,0,0-.181,1.185,2.1,2.1,0,0,0,.623.624,2.17,2.17,0,0,1-.131,3.236c-.293.212-.68.4-.736.754s.306.7.592.973a3.485,3.485,0,0,1,.973,3.2,7.026,7.026,0,0,0-.318,1.415,4.617,4.617,0,0,0,.517,1.69,7.394,7.394,0,0,1,.468,3.741,4.122,4.122,0,0,0-.044,1.827,4.253,4.253,0,0,0,.7,1.1c1.129,1.521,1.372,4.065-.262,4.988a3.785,3.785,0,0,1,2.014,3.9c.979-.518,2.163.149,2.98.9s1.646,1.671,2.75,1.727c.773.037,1.59-.362,2.288-.044,1.072.48,1.035,2.22,2.089,2.737.923.461,2.213-.287,3,.38.274.231.411.586.68.829.592.549,1.528.318,2.338.281a5.567,5.567,0,0,1,4.67,2.856,13.9,13.9,0,0,1,1.6,5.468,7.236,7.236,0,0,1-.062,3.149,2.7,2.7,0,0,1-2.213,2c-9.633.624-19.141-1.69-28.524-3.971a22.179,22.179,0,0,1-7.856-3.117,23.974,23.974,0,0,1-5.119-5.742,74.887,74.887,0,0,1-7.519-12.089c-2.544-5.555-3.679-11.64-4.788-17.657a16.422,16.422,0,0,1-.405-4.926,13.96,13.96,0,0,1,2.17-5.4,58.784,58.784,0,0,1,4.364-6.191A16.18,16.18,0,0,1,448.864,534.849Z" transform="translate(-367.961 -487.698)" opacity="0.1"/>
          <path id="Path_65" data-name="Path 65" d="M449.9,533.849a24.939,24.939,0,0,1,10.942.879,5.759,5.759,0,0,1,3.049,1.808,5.56,5.56,0,0,1,.873,2.282,18.492,18.492,0,0,1-1.328,11.123,1.471,1.471,0,0,0-.181,1.185,2.093,2.093,0,0,0,.623.623,2.17,2.17,0,0,1-.131,3.236c-.293.212-.68.4-.736.754s.305.7.623.973a3.485,3.485,0,0,1,.973,3.2,7.024,7.024,0,0,0-.318,1.415,4.608,4.608,0,0,0,.511,1.69,7.338,7.338,0,0,1,.474,3.741,2.694,2.694,0,0,0,.655,2.924c1.128,1.521,1.372,4.065-.262,5.025a3.772,3.772,0,0,1,2.014,3.9c.979-.517,2.163.15,2.98.9s1.646,1.671,2.75,1.727c.773.037,1.584-.362,2.288-.044,1.073.486,1.035,2.219,2.089,2.743.923.455,2.213-.293,3,.374.274.231.412.586.68.829.592.549,1.527.318,2.338.281a5.567,5.567,0,0,1,4.67,2.856,14.028,14.028,0,0,1,1.6,5.468,7.439,7.439,0,0,1-.062,3.117,2.7,2.7,0,0,1-2.213,2c-9.633.623-19.141-1.69-28.524-3.972a22.136,22.136,0,0,1-7.856-3.117,23.856,23.856,0,0,1-5.119-5.742,74.56,74.56,0,0,1-7.519-12.083c-2.544-5.561-3.678-11.647-4.788-17.657a16.457,16.457,0,0,1-.405-4.932,13.959,13.959,0,0,1,2.114-5.406,57.189,57.189,0,0,1,4.364-6.185A16.225,16.225,0,0,1,449.9,533.849Z" transform="translate(-368.364 -487.322)" fill="#aaa"/>
        </g>
        <g transform="matrix(1, 0, 0, 1, 0, -8)" filter="url(#Union_1)">
          <path id="Union_1-2" data-name="Union 1" d="M21.447,71.1a125.7,125.7,0,0,1-15.458-.156,11.906,11.906,0,0,0,3.906-2A13.3,13.3,0,0,0,13.069,65.5C5.015,58.574,0,48.828,0,38.032,0,17.028,18.981,0,42.4,0s42.4,17.028,42.4,38.032S65.811,76.065,42.4,76.065A46,46,0,0,1,21.447,71.1ZM4.779,70.869s.447.033,1.21.08a2.845,2.845,0,0,1-.606.074A.88.88,0,0,1,4.779,70.869Z" transform="translate(119.48 8)" fill="#f5f5f5"/>
        </g>
      </g>
      <path id="Path_73" data-name="Path 73" d="M-2243.08-13.324s.948,5.924,5.851,7.666c5.559,1.814,3.583-4.221,5.133-3.688,7.487,2.576,12.621-3.435,13.69-8.8.8-4.009-2.58-6.82-4.268-5.267-.311.24-.6,1.17-.438,2.691.276,2.591.708,5.888,1.926,5.581.984-.192,2.781-4.86,2.781-8.158,0-5.8-10.7-12.236-9.626-6.44s-1.924,7.728,2.14,3.435,1.711-15.027-4.493-12.022-14.118,6.87-7.487,11.163,7.273,1.717,4.064-2.576-11.765-11.163-10.91-1.717,6.845,15.671,6.845,10.734-3.209-16.959-6.845-7.514a17.976,17.976,0,0,0-.95,10.659c.89,3.773,3.587,6.2,6.726,5.442,5.348-1.288,13.477-4.508,6.845-8.587s-4.065,3.649-4.065,3.649,6.2,10.09,9.2,4.079,4.064-12.451-1.07-10.3-7.7,15.242,2.14,16.1,10.7,2.576,10.481-2.147-8.771-5.581-4.492-1.717-20.963-9.446-23.53-7.084-3.636,11.163,1.069,8.8,11.765-29.41,7.487-28.981-4.279,19.535,1.07,19.32" transform="translate(2359.575 269.329)" fill="none" stroke="#707070" stroke-width="2"/>
    </g>
  </g>
</svg>
