<svg xmlns="http://www.w3.org/2000/svg" width="21" height="21" viewBox="0 0 21 21">
  <g id="google" transform="translate(0 0)">
    <path id="Path_67" data-name="Path 67" d="M4.922,106.6a5.544,5.544,0,0,1,.785-2.85v-3.54H2.167a10.505,10.505,0,0,0,0,12.779h3.54v-3.54A5.544,5.544,0,0,1,4.922,106.6Z" transform="translate(0 -96.105)" fill="#fbbd00"/>
    <path id="Path_68" data-name="Path 68" d="M198.461,373.742,196,376.2l2.461,2.461a10.42,10.42,0,0,0,6.39-2.167v-3.536h-3.536A5.577,5.577,0,0,1,198.461,373.742Z" transform="translate(-187.961 -357.664)" fill="#0f9d58"/>
    <path id="Path_69" data-name="Path 69" d="M56.363,325.477l-3.54,3.54a10.667,10.667,0,0,0,.909,1.035,10.431,10.431,0,0,0,7.425,3.075v-4.922A5.58,5.58,0,0,1,56.363,325.477Z" transform="translate(-50.656 -312.127)" fill="#31aa52"/>
    <path id="Path_70" data-name="Path 70" d="M266.5,199.731a10.592,10.592,0,0,0-.172-1.9l-.092-.5H256v4.922h4.981a5.553,5.553,0,0,1-2.128,2.282l3.536,3.536a10.67,10.67,0,0,0,1.035-.909A10.431,10.431,0,0,0,266.5,199.731Z" transform="translate(-245.5 -189.231)" fill="#3c79e6"/>
    <path id="Path_71" data-name="Path 71" d="M202.405,6.556l.435.435,3.48-3.48-.435-.435A10.431,10.431,0,0,0,198.461,0L196,2.461l2.461,2.461A5.542,5.542,0,0,1,202.405,6.556Z" transform="translate(-187.961)" fill="#cf2d48"/>
    <path id="Path_72" data-name="Path 72" d="M61.155,4.922V0a10.432,10.432,0,0,0-7.425,3.075,10.657,10.657,0,0,0-.909,1.035l3.54,3.54a5.581,5.581,0,0,1,4.793-2.728Z" transform="translate(-50.655 0)" fill="#eb4132"/>
  </g>
</svg>
