<svg xmlns="http://www.w3.org/2000/svg" width="21" height="21" viewBox="0 0 21 21">
  <g id="Group_93" data-name="Group 93" transform="translate(-2 -2)">
    <path id="chat" d="M10.5,0A10.5,10.5,0,0,0,1.392,15.727L.04,19.928A.82.82,0,0,0,1.072,20.96l4.2-1.353A10.5,10.5,0,1,0,10.5,0Zm0,19.359a8.834,8.834,0,0,1-4.689-1.342.821.821,0,0,0-.686-.085l-3.033.977.977-3.033a.821.821,0,0,0-.085-.686,8.86,8.86,0,1,1,7.517,4.17ZM11.525,10.5A1.025,1.025,0,1,1,10.5,9.475,1.025,1.025,0,0,1,11.525,10.5Zm4.1,0A1.025,1.025,0,1,1,14.6,9.475,1.025,1.025,0,0,1,15.627,10.5Zm-8.2,0A1.025,1.025,0,1,1,6.4,9.475,1.025,1.025,0,0,1,7.424,10.5Zm0,0" transform="translate(2 2)" fill="#fff"/>
  </g>
</svg>
