<svg xmlns="http://www.w3.org/2000/svg" xmlns:xlink="http://www.w3.org/1999/xlink" width="21" height="21" viewBox="0 0 21 21">
  <defs>
    <clipPath id="clip-path">
      <path id="_011-user-2" data-name="011-user-2" d="M16.755,17.5a.708.708,0,0,1-.707-.706V15.9c0-2.033-3.351-3.75-7.317-3.75S1.414,13.868,1.414,15.9v.892a.707.707,0,0,1-1.414,0V15.9c0-2.9,3.835-5.164,8.731-5.164s8.73,2.268,8.73,5.164v.892A.707.707,0,0,1,16.755,17.5ZM8.76,8.547A4.275,4.275,0,0,1,4.542,4.9,4.272,4.272,0,1,1,9.4,8.5,4.21,4.21,0,0,1,8.76,8.547ZM8.77,1.414a2.793,2.793,0,0,0-.42.031A2.859,2.859,0,0,0,7.066,6.569a2.831,2.831,0,0,0,1.7.564A2.909,2.909,0,0,0,9.189,7.1a2.859,2.859,0,0,0,0-5.657A2.772,2.772,0,0,0,8.77,1.414Z" transform="translate(0 0)" fill="#f70"/>
    </clipPath>
  </defs>
  <g id="Group_26" data-name="Group 26" transform="translate(-296 -591)">
    <g id="Group_19" data-name="Group 19" transform="translate(296 591)" opacity="0">
      <rect id="Rectangle_4" data-name="Rectangle 4" width="21" height="21" fill="#f70"/>
    </g>
    <g id="Group_2_Copy_3" data-name="Group 2 Copy 3" transform="translate(296 591)">
      <rect id="Rectangle_12" data-name="Rectangle 12" width="21" height="21" fill="none"/>
      <g id="transaksi_daftar" data-name="transaksi daftar" transform="translate(2.897 1.448)">
        <g id="Group_23" data-name="Group 23" transform="translate(0)">
          <path id="Path_13" data-name="Path 13" d="M65.237.465a.9.9,0,0,0-.91.125L63.016,1.642a.1.1,0,0,1-.125,0L61.108.2a.916.916,0,0,0-1.133,0L58.193,1.64a.1.1,0,0,1-.126,0L56.285.2a.916.916,0,0,0-1.133,0L53.368,1.642a.1.1,0,0,1-.126,0L51.93.59A.906.906,0,0,0,50.74.654a.724.724,0,0,0-.213.514V16.936a.807.807,0,0,0,.839.77.9.9,0,0,0,.567-.194l1.311-1.052a.1.1,0,0,1,.125,0l1.783,1.445a.916.916,0,0,0,1.133,0l1.782-1.444a.1.1,0,0,1,.126,0l1.782,1.444a.916.916,0,0,0,1.133,0l1.784-1.445a.1.1,0,0,1,.126,0l1.312,1.052a.906.906,0,0,0,1.191-.064.724.724,0,0,0,.213-.513V1.167A.757.757,0,0,0,65.237.465ZM53.653,6.142h4.7a.344.344,0,1,1,0,.685h-4.7a.344.344,0,1,1,0-.685Zm8.953,5.82H53.653a.344.344,0,1,1,0-.685h8.953a.344.344,0,1,1,0,.685Zm0-2.568H53.653a.344.344,0,1,1,0-.685h8.953a.344.344,0,1,1,0,.685Z" transform="translate(-50.526 0)" fill="#f70"/>
        </g>
      </g>
    </g>
  </g>
</svg>
