<svg xmlns="http://www.w3.org/2000/svg" width="40" height="40" viewBox="0 0 40 40">
  <g id="Group_46" data-name="Group 46" transform="translate(-290 -609)">
    <path id="Path_25" data-name="Path 25" d="M20,0A20,20,0,1,1,0,20,20,20,0,0,1,20,0Z" transform="translate(290 609)" fill="#f70"/>
    <path id="_5A" data-name="5A" d="M12.952,12.952h10.1a.952.952,0,0,0,0-1.9h-10.1V.951a.952.952,0,0,0-1.9,0v10.1H.952a.952.952,0,1,0,0,1.9h10.1v10.1a.952.952,0,0,0,1.9,0v-10.1" transform="translate(298 617)" fill="#fff"/>
  </g>
</svg>
