<svg id="poin" xmlns="http://www.w3.org/2000/svg" width="25" height="25" viewBox="0 0 25 25">
  <g id="Group_67" data-name="Group 67" transform="translate(10.742 7.531)">
    <g id="Group_66" data-name="Group 66">
      <path id="Path_27" data-name="Path 27" d="M223.006,154.23h-3v5.859h3a2.858,2.858,0,0,0,2.854-2.854v-.151A2.858,2.858,0,0,0,223.006,154.23Z" transform="translate(-220.001 -154.23)" fill="#ed4c28"/>
    </g>
  </g>
  <g id="Group_69" data-name="Group 69">
    <g id="Group_68" data-name="Group 68">
      <path id="Path_28" data-name="Path 28" d="M21.339,3.661A12.5,12.5,0,1,0,3.661,21.339,12.5,12.5,0,0,0,21.339,3.661Zm-3.272,6.875a4.324,4.324,0,0,1-4.319,4.319h-3v4.079H9.277V6.066h4.47a4.324,4.324,0,0,1,4.319,4.319Z" fill="#ed4c28"/>
    </g>
  </g>
</svg>
