<svg xmlns="http://www.w3.org/2000/svg" xmlns:xlink="http://www.w3.org/1999/xlink" width="21" height="21" viewBox="0 0 21 21">
  <defs>
    <clipPath id="clip-path">
      <path id="_011-user-2" data-name="011-user-2" d="M17.017,17.773a.719.719,0,0,1-.718-.717V16.15c0-2.065-3.4-3.809-7.431-3.809S1.436,14.085,1.436,16.15v.906a.718.718,0,0,1-1.436,0V16.15C0,13.209,3.9,10.9,8.868,10.9s8.867,2.3,8.867,5.245v.906A.718.718,0,0,1,17.017,17.773ZM8.9,8.68a4.342,4.342,0,0,1-4.284-3.7A4.338,4.338,0,1,1,9.543,8.632,4.276,4.276,0,0,1,8.9,8.68Zm.01-7.245a2.836,2.836,0,0,0-.426.032,2.9,2.9,0,0,0-1.3,5.2A2.875,2.875,0,0,0,8.9,7.245a2.954,2.954,0,0,0,.431-.032,2.9,2.9,0,0,0,0-5.745A2.816,2.816,0,0,0,8.907,1.436Z" transform="translate(0 0)" fill="#f70"/>
    </clipPath>
  </defs>
  <g id="Group_25" data-name="Group 25" transform="translate(-296 -591.307)">
    <g id="Group_19" data-name="Group 19" transform="translate(296 591.307)" opacity="0">
      <rect id="Rectangle_4" data-name="Rectangle 4" width="21" height="21" fill="#f70"/>
    </g>
    <g id="Group_2_Copy_3" data-name="Group 2 Copy 3" transform="translate(296 591.307)">
      <rect id="Rectangle_12" data-name="Rectangle 12" width="21" height="21" fill="none"/>
      <path id="_011-user-2-2" data-name="011-user-2" d="M17.017,17.773H.718A.719.719,0,0,1,0,17.055v-.9C0,13.209,3.895,10.9,8.867,10.9s8.868,2.3,8.868,5.246v.9A.719.719,0,0,1,17.017,17.773ZM8.9,8.681a4.343,4.343,0,0,1-4.284-3.7A4.33,4.33,0,1,1,8.9,8.681Z" transform="translate(1.777 1.449)" fill="#f70"/>
    </g>
  </g>
</svg>
