<svg xmlns="http://www.w3.org/2000/svg" xmlns:xlink="http://www.w3.org/1999/xlink" width="342.082" height="352.929" viewBox="0 0 342.082 352.929">
  <defs>
    <linearGradient id="linear-gradient" y1="0.5" x2="1" y2="0.5" gradientUnits="objectBoundingBox">
      <stop offset="0" stop-color="gray" stop-opacity="0.251"/>
      <stop offset="0.54" stop-color="gray" stop-opacity="0.122"/>
      <stop offset="1" stop-color="gray" stop-opacity="0.102"/>
    </linearGradient>
  </defs>
  <g id="bpp" transform="translate(-222.859 -53.059)">
    <path id="Path_75" data-name="Path 75" d="M471.685,281.8l-15.066-10.157h0l7.6-11.313-39.793-3.173-14.3,11.058-17.9-10.034-14.929,1.8-.177-3.935a111.064,111.064,0,0,0-1.235-12.248c.064-1.23.108-2.641.1-4.176,0-6.468-.876-15.042-4.722-20.757l.885-7.959-7.181-8.485a54.286,54.286,0,0,1,3.935-6.621c.246-.354.492-.7.757-1.033a17.86,17.86,0,0,0,16.675-17.708,11.33,11.33,0,0,0-.049-1.294,4.688,4.688,0,0,0-.054-.521c.91.492,1.83.984,2.75,1.476.172.246.369.492.585.782h0l.044.054.275.339.089.1c.1.118.2.231.3.349l.069.079c.261.29.536.585.831.876a.883.883,0,0,1,.1.093l.369.344.1.093c.315.28.649.551.984.807l.108.079.423.29.138.089c.162.1.33.2.492.3l.059.034c.192.1.389.2.585.3l.1.039q.251.108.492.207l.152.054c.172.059.339.113.516.162l.108.03c.216.054.433.1.654.133h.025a5.347,5.347,0,0,0,.63.064h.143a5.406,5.406,0,0,0,.566,0h.123a5.826,5.826,0,0,0,.7-.084,7.762,7.762,0,0,0,3.1-1.112,2.7,2.7,0,0,0,.63-.585,2.319,2.319,0,0,0-.1-2.7h0c-.384-.915-2.873-1.559-2.873-1.559s-7.87-3.286-7.87-5.9-1.968-16.193-22.277-19.3c0,0-13.212-.743-16.926,6.331l-.079.826c-1.092.684-2,2.056-3.074,2.459a5.023,5.023,0,0,0-1.333.492v-.093h0a1.268,1.268,0,0,0-.3.389,3.935,3.935,0,0,0-.408,1.476,5.557,5.557,0,0,1-.644,1.786,3.973,3.973,0,0,1-.3.453h0l-.084.133a3.591,3.591,0,0,0,1.672-.271,8.328,8.328,0,0,1-.492,1.968,1.633,1.633,0,0,0,1.515-.905v-.039l.064-.089a4.151,4.151,0,0,0,.3-.713l-.054.059c.1-.32.187-.644.3-.959a1.505,1.505,0,0,1,.241-.492,1.19,1.19,0,0,1,1.018-.339l-.2,4.265h.089a5.819,5.819,0,0,1-.433.9c-.7,1.131-1.968,1.9-2.435,3.143a4.624,4.624,0,0,0-.226,1.859c0,.369.044.743.074,1.112v-.03a4.148,4.148,0,0,1-.443,2.71c-.364.541-.949.949-1.151,1.564a1.524,1.524,0,0,0-.074.531,5.966,5.966,0,0,0,.334,1.579.069.069,0,0,0,0-.03,2.4,2.4,0,0,1,.084,1.161c-.221.984-1.417,1.805-1.358,2.745a1.058,1.058,0,0,0,.054.364,1.992,1.992,0,0,0,1.112.984,4.329,4.329,0,0,0,2.5.551,3.286,3.286,0,0,0,.935-.32c-.344.792-.7,1.574-1.058,2.317-.054.118-.113.236-.172.354,0,0-3.04-2.031-4.766,2.11a9.189,9.189,0,0,0-1.067,2.774,6.6,6.6,0,0,1-.364,1.141,7.344,7.344,0,0,1-3.286,2.951c-3.522,1.613-17.747,19.356-18,23.95a26.8,26.8,0,0,1-.905,5.3,31.554,31.554,0,0,0-.846,12.538,23.994,23.994,0,0,0,.871,4c1.51,4.589,2.518,13.153,2.518,13.153l1.633,14.865a42.3,42.3,0,0,0,.266,6.144c-1.667,1.9-8.362,9.838-5.8,12,1.968,1.7,5.411,1.422,7.344,1.072-1.628,4.029-4.191,11.033-4.53,15.844-.492,7.118.841,16.547,2.951,20.167s9.144,12.907,9.144,12.907-.33,12.74,2.184,17.368,3.527,14.23,3.527,14.23,2.346,8.106,1.171,11.087,2.179,5.46-1.343,7.442-8.028,46.66-8.028,46.66-1.815,29.282,0,30.772a1.843,1.843,0,0,0,.31.182v9.838s-1.259,2.066,3.861,2.484c3.507.28,13.448.915,19.346,1.284l4.57.285s10.821,2.154,15.6,0,13.256-2.105,12-7.8a16.19,16.19,0,0,0-.669-2.277c-1.382-3.532-3.728-3.935-8.052-4.919-.251-.054-.492-.1-.713-.143-4.555-.792-6.05,1.328-8.6-1.431-2.218-2.386-9.282-5.057-11.687-5.9.059-.177.133-.349.192-.531a3.6,3.6,0,0,1-1.825-.89l6.517.413,3.881.241s9.2,1.835,13.281,0,11.264-1.786,10.192-6.621a13.873,13.873,0,0,0-.566-1.938c-1.176-3-3.173-3.33-6.847-4.161-.212-.044-.408-.089-.605-.123-3.871-.674-5.14,1.126-7.309-1.215-1.859-2-7.727-4.235-9.838-5,0-1.092-1.476-2.646-2.405-4.206-1.092-1.82.925-8.19.925-8.19l1.151-26.429a5.105,5.105,0,0,1,1.377-.394s5.2-4.968,4.029-10.261a34,34,0,0,1-.374-4.835c1.712-1.589,4.068-3.935,4.737-5.381,1.092-2.356,0-13.773,0-13.773V322.524l8.706.88,7.9.812,2.405.246,7.9.8,18.155,1.835,16.36-3.1,7.078-1.338,14.555-2.755V284.29ZM351.857,163.794l-1.013-.108C351.179,163.7,351.533,163.764,351.857,163.794Z" transform="translate(-95.23 -76.907)" fill="url(#linear-gradient)"/>
    <path id="Path_76" data-name="Path 76" d="M519.15,445.371c-4.919,7.039-22.6,3.31-22.6,3.31l-13.7-12.823L481,434.122l3.094-6.572s.984.271,2.671.753C495.624,430.875,523.3,439.454,519.15,445.371Z" transform="translate(-178.008 -217.354)" fill="#efb7b9"/>
    <path id="Path_77" data-name="Path 77" d="M486.755,428.3a28.855,28.855,0,0,1-3.91,7.555L481,434.122l3.094-6.572S485.088,427.821,486.755,428.3Z" transform="translate(-178.008 -217.354)" opacity="0.1"/>
    <path id="Path_78" data-name="Path 78" d="M384.719,278.206s-12.632,5.6-12.012,19.361a226.829,226.829,0,0,0,2.892,26.444s-2.582,20.7,8.17,26.04,20.7,9.725,20.7,9.725,16.822,1.81,18.913,2.558,8.623-10.684,7.418-12.464-16.645-5.514-18.613-8.485-6.517-4.806-6.517-4.806-4.7-2.843-5.017-5.411.92-4.481,1.235-5.607,1.112-12,1.112-12S408.3,274.847,384.719,278.206Z" transform="translate(-122.971 -141.365)" fill="#dce6f2"/>
    <path id="Path_79" data-name="Path 79" d="M397.814,370.39s-17.329,2.9-15.652,8.967A36.738,36.738,0,0,1,397.814,370.39Z" transform="translate(-127.728 -188.31)" opacity="0.1"/>
    <path id="Path_80" data-name="Path 80" d="M406.2,375.38s-9.528,7.777-7.664,8.175S406.2,375.38,406.2,375.38Z" transform="translate(-135.986 -190.845)" opacity="0.1"/>
    <path id="Path_81" data-name="Path 81" d="M422.137,380.89s-2.553,5.229-.984,4.875S422.137,380.89,422.137,380.89Z" transform="translate(-147.34 -193.645)" opacity="0.1"/>
    <path id="Path_82" data-name="Path 82" d="M433.014,353.438l-1.053-.3a3.008,3.008,0,0,0,.138-2.15c-1.205-1.781-16.635-5.509-18.6-8.485s-6.517-4.806-6.517-4.806-4.7-2.843-5.017-5.411.92-4.481,1.235-5.607,1.112-12.007,1.112-12.007,5.288-38.706-18.3-35.347c0,0-12.632,5.607-12.017,19.365a226.189,226.189,0,0,0,2.9,26.444s-2.582,20.7,8.17,26.04,20.7,9.725,20.7,9.725,16.817,1.805,18.913,2.558c.792.285,2.223-1.185,3.625-3.207l.8.743,13.7,12.818s17.683,3.733,22.6-3.305C469.565,364.584,441.892,356.006,433.014,353.438Z" transform="translate(-123.627 -141.934)" opacity="0.1"/>
    <path id="Path_83" data-name="Path 83" d="M379.311,170.518a4.181,4.181,0,0,0-1.363.526c-.492.408-.492,1.107-.615,1.717a5.647,5.647,0,0,1-.984,2.351,3.537,3.537,0,0,0,1.638-.271,8.43,8.43,0,0,1-.492,1.968,1.594,1.594,0,0,0,1.476-.9,9.476,9.476,0,0,0,.615-1.727,1.422,1.422,0,0,1,.236-.492c.453-.536,1.294-.3,1.992-.226a3.271,3.271,0,0,0,2.991-1.436c.743-1.126.787-4.009-.984-4.314C381.972,167.409,380.821,169.957,379.311,170.518Z" transform="translate(-124.833 -85.314)" fill="#965d7b"/>
    <g id="Group_219" data-name="Group 219" transform="translate(251.59 85.603)" opacity="0.1">
      <path id="Path_84" data-name="Path 84" d="M378.7,174.983c.044-.241.074-.492.128-.733h0a2.885,2.885,0,0,0-.615,1.717,5.408,5.408,0,0,1-.29,1.038A5.637,5.637,0,0,0,378.7,174.983Z" transform="translate(-377.222 -174.25)"/>
      <path id="Path_85" data-name="Path 85" d="M378.133,181.968a8.181,8.181,0,0,0,.492-1.968,3.522,3.522,0,0,1-1.559.271,5.694,5.694,0,0,1-.566.984,3.5,3.5,0,0,0,1.633-.266,8.18,8.18,0,0,1-.492,1.968,1.6,1.6,0,0,0,1.476-.9,3.672,3.672,0,0,0,.3-.7A1.476,1.476,0,0,1,378.133,181.968Z" transform="translate(-376.5 -177.172)"/>
      <path id="Path_86" data-name="Path 86" d="M386.171,175.955c-.7-.069-1.544-.31-2,.226a1.52,1.52,0,0,0-.236.492c-.044.128-.084.261-.118.394.467-.369,1.225-.172,1.859-.108a3.286,3.286,0,0,0,2.991-1.436,2.725,2.725,0,0,0,.33-.772A3.276,3.276,0,0,1,386.171,175.955Z" transform="translate(-380.219 -174.504)"/>
    </g>
    <path id="Path_87" data-name="Path 87" d="M314.613,201l7.5,9.021-.979,9.1-9.065-14.191Z" transform="translate(-45.33 -75.171)" fill="#dce6f2"/>
    <path id="Path_88" data-name="Path 88" d="M322.109,210.021l-.92,8.564-.059.541-8.18-12.809-.88-1.382.256-.4L314.608,201l.507.61Z" transform="translate(-45.33 -75.171)" opacity="0.1"/>
    <path id="Path_89" data-name="Path 89" d="M403.532,217.506c-2.538.728-4.963,3.227-7.073,6.262a53.443,53.443,0,0,0-3.817,6.562c-.694,1.387-1.3,2.72-1.81,3.881l-.354.826c-.856,2.022-1.333,3.374-1.333,3.374s-19.429-14.609-16.355-15.593c1.033-.33,2.391-2.543,3.733-5.332l.167-.354c.851-1.79,1.687-3.787,2.43-5.666,1.52-3.861,2.646-7.216,2.646-7.216S411.279,215.293,403.532,217.506Z" transform="translate(-122.856 -103.891)" fill="#efb7b9"/>
    <path id="Path_90" data-name="Path 90" d="M459.26,202.58s4.486,8.116,10.512,7.009,3.546-4.358,3.546-4.358Z" transform="translate(-166.961 -103.042)" fill="#444053"/>
    <path id="Path_91" data-name="Path 91" d="M404.264,753.944c-3.974,1.815-12.961,0-12.961,0l-3.787-.236c-4.919-.315-13.153-.846-16.065-1.082-4.25-.349-3.207-2.091-3.207-2.091V740.014l20.62-5.224s8.15,2.789,10.384,5.224c2.12,2.322,3.36.536,7.142,1.205.187.034.384.074.59.123,3.591.821,5.539,1.146,6.69,4.122a13.821,13.821,0,0,1,.556,1.918C415.287,752.173,408.233,752.139,404.264,753.944Z" transform="translate(-120.657 -373.468)" fill="#a36468"/>
    <path id="Path_92" data-name="Path 92" d="M413.669,752.1a15.408,15.408,0,0,1-2.322,1.19c-2.705,1.235-5.278,2.74-8.013,3.906a18.74,18.74,0,0,1-8.642,1.776c-1.549-.113-3.133-.492-4.614-.049a10.657,10.657,0,0,0-2.563,1.422c-4.919-.315-13.153-.846-16.065-1.082-4.25-.349-3.207-2.091-3.207-2.091v-1.23c.152,0,.325-.044.521-.059a9.287,9.287,0,0,1,3,.448c2.135.58,4.26,1.151,6.394,1.722a5.052,5.052,0,0,1,2.459-3.138,7.84,7.84,0,0,1,3.965-.91c3.31.044,6.444,1.613,9.749,1.771a5.371,5.371,0,0,0,2.7-.453c.453-.226.851-.556,1.294-.807a9.439,9.439,0,0,1,2.228-.753,49.077,49.077,0,0,0,6.37-2.056c.59-.231,1.279-.649,1.2-1.279-.1-.836-1.417-.935-1.761-1.7a.984.984,0,0,1,.039-.871c.187.034.384.074.59.123C410.57,748.8,412.518,749.129,413.669,752.1Z" transform="translate(-120.657 -380.109)" opacity="0.1"/>
    <path id="Path_93" data-name="Path 93" d="M389.138,797.243c-4.673,2.135-15.248,0-15.248,0l-4.452-.261c-5.765-.369-15.475-.984-18.9-1.274-5-.413-3.773-2.459-3.773-2.459v-12.4l24.265-6.148s9.592,3.281,12.218,6.148c2.494,2.73,3.935.63,8.406,1.417.221.039.453.089.694.143,4.225.984,6.517,1.353,7.87,4.855a15.782,15.782,0,0,1,.654,2.258C402.089,795.157,393.811,795.113,389.138,797.243Z" transform="translate(-109.731 -393.747)" fill="#a36468"/>
    <path id="Path_94" data-name="Path 94" d="M400.2,795.1a18.311,18.311,0,0,1-2.73,1.4c-3.182,1.451-6.212,3.222-9.429,4.594a22.105,22.105,0,0,1-10.172,2.09c-1.82-.133-3.684-.59-5.411-.059a12.544,12.544,0,0,0-3.025,1.692c-5.765-.369-15.475-.984-18.9-1.274-5-.413-3.773-2.459-3.773-2.459v-1.446a6.17,6.17,0,0,1,.615-.069,10.794,10.794,0,0,1,3.532.526l7.521,2.027a5.952,5.952,0,0,1,2.917-3.694,9.179,9.179,0,0,1,4.668-1.072c3.9.054,7.58,1.9,11.471,2.086a6.35,6.35,0,0,0,3.168-.526c.536-.271.984-.659,1.525-.949a10.7,10.7,0,0,1,2.622-.885,58.877,58.877,0,0,0,7.457-2.42c.694-.275,1.505-.767,1.412-1.505-.123-.984-1.667-1.1-2.076-2.007a1.185,1.185,0,0,1,.049-1.023c.221.039.453.089.694.143C396.56,791.217,398.852,791.6,400.2,795.1Z" transform="translate(-109.731 -401.587)" opacity="0.1"/>
    <path id="Path_95" data-name="Path 95" d="M394.9,647.54l-1.313,30.9s-1.968,6.311-.9,8.116,2.868,3.605,2.213,4.673-8.524,12.607-11.067,8.18-5.052-23.61-5.052-23.61l2.346-23.694Z" transform="translate(-126.068 -329.135)" fill="#444053"/>
    <path id="Path_96" data-name="Path 96" d="M415.508,491l3.65,4.879v42.44s1.067,11.313,0,13.65-6.478,7.009-6.478,7.009l-4.55-23.364.984-24.717Z" transform="translate(-140.981 -249.594)" fill="#444053"/>
    <path id="Path_97" data-name="Path 97" d="M394.9,647.54l-1.313,30.9s-1.968,6.311-.9,8.116,2.868,3.605,2.213,4.673-8.524,12.607-11.067,8.18-5.052-23.61-5.052-23.61l2.346-23.694Z" transform="translate(-126.068 -329.135)" opacity="0.1"/>
    <path id="Path_98" data-name="Path 98" d="M415.508,491l3.65,4.879v42.44s1.067,11.313,0,13.65-6.478,7.009-6.478,7.009l-4.55-23.364.984-24.717Z" transform="translate(-140.981 -249.594)" opacity="0.1"/>
    <path id="Path_99" data-name="Path 99" d="M377.935,442.005v22.956l-4.1,17.87s-1.313,43.123-.167,48.367-3.935,10.167-3.935,10.167-2.951.33-2.951,2.622-4.919,8.854-4.919,8.854l.162,12.789s2.135,23.94-1.146,28.529,1.146,5.248,1.146,5.248c-4.1,13.443-23.773,10.33-25.548,8.854s0-30.5,0-30.5,4.4-44.269,7.841-46.237.167-4.427,1.313-7.378-1.146-10.984-1.146-10.984-.984-9.513-3.443-14.1-2.135-17.216-2.135-17.216-6.886-9.183-8.933-12.789-3.365-12.951-2.873-20c.334-4.766,2.838-11.707,4.427-15.7.762-1.913,1.313-3.153,1.313-3.153l.467.123,26.867,7.034Z" transform="translate(-99.758 -218.7)" fill="#444053"/>
    <path id="Path_100" data-name="Path 100" d="M410.407,217.471c-2.538.728-4.963,3.227-7.073,6.262h-.551a17.57,17.57,0,0,1-15.248-8.819,17.3,17.3,0,0,1-1.545-3.517c1.52-3.861,2.646-7.216,2.646-7.216S418.154,215.257,410.407,217.471Z" transform="translate(-129.732 -103.855)" opacity="0.1"/>
    <path id="Path_101" data-name="Path 101" d="M419.549,188.021a17.585,17.585,0,1,1-32.9-8.618,17.185,17.185,0,0,1,1.859-2.686,17.8,17.8,0,0,1,4.043-3.551,17.585,17.585,0,0,1,26.97,13.566C419.535,187.165,419.549,187.593,419.549,188.021Z" transform="translate(-128.913 -86.703)" fill="#efb7b9"/>
    <path id="Path_102" data-name="Path 102" d="M398.716,260.612l-.059.541-8.18-12.789c-.856,2.022-1.333,3.374-1.333,3.374s-19.429-14.629-16.355-15.612c1.033-.33,2.391-2.543,3.733-5.332l.167-.354c1.426,4.25,9.715,12.745,13.163,16.148.4.393.728.718.984.954l.526.492.275.275C392.893,249.6,398.185,255.31,398.716,260.612Z" transform="translate(-122.856 -117.199)" opacity="0.1"/>
    <path id="Path_103" data-name="Path 103" d="M378.422,303.858l-.9,28.81-.157,5.13s-10.6-.984-20.5-2.066c-7.969-.871-15.48-1.81-16.635-2.361A31.309,31.309,0,0,0,333.1,331.8c-1.928-.261-3.443-.4-3.443-.4s-.566.167-1.436.325c-1.9.344-5.234.625-7.177-1.062-2.484-2.159,4.043-10,5.671-11.889l.359-.408-.615-5.681-1.6-14.732s-.984-8.485-2.459-13.035a24.042,24.042,0,0,1-.851-3.96,31.717,31.717,0,0,1,.826-12.425,27.091,27.091,0,0,0,.885-5.258c.246-4.55,14.142-22.135,17.585-23.733a7.3,7.3,0,0,0,3.522-3.512,6.707,6.707,0,0,0,.536-1.53c1.476-6.394,5.209-3.856,5.209-3.856.9,5,14.835,18.244,14.835,18.244l.275.275c1.382,1.417,7.541,8.067,7.1,13.743a16.659,16.659,0,0,0,.93,6.217,105.139,105.139,0,0,1,4.845,27.545Z" transform="translate(-96.448 -117.051)" fill="#dce6f2"/>
    <path id="Path_104" data-name="Path 104" d="M391.457,310.45s-3.443,8.362-6.026,9.715S392.687,323.018,391.457,310.45Z" transform="translate(-129.227 -157.853)" opacity="0.1"/>
    <path id="Path_105" data-name="Path 105" d="M395.25,342.2s-7.87.984-7.87,2.459S395.25,342.2,395.25,342.2Z" transform="translate(-130.438 -173.986)" opacity="0.1"/>
    <path id="Path_106" data-name="Path 106" d="M404.617,361.7s-11.436,24.348-14.633,25.086S404.617,361.7,404.617,361.7Z" transform="translate(-131.566 -183.894)" opacity="0.1"/>
    <path id="Path_107" data-name="Path 107" d="M388.875,251.116l-9.459,4.112L368,237.983a6.709,6.709,0,0,0,.536-1.53c1.476-6.394,5.209-3.856,5.209-3.856.9,5,14.835,18.244,14.835,18.244Z" transform="translate(-120.591 -118.042)" opacity="0.1"/>
    <path id="Path_108" data-name="Path 108" d="M389.875,249.116l-9.459,4.112L369,235.983a6.71,6.71,0,0,0,.536-1.53c1.476-6.394,5.209-3.856,5.209-3.856.9,5,14.835,18.244,14.835,18.244Z" transform="translate(-121.099 -117.026)" fill="#dce6f2"/>
    <path id="Path_109" data-name="Path 109" d="M382.649,369.14s-10.6-.984-20.5-2.066l17.757,4.648v5.411c-.777.7-1.451,1.067-1.889.88-2.046-.861-18.746-3.566-18.746-3.566s-9.7-4.919-20.167-10.821a8.086,8.086,0,0,1-.738-.462,11.629,11.629,0,0,1-3.1-3.1,22.028,22.028,0,0,1-3.286-9.921,42.9,42.9,0,0,1-.256-6.09,49.93,49.93,0,0,1,.63-6.881,226.292,226.292,0,0,1-1.476-26.562c.123-13.773,13.035-18.691,13.035-18.691,23.733-2.091,16.375,36.276,16.375,36.276s-1.372,10.821-1.746,11.928-1.717,2.951-1.535,5.534,4.717,5.671,4.717,5.671,4.427,2.076,6.252,5.15c1.328,2.268,9.956,5.342,14.83,7.536Z" transform="translate(-101.728 -148.393)" opacity="0.1"/>
    <path id="Path_110" data-name="Path 110" d="M417.748,174.737a5.568,5.568,0,0,1-.492,2.351,14.535,14.535,0,0,1-.876,1.751,8.067,8.067,0,0,1-2.154,2.676,11.021,11.021,0,0,1-3.935,1.367,5.694,5.694,0,0,0-3.556,2.017,7.054,7.054,0,0,0-.831,2.41,5.184,5.184,0,0,1-.984,2.332,1.933,1.933,0,0,1-2.3.551,2.327,2.327,0,0,1-.89-1.146,16.437,16.437,0,0,1-.93-4.029,8.57,8.57,0,0,0-1.382-3.861,3.458,3.458,0,0,0-3.63-1.392,3.5,3.5,0,0,0-1.968,1.909,10.941,10.941,0,0,0-.743,2.715q-.915,5.007-2.159,9.956a.915.915,0,0,1-.162.374.708.708,0,0,1-.492.207c-1.1.148-2.159-.625-3.271-.541a1.88,1.88,0,0,0-.339.054,17.575,17.575,0,0,1,1.776-20.069l.089-.025a5.3,5.3,0,0,0,1.968-1.24,20.768,20.768,0,0,0,1.968-2.277l.393-.492a22.435,22.435,0,0,1,3.837-3.645,3.935,3.935,0,0,1,1.308-.708,3.876,3.876,0,0,1,1.24-.039,31.27,31.27,0,0,0,5.121.192,32.847,32.847,0,0,1,3.6-.364c3.114.089,5.77,2.287,7.737,4.7A7.276,7.276,0,0,1,417.748,174.737Z" transform="translate(-128.877 -84.339)" opacity="0.1"/>
    <path id="Path_111" data-name="Path 111" d="M379.087,177.013c-.684,1.121-1.918,1.884-2.381,3.114-.679,1.786.467,4.009-.585,5.6-.349.536-.925.935-1.121,1.549-.335,1.038.58,2.145.344,3.212s-1.643,1.968-1.269,3.01a1.967,1.967,0,0,0,1.082.984,4.23,4.23,0,0,0,2.459.546c1.343-.221,2.341-1.54,3.7-1.638,1.107-.079,2.164.689,3.266.546a.738.738,0,0,0,.492-.211.851.851,0,0,0,.162-.374q1.24-4.943,2.164-9.956a10.725,10.725,0,0,1,.738-2.715,3.527,3.527,0,0,1,1.968-1.909,3.469,3.469,0,0,1,3.63,1.392,8.519,8.519,0,0,1,1.387,3.861,16.655,16.655,0,0,0,.925,4.029,2.351,2.351,0,0,0,.9,1.151,1.927,1.927,0,0,0,2.3-.551,5.131,5.131,0,0,0,.984-2.336,7.024,7.024,0,0,1,.831-2.405,5.707,5.707,0,0,1,3.556-2.017,11.129,11.129,0,0,0,3.935-1.372,8.1,8.1,0,0,0,2.154-2.671,7.863,7.863,0,0,0,1.348-4.107,7.54,7.54,0,0,0-2.017-4.255c-1.968-2.41-4.629-4.609-7.742-4.693a30.6,30.6,0,0,0-3.6.364,30.776,30.776,0,0,1-5.12-.2,4.024,4.024,0,0,0-1.24.044,3.708,3.708,0,0,0-1.3.708,22.444,22.444,0,0,0-3.842,3.64,28.192,28.192,0,0,1-2.371,2.755,5.337,5.337,0,0,1-1.968,1.244c-.492.138-.984.039-1.451.192C379.953,174.008,379.761,175.9,379.087,177.013Z" transform="translate(-123.645 -83.846)" fill="#965d7b"/>
    <path id="Path_112" data-name="Path 112" d="M469.771,209.584c-3.935.723-7.2-2.459-9-4.781a19.292,19.292,0,0,1-1.51-2.223l13.507,2.548.546.1S475.8,208.483,469.771,209.584Z" transform="translate(-166.961 -103.042)" opacity="0.1"/>
    <g id="Group_220" data-name="Group 220" transform="translate(250.343 89.415)" opacity="0.1">
      <path id="Path_113" data-name="Path 113" d="M376.287,212.219A4.1,4.1,0,0,0,376,210.33c0,.049-.044.1-.059.148a3.661,3.661,0,0,0,.256,2.027A1.474,1.474,0,0,0,376.287,212.219Z" transform="translate(-374.931 -196.395)"/>
      <path id="Path_114" data-name="Path 114" d="M379.069,197.8a10.93,10.93,0,0,0,.039,2.041,10.959,10.959,0,0,0-.039-2.041Z" transform="translate(-376.542 -190.028)"/>
      <path id="Path_115" data-name="Path 115" d="M410.651,185.173a8.067,8.067,0,0,1-2.154,2.676,10.988,10.988,0,0,1-3.935,1.367,5.681,5.681,0,0,0-3.556,2.017,7.086,7.086,0,0,0-.831,2.41,5.15,5.15,0,0,1-.984,2.336,1.92,1.92,0,0,1-2.3.551,2.351,2.351,0,0,1-.9-1.151,16.376,16.376,0,0,1-.925-4.029,8.5,8.5,0,0,0-1.387-3.861,3.458,3.458,0,0,0-3.63-1.392,3.512,3.512,0,0,0-1.968,1.909,10.723,10.723,0,0,0-.738,2.715q-.92,5.012-2.164,9.956a.851.851,0,0,1-.162.374.738.738,0,0,1-.492.212c-1.1.143-2.159-.625-3.266-.546-1.363.1-2.361,1.417-3.7,1.633a4.157,4.157,0,0,1-2.459-.546,2.631,2.631,0,0,1-.9-.639,1.328,1.328,0,0,0-.182,1.146,1.918,1.918,0,0,0,1.082.984,4.156,4.156,0,0,0,2.459.546c1.343-.216,2.341-1.535,3.7-1.633,1.107-.079,2.164.689,3.266.546a.738.738,0,0,0,.492-.211.851.851,0,0,0,.162-.374q1.24-4.919,2.164-9.956a10.722,10.722,0,0,1,.738-2.715,3.512,3.512,0,0,1,1.968-1.908,3.461,3.461,0,0,1,3.63,1.392,8.519,8.519,0,0,1,1.387,3.861A16.658,16.658,0,0,0,396,196.87a2.351,2.351,0,0,0,.9,1.151,1.927,1.927,0,0,0,2.3-.551,5.15,5.15,0,0,0,.984-2.336,7.088,7.088,0,0,1,.831-2.41,5.73,5.73,0,0,1,3.556-2.017,11.219,11.219,0,0,0,3.935-1.367,8.067,8.067,0,0,0,2.154-2.676,7.832,7.832,0,0,0,1.348-4.1,5.293,5.293,0,0,0-.059-.561A9.666,9.666,0,0,1,410.651,185.173Z" transform="translate(-373.964 -182)"/>
    </g>
    <path id="Path_116" data-name="Path 116" d="M419.644,179.442a17.378,17.378,0,0,1,2.189,7.3c-4.383-2.459-8.5-5.16-10.585-6.1-3.625-1.638-17.181-1.392-22.277-1.24a17.183,17.183,0,0,1,1.859-2.686,17.8,17.8,0,0,1,4.058-3.551,17.595,17.595,0,0,1,24.781,6.262Z" transform="translate(-131.246 -86.707)" opacity="0.1"/>
    <path id="Path_117" data-name="Path 117" d="M471,207.5c-2.366.728-6.227-.679-10.231-2.7a19.292,19.292,0,0,1-1.51-2.223l13.507,2.548C473.662,205.738,473.889,206.609,471,207.5Z" transform="translate(-166.961 -103.042)" opacity="0.1"/>
    <path id="Path_118" data-name="Path 118" d="M403.348,154.057s-12.912-.738-16.542,6.272l-.585,6.212-.984-.108-.2,4.225s19.734-.861,24.225,1.166,18.446,12.238,24.038,10.516-.492-3.32-.492-3.32-7.7-3.261-7.7-5.819S423.205,157.131,403.348,154.057Z" transform="translate(-129.249 -78.376)" fill="#444053"/>
    <path id="Path_119" data-name="Path 119" d="M371.63,622.28s8.239,7.993,11.805,7.378C383.435,629.658,373.352,628.8,371.63,622.28Z" transform="translate(-122.435 -316.3)" opacity="0.1"/>
    <path id="Path_120" data-name="Path 120" d="M368.13,629.81s.738,4.112,2.705,3.709S368.13,629.81,368.13,629.81Z" transform="translate(-120.657 -320.126)" opacity="0.1"/>
    <path id="Path_121" data-name="Path 121" d="M384.1,769.53s-11.7,9.1-9.724,9.346S384.1,769.53,384.1,769.53Z" transform="translate(-123.718 -391.12)" opacity="0.1"/>
    <path id="Path_122" data-name="Path 122" d="M330.96,340.963l37.875-6.163v35.858l-35.986-1.884Z" transform="translate(-54.928 -143.158)" fill="#f70"/>
    <path id="Path_123" data-name="Path 123" d="M330.96,340.963l37.875-6.163v35.858l-35.986-1.884Z" transform="translate(-54.928 -143.158)" opacity="0.05"/>
    <path id="Path_124" data-name="Path 124" d="M407.96,334.8l45.42,3.4-2.513,31.2-42.907,1.254Z" transform="translate(-94.053 -143.158)" fill="#f70"/>
    <path id="Path_125" data-name="Path 125" d="M407.96,334.8l45.42,3.4-2.513,31.2-42.907,1.254Z" transform="translate(-94.053 -143.158)" opacity="0.1"/>
    <path id="Path_126" data-name="Path 126" d="M421.925,312.55,407.96,323.494l45.42,3.4,7.423-11.2Z" transform="translate(-94.053 -131.852)" fill="#f70"/>
    <path id="Path_127" data-name="Path 127" d="M303.08,318.741l34.1-4.151,17.491,9.941-37.875,6.163Z" transform="translate(-40.762 -132.888)" fill="#f70"/>
    <path id="Path_128" data-name="Path 128" d="M377.138,350.478V399.5l-17.742-1.82-7.718-.787-2.351-.246-7.713-.792-10.654-1.092V347.33l37.87,2.577Z" transform="translate(-54.928 -149.524)" fill="#f70"/>
    <path id="Path_129" data-name="Path 129" d="M461.957,341.71v47.811l-14.22,2.73-6.916,1.328-15.981,3.069V347.622Z" transform="translate(-102.63 -146.669)" fill="#f70"/>
    <path id="Path_130" data-name="Path 130" d="M461.957,341.71v47.811l-14.22,2.73-6.916,1.328-15.981,3.069V347.622Z" transform="translate(-102.63 -146.669)" opacity="0.05"/>
    <path id="Path_131" data-name="Path 131" d="M303.08,357.65l13.714-10.32,46.178,3.148-6.8,11.451Z" transform="translate(-40.762 -149.524)" fill="#f70"/>
    <path id="Path_132" data-name="Path 132" d="M303.08,357.65l13.714-10.32,46.178,3.148-6.8,11.451Z" transform="translate(-40.762 -149.524)" fill="#fff" opacity="0.1"/>
    <path id="Path_133" data-name="Path 133" d="M461.957,341.71l-37.117,5.912,12.081,10.821,39.759-6.67Z" transform="translate(-102.63 -146.669)" fill="#f70"/>
    <path id="Path_134" data-name="Path 134" d="M461.957,341.71l-37.117,5.912,12.081,10.821,39.759-6.67Z" transform="translate(-102.63 -146.669)" fill="#fff" opacity="0.1"/>
    <path id="Path_135" data-name="Path 135" d="M464.246,433.591l-6.916,1.328V424.7l6.478-1.633Z" transform="translate(-119.139 -188.009)" fill="#fff" opacity="0.1"/>
    <path id="Path_136" data-name="Path 136" d="M380.8,435.96v6.758l-7.718-.787V435.96Z" transform="translate(-76.33 -194.559)" fill="#fff" opacity="0.1"/>
    <path id="Path_137" data-name="Path 137" d="M360.333,440.29v3.6l-7.713-.792v-2.8Z" transform="translate(-65.934 -196.759)" fill="#fff" opacity="0.1"/>
    <path id="Path_138" data-name="Path 138" d="M471.906,463.375c-5.288,6.763-22.75,2.09-22.75,2.09l-12.976-13.537-1.761-1.835,3.443-6.394s.984.325,2.627.9C449.186,447.635,476.358,457.684,471.906,463.375Z" transform="translate(-154.34 -225.56)" opacity="0.1"/>
    <path id="Path_139" data-name="Path 139" d="M470.906,461.375c-5.288,6.763-22.75,2.09-22.75,2.09l-12.976-13.537-1.761-1.835,3.443-6.394s.984.325,2.627.9C448.186,445.635,475.358,455.684,470.906,461.375Z" transform="translate(-153.832 -224.544)" fill="#efb7b9"/>
    <path id="Path_140" data-name="Path 140" d="M439.45,442.6a29.08,29.08,0,0,1-4.309,7.334l-1.761-1.835,3.443-6.394S437.812,442.025,439.45,442.6Z" transform="translate(-153.811 -224.544)" opacity="0.1"/>
    <path id="Path_141" data-name="Path 141" d="M344.914,287.913S332,292.832,331.879,306.6a226.3,226.3,0,0,0,1.476,26.562s-3.689,20.536,6.763,26.439,20.167,10.821,20.167,10.821,16.7,2.705,18.751,3.566,9.179-10.207,8.072-12.051-16.311-6.394-18.116-9.469-6.252-5.145-6.252-5.145-4.535-3.094-4.717-5.676,1.156-4.427,1.535-5.534,1.751-11.928,1.751-11.928S368.647,285.8,344.914,287.913Z" transform="translate(-102.236 -146.359)" fill="#dce6f2"/>
    <path id="Path_142" data-name="Path 142" d="M353.662,380.7s-17.462,1.968-16.109,8.116A36.736,36.736,0,0,1,353.662,380.7Z" transform="translate(-105.082 -193.548)" opacity="0.1"/>
    <path id="Path_143" data-name="Path 143" d="M361.791,385.7s-9.911,7.255-8.091,7.747S361.791,385.7,361.791,385.7Z" transform="translate(-113.211 -196.089)" opacity="0.1"/>
    <path id="Path_144" data-name="Path 144" d="M377.6,391.7s-2.828,5.086-1.23,4.82S377.6,391.7,377.6,391.7Z" transform="translate(-124.597 -199.138)" opacity="0.1"/>
    <path id="Path_145" data-name="Path 145" d="M731.764,167.395s-18.691-1.126-16.508,11.987a3.2,3.2,0,0,0,1.663,3.369s.034-.984,1.918-.644a8.613,8.613,0,0,0,2.031.1,4.215,4.215,0,0,0,2.489-1.028h0s5.258-2.169,7.3-10.767c0,0,1.515-1.879,1.476-2.361L728.98,169.4a5.659,5.659,0,0,1,.226,4.171s-.1-4.088-.708-3.994c-.123,0-1.638.792-1.638.792s1.854,3.965.453,6.852c0,0,.531-4.889-1.033-6.567l-2.223,1.3s2.169,4.1.7,7.442c0,0,.379-5.13-1.166-7.127l-2.017,1.569s2.041,4.043.8,6.817c0,0-.162-5.971-1.235-6.424a12.165,12.165,0,0,0-2.027,2.194s1.392,2.951.526,4.481c0,0-.531-3.979-.984-4a13.241,13.241,0,0,0-1.938,4.427,9.572,9.572,0,0,1,1.51-4.693,5.269,5.269,0,0,0-2.686,1.392s.271-1.864,3.118-2.027a13.456,13.456,0,0,1,1.84-2.125,11.534,11.534,0,0,0-4.55.526s1.51-1.756,5.071-.984l1.968-1.623s-3.729-.492-5.312.054c0,0,1.82-1.554,5.849-.423l2.164-1.294a19.431,19.431,0,0,0-5.071-.438s2-1.077,5.706.089l1.549-.694s-2.332-.457-3.01-.531-.718-.261-.718-.261a8.048,8.048,0,0,1,4.373.492S731.833,167.6,731.764,167.395Z" transform="translate(-296.948 -85.152)" fill="#f70"/>
    <path id="Path_147" data-name="Path 147" d="M620.431,257.992s4.3-18.244-9-18.308a3.2,3.2,0,0,0-3.6,1.062s.949.2.3,2a8.76,8.76,0,0,0-.443,1.968,4.225,4.225,0,0,0,.585,2.622h0s1.244,5.558,9.346,9.041c0,0,1.594,1.81,2.076,1.83l-.787-3.34a5.652,5.652,0,0,1-4.151-.492s4.048.6,4.053,0c0-.123-.492-1.751-.492-1.751s-4.225,1.151-6.832-.723c0,0,4.727,1.358,6.65.1l-.885-2.42s-4.427,1.441-7.457-.58c0,0,4.993,1.249,7.226.069l-1.205-2.253s-4.329,1.318-6.852-.379c0,0,5.9.856,6.542-.118a12.219,12.219,0,0,0-1.815-2.376s-3.128.876-4.506-.241c0,0,4.009.152,4.1-.271a13.261,13.261,0,0,0-4.048-2.671,9.641,9.641,0,0,1,4.373,2.292,5.307,5.307,0,0,0-.915-2.887s1.79.59,1.476,3.443a12.252,12.252,0,0,1,1.776,2.174,11.567,11.567,0,0,0,.256-4.574s1.476,1.79.084,5.16l1.259,2.238s1.141-3.591.851-5.243c0,0,1.225,2.056-.58,5.834l.91,2.356a19.7,19.7,0,0,0,1.294-4.919s.723,2.154-1.062,5.612l.423,1.643s.846-2.218,1.033-2.878.379-.664.379-.664a8.057,8.057,0,0,1-1.225,4.23S620.22,258.017,620.431,257.992Z" transform="translate(-242.373 -121.804)" fill="#f70" opacity="0.1"/>
    <path id="Path_148" data-name="Path 148" d="M528.422,284.849s-15.012-11.23-20.379.935a3.2,3.2,0,0,0-.462,3.728s.561-.792,1.968.521a8.611,8.611,0,0,0,1.643,1.2,4.22,4.22,0,0,0,2.641.492h0s5.588,1.077,12.022-4.978c0,0,2.3-.738,2.513-1.171l-3.389-.6a5.683,5.683,0,0,1-2.1,3.61s2.159-3.473,1.6-3.724c-.113-.054-1.805-.246-1.805-.246s-.63,4.338-3.384,5.976c0,0,3.133-3.792,2.745-6.055l-2.573-.138s-.438,4.619-3.507,6.606c0,0,3.133-4.078,2.951-6.6l-2.548.207s-.516,4.491-3.079,6.124c0,0,3.143-5.076,2.5-6.04a12.366,12.366,0,0,0-2.9.713s-.448,3.217-2.022,4.033c0,0,1.746-3.615,1.392-3.866a13.222,13.222,0,0,0-4.063,2.641,9.606,9.606,0,0,1,3.847-3.089,5.3,5.3,0,0,0-3.01-.315s1.249-1.407,3.719.025a12.419,12.419,0,0,1,2.705-.762,11.511,11.511,0,0,0-4.092-2.061s2.233-.639,4.766,1.967l2.553-.261s-2.838-2.459-4.466-2.873c0,0,2.376-.3,5.116,2.858l2.518.113a19.636,19.636,0,0,0-3.994-3.158s2.258.2,4.717,3.212l1.677.271s-1.7-1.663-2.228-2.1-.457-.615-.457-.615a8.082,8.082,0,0,1,3.389,2.814S528.358,285.051,528.422,284.849Z" transform="translate(-191.298 -142.444)" fill="#f70" opacity="0.1"/>
    <path id="Path_151" data-name="Path 151" d="M671.239,108.208s-18.642-2.076-17.1,11.151a3.193,3.193,0,0,0,1.476,3.443s.084-.984,1.968-.541a9.05,9.05,0,0,0,2.026.2,4.23,4.23,0,0,0,2.533-.9h0s5.366-1.9,7.87-10.389c0,0,1.6-1.8,1.569-2.282l-3.222,1.19a5.486,5.486,0,0,1,0,4.176s.1-4.088-.492-4.024c-.123,0-1.677.708-1.677.708s1.653,4.058.108,6.886c0,0,.777-4.86-.7-6.611l-2.287,1.181s1.968,4.206.32,7.472c0,0,.64-5.106-.8-7.177l-2.09,1.476s1.83,4.137.448,6.847c0,0,.143-5.971-.905-6.478a12.8,12.8,0,0,0-2.14,2.086s1.245,3,.3,4.5c0,0-.33-4-.762-4.038a13.227,13.227,0,0,0-2.164,4.338,9.576,9.576,0,0,1,1.751-4.614,5.293,5.293,0,0,0-2.755,1.254s.364-1.845,3.217-1.864c0,0,1.549-1.923,1.968-2.027a11.565,11.565,0,0,0-4.575.3s1.6-1.682,5.111-.7l2.071-1.52s-3.743-.757-5.327-.266c0,0,1.9-1.476,5.863-.123l2.228-1.185a19.586,19.586,0,0,0-5.047-.694s2.051-.984,5.7.379l1.584-.615s-2.307-.576-2.986-.684-.7-.3-.7-.3a8.091,8.091,0,0,1,4.348.708A20.122,20.122,0,0,0,671.239,108.208Z" transform="translate(-265.936 -55.03)" fill="#f70" opacity="0.1"/>
    <path id="Path_154" data-name="Path 154" d="M927.972,134.989s-15.012-11.23-20.379.935a3.2,3.2,0,0,0-.462,3.728s.561-.792,1.968.521a8.611,8.611,0,0,0,1.643,1.2,4.225,4.225,0,0,0,2.641.492h0s5.588,1.077,12.027-4.978c0,0,2.292-.738,2.509-1.171l-3.379-.61a5.683,5.683,0,0,1-2.1,3.61s2.159-3.473,1.6-3.724c-.113-.054-1.8-.246-1.8-.246s-.635,4.338-3.389,5.976c0,0,3.133-3.792,2.745-6.055l-2.573-.138s-.438,4.619-3.507,6.606c0,0,3.138-4.078,2.951-6.6l-2.548.207s-.492,4.491-3.079,6.124c0,0,3.148-5.076,2.5-6.04a12.365,12.365,0,0,0-2.9.713s-.443,3.217-2.017,4.033c0,0,1.741-3.615,1.387-3.866a13.222,13.222,0,0,0-4.063,2.641,9.607,9.607,0,0,1,3.847-3.089,5.3,5.3,0,0,0-3.01-.315s1.254-1.407,3.724.025a12.366,12.366,0,0,1,2.7-.762,11.511,11.511,0,0,0-4.093-2.061s2.233-.639,4.766,1.968l2.553-.261s-2.833-2.459-4.466-2.873c0,0,2.376-.3,5.116,2.858l2.523.113a19.721,19.721,0,0,0-4-3.158s2.263.2,4.717,3.212l1.677.271s-1.7-1.663-2.228-2.1-.453-.575-.453-.575a8.087,8.087,0,0,1,3.384,2.814S927.908,135.191,927.972,134.989Z" transform="translate(-394.317 -66.297)" fill="#f70" opacity="0.1"/>
    <path id="Path_157" data-name="Path 157" d="M851.6,212.713s-9.557-16.129-19.183-6.95a3.2,3.2,0,0,0-1.859,3.266s.821-.521,1.608,1.225a8.5,8.5,0,0,0,1.058,1.741,4.176,4.176,0,0,0,2.243,1.476h0s4.747,3.138,13.015,0c0,0,2.4.2,2.764-.118l-2.887-1.859a5.655,5.655,0,0,1-3.325,2.528s3.33-2.376,2.912-2.823c-.089-.093-1.574-.92-1.574-.92s-2.248,3.763-5.411,4.22c0,0,4.348-2.3,4.855-4.535l-2.322-1.092s-2.179,4.1-5.775,4.752c0,0,4.461-2.563,5.248-4.958l-2.43-.787s-2.2,3.935-5.194,4.476c0,0,4.85-3.483,4.624-4.619a12.148,12.148,0,0,0-2.951-.453s-1.648,2.8-3.414,2.951c0,0,3-2.666,2.769-3.04a13.241,13.241,0,0,0-4.766.885,9.6,9.6,0,0,1,4.737-1.377,5.288,5.288,0,0,0-2.661-1.446s1.7-.821,3.443,1.446a12.459,12.459,0,0,1,2.789.334,11.766,11.766,0,0,0-2.986-3.473s2.3.266,3.635,3.66l2.459.738s-1.667-3.374-3.025-4.368c0,0,2.312.635,3.63,4.6l2.287,1.067a19.764,19.764,0,0,0-2.459-4.427s2.012,1.048,3.128,4.776l1.441.9s-.925-2.189-1.249-2.794-.187-.738-.187-.738a8.081,8.081,0,0,1,2.051,3.9S851.46,212.875,851.6,212.713Z" transform="translate(-355.61 -103.224)" fill="#f70"/>
    <path id="Path_158" data-name="Path 158" d="M734.073,274.866s.492-18.741-12.528-16.1a3.205,3.205,0,0,0-3.315,1.776s.984,0,.708,1.894a8.632,8.632,0,0,0-.03,2.036,4.205,4.205,0,0,0,1.107,2.459h0s2.346,5.184,11.008,6.945c0,0,1.923,1.451,2.405,1.372l-1.476-3.109a5.677,5.677,0,0,1-4.161.369s4.083-.241,3.969-.841c0-.123-.846-1.618-.846-1.618s-3.906,1.992-6.832.684c0,0,4.919.369,6.527-1.249l-1.372-2.179s-4.024,2.3-7.418.944c0,0,5.14.207,7.088-1.4l-1.638-1.968s-3.969,2.174-6.783,1.023c0,0,5.962-.359,6.394-1.446a12.758,12.758,0,0,0-2.263-1.968s-2.882,1.476-4.456.679c0,0,3.935-.659,3.96-1.1a13.2,13.2,0,0,0-4.506-1.79,9.576,9.576,0,0,1,4.747,1.358A5.287,5.287,0,0,0,722.888,259s1.874.212,2.13,3.05a12.23,12.23,0,0,1,2.184,1.771,11.5,11.5,0,0,0-.679-4.53s1.81,1.451,1.131,5.032l1.687,1.938s.384-3.748-.231-5.307c0,0,1.613,1.766.62,5.829l1.362,2.12a19.612,19.612,0,0,0,.271-5.086s1.141,1.968.1,5.711l.748,1.525s.379-2.346.428-3.03.236-.728.236-.728a8.077,8.077,0,0,1-.339,4.393S733.857,274.93,734.073,274.866Z" transform="translate(-298.549 -131.462)" fill="#f70"/>
    <text id="Yah_namanya_juga_Mahasiswa._Buat_jajan_risol_goceng_aja_mikirnya_sampe_ubanan_apalagi_buat_beli_barangyang_gamurah_-_murah_amat._" data-name="Yah namanya juga Mahasiswa.
Buat jajan risol goceng aja
mikirnya sampe ubanan, 
apalagi buat beli barangyang
gamurah - murah amat. " transform="translate(319.941 154.586)" fill="#3a3a3a" font-size="12" font-family="Poppins-Regular, Poppins"><tspan x="58.088" y="13">Yah namanya juga Mahasiswa.</tspan><tspan x="86.144" y="31">Buat jajan risol goceng aja</tspan><tspan x="96.284" y="49">mikirnya sampe ubanan, </tspan><tspan x="65.108" y="67">apalagi buat beli barangyang</tspan><tspan x="98.252" y="85">gamurah - murah amat. </tspan></text>
  </g>
</svg>
