<svg xmlns="http://www.w3.org/2000/svg" xmlns:xlink="http://www.w3.org/1999/xlink" width="360" height="720" viewBox="0 0 360 720">
  <defs>
    <filter id="Path_26" x="-7.5" y="-4.5" width="375" height="90" filterUnits="userSpaceOnUse">
      <feOffset dy="3" input="SourceAlpha"/>
      <feGaussianBlur stdDeviation="2.5" result="blur"/>
      <feFlood flood-opacity="0.161"/>
      <feComposite operator="in" in2="blur"/>
      <feComposite in="SourceGraphic"/>
    </filter>
    <filter id="Rectangle_56" x="70.5" y="241.5" width="284" height="59" filterUnits="userSpaceOnUse">
      <feOffset dy="1" input="SourceAlpha"/>
      <feGaussianBlur stdDeviation="1.5" result="blur-2"/>
      <feFlood flood-opacity="0.161"/>
      <feComposite operator="in" in2="blur-2"/>
      <feComposite in="SourceGraphic"/>
    </filter>
    <filter id="Rectangle_57" x="70.5" y="296.5" width="147" height="34" filterUnits="userSpaceOnUse">
      <feOffset dy="1" input="SourceAlpha"/>
      <feGaussianBlur stdDeviation="1.5" result="blur-3"/>
      <feFlood flood-opacity="0.161"/>
      <feComposite operator="in" in2="blur-3"/>
      <feComposite in="SourceGraphic"/>
    </filter>
    <filter id="Rectangle_58" x="5.5" y="106.5" width="284" height="59" filterUnits="userSpaceOnUse">
      <feOffset dy="1" input="SourceAlpha"/>
      <feGaussianBlur stdDeviation="1.5" result="blur-4"/>
      <feFlood flood-opacity="0.161"/>
      <feComposite operator="in" in2="blur-4"/>
      <feComposite in="SourceGraphic"/>
    </filter>
    <filter id="Rectangle_59" x="55.5" y="161.5" width="234" height="34" filterUnits="userSpaceOnUse">
      <feOffset dy="1" input="SourceAlpha"/>
      <feGaussianBlur stdDeviation="1.5" result="blur-5"/>
      <feFlood flood-opacity="0.161"/>
      <feComposite operator="in" in2="blur-5"/>
      <feComposite in="SourceGraphic"/>
    </filter>
    <filter id="Rectangle_60" x="181.5" y="191.5" width="108" height="34" filterUnits="userSpaceOnUse">
      <feOffset dy="1" input="SourceAlpha"/>
      <feGaussianBlur stdDeviation="1.5" result="blur-6"/>
      <feFlood flood-opacity="0.161"/>
      <feComposite operator="in" in2="blur-6"/>
      <feComposite in="SourceGraphic"/>
    </filter>
    <filter id="Rectangle_63" x="1" y="192" width="358" height="343" filterUnits="userSpaceOnUse">
      <feOffset dy="3" input="SourceAlpha"/>
      <feGaussianBlur stdDeviation="3" result="blur-7"/>
      <feFlood flood-opacity="0.161"/>
      <feComposite operator="in" in2="blur-7"/>
      <feComposite in="SourceGraphic"/>
    </filter>
    <filter id="Rectangle_2" x="180.5" y="456.5" width="164" height="60" filterUnits="userSpaceOnUse">
      <feOffset dy="-1" input="SourceAlpha"/>
      <feGaussianBlur stdDeviation="1.5" result="blur-8"/>
      <feFlood flood-opacity="0.161"/>
      <feComposite operator="in" in2="blur-8"/>
      <feComposite in="SourceGraphic"/>
    </filter>
    <clipPath id="clip-_16-Offer-5-deal">
      <rect width="360" height="720"/>
    </clipPath>
  </defs>
  <g id="_16-Offer-5-deal" data-name="16-Offer-5-deal" clip-path="url(#clip-_16-Offer-5-deal)">
    <rect width="360" height="720" fill="#f5f5f5"/>
    <g id="Group_41" data-name="Group 41">
      <g transform="matrix(1, 0, 0, 1, 0, 0)" filter="url(#Path_26)">
        <path id="Path_26-2" data-name="Path 26" d="M0,0H360V75H0Z" fill="#f70"/>
      </g>
      <rect id="Rectangle_31" data-name="Rectangle 31" width="1" height="33" rx="0.5" transform="translate(10 35)" fill="#fff" opacity="0"/>
      <text id="Risyad_A" data-name="Risyad A" transform="translate(113 34)" fill="#fff" font-size="20" font-family="Poppins-Medium, Poppins" font-weight="500" letter-spacing="0.01em"><tspan x="24.51" y="21">Risyad A</tspan></text>
    </g>
    <g id="_004-close-2" data-name="004-close-2" transform="translate(320 36)">
      <path id="_004-close-2-2" data-name="004-close-2" d="M14.9,15.811,8,8.914l-6.9,6.9A.646.646,0,1,1,.19,14.9L7.086,8,.19,1.1A.646.646,0,1,1,1.1.189L8,7.086l6.9-6.9a.646.646,0,0,1,.914.914L8.914,8l6.9,6.9a.646.646,0,0,1-.914.914Z" transform="translate(2 1)" fill="#fff" stroke="#fff" stroke-miterlimit="10" stroke-width="2"/>
    </g>
    <g id="Group_176" data-name="Group 176">
      <circle id="Ellipse_6" data-name="Ellipse 6" cx="25" cy="25" r="25" transform="translate(10 245)" fill="#360d60"/>
      <text id="_12.24_PM" data-name="12.24 PM" transform="translate(83 341)" fill="#aaa" font-size="10" font-family="Poppins-Medium, Poppins" font-weight="500" letter-spacing="0.01em"><tspan x="0" y="0">12.24 PM</tspan></text>
      <g id="Group_171" data-name="Group 171" transform="translate(0 150)">
        <g transform="matrix(1, 0, 0, 1, 0, -150)" filter="url(#Rectangle_56)">
          <rect id="Rectangle_56-2" data-name="Rectangle 56" width="275" height="50" rx="20" transform="translate(75 245)" fill="#f70"/>
        </g>
        <text id="Alhamdulillah_akhirnya_ada_juga_orang_yang_mau_minjemin_gas_bro" data-name="Alhamdulillah akhirnya ada juga orang yang mau minjemin, gas bro" transform="translate(88 103)" fill="#fff" font-size="12" font-family="Poppins-Regular, Poppins" letter-spacing="0.01em"><tspan x="0" y="13">Alhamdulillah akhirnya ada juga orang </tspan><tspan x="0" y="31">yang mau minjemin, gas bro</tspan></text>
      </g>
      <g id="Group_170" data-name="Group 170" transform="translate(0 150)">
        <g transform="matrix(1, 0, 0, 1, 0, -150)" filter="url(#Rectangle_57)">
          <rect id="Rectangle_57-2" data-name="Rectangle 57" width="138" height="25" rx="12.5" transform="translate(75 300)" fill="#f70"/>
        </g>
        <text id="Oke_Deal_ya_10_poin" data-name="Oke Deal ya 10 poin" transform="translate(85 155)" fill="#fff" font-size="12" font-family="Poppins-Regular, Poppins" letter-spacing="0.01em"><tspan x="0" y="13">Oke Deal ya 10 poin</tspan></text>
      </g>
    </g>
    <g id="Group_175" data-name="Group 175">
      <circle id="Ellipse_7" data-name="Ellipse 7" cx="25" cy="25" r="25" transform="translate(300 110)" fill="#feb201"/>
      <text id="_12.20_PM" data-name="12.20 PM" transform="translate(236 236)" fill="#aaa" font-size="10" font-family="Poppins-Medium, Poppins" font-weight="500" letter-spacing="0.01em"><tspan x="0" y="0">12.20 PM</tspan></text>
      <g id="Group_172" data-name="Group 172" transform="translate(0 -92)">
        <g transform="matrix(1, 0, 0, 1, 0, 92)" filter="url(#Rectangle_58)">
          <g id="Rectangle_58-2" data-name="Rectangle 58" transform="translate(10 110)" fill="#fff" stroke="#d1d1d1" stroke-width="0.5">
            <rect width="275" height="50" rx="20" stroke="none"/>
            <rect x="0.25" y="0.25" width="274.5" height="49.5" rx="19.75" fill="none"/>
          </g>
        </g>
        <text id="brobrogore_gua_ada_ini_payung_warna_item_persis_sama_yang_lo_pengen_pinjem" data-name="brobrogore, gua ada ini payung warna item persis sama yang lo pengen pinjem" transform="translate(23 210)" fill="#3a3a3a" font-size="12" font-family="Poppins-Regular, Poppins" letter-spacing="0.01em"><tspan x="0" y="13">brobrogore, gua ada ini payung warna </tspan><tspan x="0" y="31">item persis sama yang lo pengen pinjem</tspan></text>
      </g>
      <g id="Group_173" data-name="Group 173" transform="translate(0 -92)">
        <g transform="matrix(1, 0, 0, 1, 0, 92)" filter="url(#Rectangle_59)">
          <g id="Rectangle_59-2" data-name="Rectangle 59" transform="translate(60 165)" fill="#fff" stroke="#d1d1d1" stroke-width="0.5">
            <rect width="225" height="25" rx="12.5" stroke="none"/>
            <rect x="0.25" y="0.25" width="224.5" height="24.5" rx="12.25" fill="none"/>
          </g>
        </g>
        <text id="tapi_bayar_ya_broo_10_poin_aja_gmn" data-name="tapi bayar ya broo 10 poin aja gmn" transform="translate(68 260)" fill="#3a3a3a" font-size="12" font-family="Poppins-Regular, Poppins" letter-spacing="0.01em"><tspan x="0" y="13">tapi bayar ya broo 10 poin aja </tspan></text>
      </g>
      <g id="Group_174" data-name="Group 174" transform="translate(0 -92)">
        <g transform="matrix(1, 0, 0, 1, 0, 92)" filter="url(#Rectangle_60)">
          <g id="Rectangle_60-2" data-name="Rectangle 60" transform="translate(186 195)" fill="#fff" stroke="#d1d1d1" stroke-width="0.5">
            <rect width="99" height="25" rx="12.5" stroke="none"/>
            <rect x="0.25" y="0.25" width="98.5" height="24.5" rx="12.25" fill="none"/>
          </g>
        </g>
        <text id="Deal_ga_nicc" data-name="Deal ga nicc" transform="translate(197 290)" fill="#3a3a3a" font-size="12" font-family="Poppins-Regular, Poppins" letter-spacing="0.01em"><tspan x="0" y="13">Deal ga nicc</tspan></text>
      </g>
    </g>
    <g id="deal" transform="translate(20 -47.333)">
      <g id="Group_169" data-name="Group 169" transform="translate(0 85.333)">
        <path id="Path_42" data-name="Path 42" d="M19.822,86.287a.4.4,0,0,0-.381-.053l-3.4,1.3a1.688,1.688,0,0,0-.944.912,1.817,1.817,0,0,0-.081.246,14.958,14.958,0,0,1-2.745-1.121,3.189,3.189,0,0,0-3.914.408c-.542.01-1.3.078-2.042.147-.467.043-.909.083-1.267.106a1.821,1.821,0,0,0-.152-.661,1.688,1.688,0,0,0-.944-.912l-3.4-1.3a.4.4,0,0,0-.381.053A.445.445,0,0,0,0,85.77v8.75a.427.427,0,0,0,.417.438H1.634a1.648,1.648,0,0,0,1.31-.67c.166.132.362.287.568.45.486.384,1.018.8,1.252,1.009,1.552,1.364,3.417,2.836,3.788,3.093A2.96,2.96,0,0,0,10,99.333a1.475,1.475,0,0,0,.983-.292,1.28,1.28,0,0,0,1.044-.024A1.6,1.6,0,0,0,12.8,98.2a1.554,1.554,0,0,0,1.038-.16,1.459,1.459,0,0,0,.677-.716,1.268,1.268,0,0,0,.91-.305,1.449,1.449,0,0,0,.546-1.3l1.057-.614a1.646,1.646,0,0,0,1.338.72h1.217A.427.427,0,0,0,20,95.4v-8.75A.444.444,0,0,0,19.822,86.287Zm-4.9,10.042c-.141.114-.339.177-.427.085,0,0-.011,0-.016-.009s-.012-.018-.021-.025c-.3-.247-1.633-1.681-2.457-2.584a.4.4,0,0,0-.589-.013.452.452,0,0,0-.013.618c.194.212,1.748,1.912,2.37,2.506a.594.594,0,0,1-.3.356.616.616,0,0,1-.649.015s-.008,0-.011-.006-.007-.011-.013-.016c-.5-.419-1.753-1.818-2.037-2.142a.4.4,0,0,0-.589-.026.453.453,0,0,0-.025.618c.014.016,1.242,1.407,1.932,2.053a.758.758,0,0,1-.383.456.523.523,0,0,1-.569-.089c-.6-.533-1.8-1.875-2.035-2.14a.4.4,0,0,0-.589-.021.453.453,0,0,0-.02.618c.28.315,1.108,1.236,1.737,1.859a1.719,1.719,0,0,1-.214.014,2.218,2.218,0,0,1-.99-.35c-.292-.2-2.126-1.639-3.711-3.032-.24-.211-.787-.643-1.287-1.038-.268-.211-.515-.406-.7-.554l1.56-4.369c.4-.019.945-.068,1.516-.12.323-.03.647-.059.956-.084A3.355,3.355,0,0,0,6.259,91.2a1.266,1.266,0,0,0,.59.943,1.281,1.281,0,0,0,.715.193,2.452,2.452,0,0,0,1.833-.9,2.8,2.8,0,0,0,.945-.315c.488.482,1.143,1.048,1.831,1.644a17.076,17.076,0,0,1,2.913,2.868A.541.541,0,0,1,14.92,96.329Z" transform="translate(0 -85.333)" fill="#fff"/>
      </g>
    </g>
    <text id="Today" transform="translate(180 96)" fill="#aaa" font-size="10" font-family="Poppins-Medium, Poppins" font-weight="500" letter-spacing="0.01em"><tspan x="-15.78" y="0">Today</tspan></text>
    <text id="Peminta_sudah_sepakat" data-name="Peminta sudah sepakat" transform="translate(188 368)" fill="#aaa" font-size="12" font-family="Poppins-Medium, Poppins" font-weight="500" letter-spacing="0.01em"><tspan x="-72.828" y="0">Peminta sudah sepakat</tspan></text>
    <g id="Rectangle_62" data-name="Rectangle 62" stroke="#707070" stroke-width="1" opacity="0.2">
      <rect width="360" height="720" stroke="none"/>
      <rect x="0.5" y="0.5" width="359" height="719" fill="none"/>
    </g>
    <g id="Group_42" data-name="Group 42" transform="translate(-6 -1)">
      <g id="Group_9_Copy" data-name="Group 9 Copy">
        <g id="status_bar_icon" data-name="status bar icon" transform="translate(265 6)">
          <path id="Rectangle_2-2" data-name="Rectangle 2" d="M0,8.5V3.945A3.5,3.5,0,0,1,2.062.753.445.445,0,0,1,2.382,0H4.594a.445.445,0,0,1,.328.745A3.5,3.5,0,0,1,7,3.945V8.5a3.5,3.5,0,0,1-7,0Z" transform="translate(84)" fill="#fff" opacity="0.35"/>
          <path id="Rectangle_7" data-name="Rectangle 7" d="M0,0H7A0,0,0,0,1,7,0V2.5A3.5,3.5,0,0,1,3.5,6h0A3.5,3.5,0,0,1,0,2.5V0A0,0,0,0,1,0,0Z" transform="translate(84 6)" fill="#fff"/>
          <path id="_12:30" data-name="12:30" d="M21.429,8a2.283,2.283,0,0,1-1.936-.826,4.159,4.159,0,0,1-.652-2.468V3.385A4.28,4.28,0,0,1,19.464.834,2.288,2.288,0,0,1,21.418,0,2.314,2.314,0,0,1,23.36.8,4.126,4.126,0,0,1,24,3.289V4.572a4.383,4.383,0,0,1-.623,2.583A2.271,2.271,0,0,1,21.429,8ZM21.418.813a1.281,1.281,0,0,0-1.162.572,3.408,3.408,0,0,0-.376,1.76V4.728a3.549,3.549,0,0,0,.384,1.863,1.294,1.294,0,0,0,1.165.6,1.277,1.277,0,0,0,1.142-.567,3.43,3.43,0,0,0,.391-1.786V3.219a3.493,3.493,0,0,0-.371-1.831A1.3,1.3,0,0,0,21.418.813ZM14.862,8a2.862,2.862,0,0,1-1.872-.594,1.935,1.935,0,0,1-.721-1.567h1.044a1.25,1.25,0,0,0,.421.985,1.656,1.656,0,0,0,1.128.369,1.627,1.627,0,0,0,1.151-.374,1.413,1.413,0,0,0,.4-1.076A1.283,1.283,0,0,0,15.973,4.7a1.978,1.978,0,0,0-1.263-.374h-.78V3.519h.78a1.781,1.781,0,0,0,1.156-.369,1.214,1.214,0,0,0,.42-.968c0-.908-.481-1.369-1.431-1.369a1.54,1.54,0,0,0-1.075.366,1.256,1.256,0,0,0-.4.971H12.342a1.954,1.954,0,0,1,.71-1.538A2.68,2.68,0,0,1,14.856,0a2.645,2.645,0,0,1,1.813.583,2.061,2.061,0,0,1,.657,1.62,1.666,1.666,0,0,1-.345.984,2.08,2.08,0,0,1-.94.712,2.024,2.024,0,0,1,1.041.673,1.824,1.824,0,0,1,.367,1.15,2.088,2.088,0,0,1-.718,1.663A2.792,2.792,0,0,1,14.862,8Zm-4.513-.049a.643.643,0,0,1-.481-.166.571.571,0,0,1-.159-.411.6.6,0,0,1,.159-.428.633.633,0,0,1,.481-.171.651.651,0,0,1,.485.171A.594.594,0,0,1,11,7.375a.561.561,0,0,1-.166.411A.66.66,0,0,1,10.349,7.951ZM.138,7.893H-.906V1.3L-3,2.032v-.9L-.024.069H.138V7.892Zm8.4,0H3.181V7.182l2.829-3a6.589,6.589,0,0,0,.868-1.1A1.774,1.774,0,0,0,7.115,2.2a1.365,1.365,0,0,0-.387-1A1.4,1.4,0,0,0,5.7.813a1.657,1.657,0,0,0-1.2.42A1.566,1.566,0,0,0,4.062,2.4H3.023A2.251,2.251,0,0,1,3.75.663,2.787,2.787,0,0,1,5.7,0,2.682,2.682,0,0,1,7.5.57a1.908,1.908,0,0,1,.662,1.516A4.4,4.4,0,0,1,6.621,4.823L4.433,7.086h4.1v.806ZM10.355,3.23a.641.641,0,0,1-.48-.166.572.572,0,0,1-.16-.412.6.6,0,0,1,.16-.428.627.627,0,0,1,.48-.171.645.645,0,0,1,.485.171.593.593,0,0,1,.166.428.562.562,0,0,1-.166.412A.66.66,0,0,1,10.355,3.23Z" transform="translate(-246 2)" fill="#fff"/>
          <path id="Triangle_1" data-name="Triangle 1" d="M6.519.577l6.519-9.691S11.044-11,6.519-11,0-9.113,0-9.113Z" transform="translate(39 11.423)" fill="#fff" opacity="0.35"/>
          <path id="Triangle_2" data-name="Triangle 2" d="M4.5,0,9-6.7A6.731,6.731,0,0,0,4.5-8,6.731,6.731,0,0,0,0-6.7Z" transform="translate(41 12)" fill="#fff"/>
          <path id="Rectangle_8" data-name="Rectangle 8" d="M0,10.438H12.48V0Z" transform="translate(61 1.562)" fill="#fff" opacity="0.35"/>
          <path id="Rectangle_9" data-name="Rectangle 9" d="M0,5H6V0Z" transform="translate(61 7)" fill="#fff"/>
        </g>
      </g>
    </g>
    <g id="Group_180" data-name="Group 180" transform="translate(0 48)">
      <g transform="matrix(1, 0, 0, 1, 0, -48)" filter="url(#Rectangle_63)">
        <rect id="Rectangle_63-2" data-name="Rectangle 63" width="340" height="325" rx="8" transform="translate(10 198)" fill="#fff"/>
      </g>
      <path id="Rectangle_64" data-name="Rectangle 64" d="M8,0H332a8,8,0,0,1,8,8V62a0,0,0,0,1,0,0H0a0,0,0,0,1,0,0V8A8,8,0,0,1,8,0Z" transform="translate(10 150)" fill="#f70"/>
      <text id="Deal_Form" data-name="Deal Form" transform="translate(129 188)" fill="#fff" font-size="20" font-family="Poppins-Medium, Poppins" font-weight="500"><tspan x="0" y="0">Deal Form</tspan></text>
      <g id="Group_140" data-name="Group 140" transform="translate(10 84)">
        <text id="_Required" data-name="* Required" transform="translate(10 181)" fill="#df035d" font-size="10" font-family="Poppins-Regular, Poppins"><tspan x="0" y="0">*</tspan><tspan y="0" xml:space="preserve" fill="#757575"> Required</tspan></text>
        <text id="Dimas_Tole" data-name="Dimas Tole" transform="translate(10 153)" font-size="14" font-family="Poppins-Regular, Poppins"><tspan x="0" y="0">Dimas Tole</tspan></text>
        <rect id="Rectangle_36" data-name="Rectangle 36" width="320" height="2" transform="translate(10 163)" fill="#3a3a3a"/>
      </g>
      <g id="Group_178" data-name="Group 178" transform="translate(10 136)">
        <text id="_Required-2" data-name="* Required" transform="translate(10 181)" fill="#df035d" font-size="10" font-family="Poppins-Regular, Poppins"><tspan x="0" y="0">*</tspan><tspan y="0" xml:space="preserve" fill="#757575"> Required</tspan></text>
        <text id="Gang_mawar" data-name="Gang mawar" transform="translate(10 153)" font-size="14" font-family="Poppins-Regular, Poppins"><tspan x="0" y="0">Gang mawar</tspan></text>
        <rect id="Rectangle_36-2" data-name="Rectangle 36" width="322" height="2" transform="translate(8 163)" fill="#3a3a3a"/>
      </g>
      <g id="Group_181" data-name="Group 181" transform="translate(2 -19)">
        <text id="Dengan_menyetujui_syarat_dan_ketentuan_Anda_telah_bertanggung_jawab_atas_segala_sanksi_jika_diketahui_terdapat_kecurangan_penipuan." data-name="Dengan menyetujui syarat dan ketentuan, Anda telah
bertanggung jawab atas segala sanksi jika diketahui terdapat kecurangan / penipuan." transform="translate(59 360)" fill="#757575" font-size="10" font-family="Poppins-Regular, Poppins"><tspan x="0" y="11">Dengan menyetujui syarat dan ketentuan, Anda telah</tspan><tspan x="0" y="27">bertanggung jawab atas segala sanksi jika diketahui </tspan><tspan x="0" y="43">terdapat kecurangan / penipuan.</tspan></text>
        <g id="Group_179" data-name="Group 179" transform="translate(29 360)">
          <circle id="Ellipse_8" data-name="Ellipse 8" cx="10" cy="10" r="10" fill="#5aac44"/>
          <path id="checkmark" d="M5.54,46.125,0,41.022l1.928-2.093,3.321,3.059,6.548-8,2.2,1.8Z" transform="translate(3 -29.984)" fill="#fff"/>
        </g>
      </g>
      <g id="Group_183" data-name="Group 183" transform="translate(20 -255)">
        <rect id="Rectangle_2-3" data-name="Rectangle 2" width="155" height="51" rx="8" transform="translate(0 669)" fill="#fff"/>
        <g id="Group_95" data-name="Group 95" transform="translate(60 684)">
          <text id="Gak_jadi" data-name="Gak jadi" transform="translate(17.5 15)" fill="#aaa" font-size="14" font-family="Poppins-Regular, Poppins"><tspan x="-28.154" y="0">Gak jadi</tspan></text>
        </g>
      </g>
      <g id="Group_182" data-name="Group 182" transform="translate(185 -255)">
        <g transform="matrix(1, 0, 0, 1, -185, 207)" filter="url(#Rectangle_2)">
          <rect id="Rectangle_2-4" data-name="Rectangle 2" width="155" height="51" rx="8" transform="translate(185 462)" fill="#f70"/>
        </g>
        <g id="Group_95-2" data-name="Group 95" transform="translate(60 684)">
          <text id="PINJEMIN" transform="translate(17.5 15)" fill="#fff" font-size="14" font-family="Poppins-Regular, Poppins"><tspan x="-29.925" y="0">PINJEMIN</tspan></text>
        </g>
      </g>
    </g>
  </g>
</svg>
