<svg xmlns="http://www.w3.org/2000/svg" xmlns:xlink="http://www.w3.org/1999/xlink" width="360" height="720" viewBox="0 0 360 720">
  <defs>
    <clipPath id="clip-_1-welcome-1">
      <rect width="360" height="720"/>
    </clipPath>
  </defs>
  <g id="_1-welcome-1" data-name="1-welcome-1" clip-path="url(#clip-_1-welcome-1)">
    <rect width="360" height="720" fill="#fff"/>
    <g id="Group_53" data-name="Group 53" transform="translate(0 2)">
      <rect id="Rectangle_68" data-name="Rectangle 68" width="157" height="209" transform="translate(101 179)" fill="#fff"/>
      <g id="Group_10" data-name="Group 10" transform="translate(23 168.7)">
        <text id="Pinjemin" transform="translate(157 177)" fill="#f70" font-size="19" font-family="GothamRounded-Medium, Gotham Rounded" font-weight="500" letter-spacing="-0.03em"><tspan x="-39.045" y="0">Pinjemin</tspan></text>
      </g>
      <g id="Group_9" data-name="Group 9" transform="translate(-80.3 187.7)">
        <rect id="Rectangle_21" data-name="Rectangle 21" width="100" height="100" transform="translate(210.3 40.3)" fill="#fff" opacity="0"/>
        <g id="Group_98" data-name="Group 98" transform="translate(0 0)">
          <path id="Path_7" data-name="Path 7" d="M253.715,73.736,225.3,58.018,253.715,42.3,281.55,58.018Z" transform="translate(8.438 1.125)" fill="#fa3"/>
          <path id="Path_8" data-name="Path 8" d="M283.346,91.374l-.146,31.681,28.269-15.963L311.325,75.9Z" transform="translate(-21.483 -16.755)" fill="#f90"/>
          <path id="Path_9" data-name="Path 9" d="M225.746,173.578,225.6,141.9l28.269,15.963-.144,31.195Z" transform="translate(8.282 -52.88)" fill="#f70"/>
        </g>
      </g>
    </g>
    <g id="Group_41" data-name="Group 41">
      <g id="Group_41-2" data-name="Group 41" transform="translate(-6 -1)">
        <g id="Group_9_Copy" data-name="Group 9 Copy">
          <g id="status_bar_icon" data-name="status bar icon" transform="translate(265 6)">
            <path id="Rectangle_2" data-name="Rectangle 2" d="M0,8.5V3.945A3.5,3.5,0,0,1,2.062.753.445.445,0,0,1,2.382,0H4.594a.445.445,0,0,1,.328.745A3.5,3.5,0,0,1,7,3.945V8.5a3.5,3.5,0,0,1-7,0Z" transform="translate(84)" fill="#3a3a3a" opacity="0.35"/>
            <path id="Rectangle_7" data-name="Rectangle 7" d="M0,0H7A0,0,0,0,1,7,0V2.5A3.5,3.5,0,0,1,3.5,6h0A3.5,3.5,0,0,1,0,2.5V0A0,0,0,0,1,0,0Z" transform="translate(84 6)" fill="#3a3a3a"/>
            <path id="_12:30" data-name="12:30" d="M21.429,8a2.283,2.283,0,0,1-1.936-.826,4.159,4.159,0,0,1-.652-2.468V3.385A4.28,4.28,0,0,1,19.464.834,2.288,2.288,0,0,1,21.418,0,2.314,2.314,0,0,1,23.36.8,4.126,4.126,0,0,1,24,3.289V4.572a4.383,4.383,0,0,1-.623,2.583A2.271,2.271,0,0,1,21.429,8ZM21.418.813a1.281,1.281,0,0,0-1.162.572,3.408,3.408,0,0,0-.376,1.76V4.728a3.549,3.549,0,0,0,.384,1.863,1.294,1.294,0,0,0,1.165.6,1.277,1.277,0,0,0,1.142-.567,3.43,3.43,0,0,0,.391-1.786V3.219a3.493,3.493,0,0,0-.371-1.831A1.3,1.3,0,0,0,21.418.813ZM14.862,8a2.862,2.862,0,0,1-1.872-.594,1.935,1.935,0,0,1-.721-1.567h1.044a1.25,1.25,0,0,0,.421.985,1.656,1.656,0,0,0,1.128.369,1.627,1.627,0,0,0,1.151-.374,1.413,1.413,0,0,0,.4-1.076A1.283,1.283,0,0,0,15.973,4.7a1.978,1.978,0,0,0-1.263-.374h-.78V3.519h.78a1.781,1.781,0,0,0,1.156-.369,1.214,1.214,0,0,0,.42-.968c0-.908-.481-1.369-1.431-1.369a1.54,1.54,0,0,0-1.075.366,1.256,1.256,0,0,0-.4.971H12.342a1.954,1.954,0,0,1,.71-1.538A2.68,2.68,0,0,1,14.856,0a2.645,2.645,0,0,1,1.813.583,2.061,2.061,0,0,1,.657,1.62,1.666,1.666,0,0,1-.345.984,2.08,2.08,0,0,1-.94.712,2.024,2.024,0,0,1,1.041.673,1.824,1.824,0,0,1,.367,1.15,2.088,2.088,0,0,1-.718,1.663A2.792,2.792,0,0,1,14.862,8Zm-4.513-.049a.643.643,0,0,1-.481-.166.571.571,0,0,1-.159-.411.6.6,0,0,1,.159-.428.633.633,0,0,1,.481-.171.651.651,0,0,1,.485.171A.594.594,0,0,1,11,7.375a.561.561,0,0,1-.166.411A.66.66,0,0,1,10.349,7.951ZM.138,7.893H-.906V1.3L-3,2.032v-.9L-.024.069H.138V7.892Zm8.4,0H3.181V7.182l2.829-3a6.589,6.589,0,0,0,.868-1.1A1.774,1.774,0,0,0,7.115,2.2a1.365,1.365,0,0,0-.387-1A1.4,1.4,0,0,0,5.7.813a1.657,1.657,0,0,0-1.2.42A1.566,1.566,0,0,0,4.062,2.4H3.023A2.251,2.251,0,0,1,3.75.663,2.787,2.787,0,0,1,5.7,0,2.682,2.682,0,0,1,7.5.57a1.908,1.908,0,0,1,.662,1.516A4.4,4.4,0,0,1,6.621,4.823L4.433,7.086h4.1v.806ZM10.355,3.23a.641.641,0,0,1-.48-.166.572.572,0,0,1-.16-.412.6.6,0,0,1,.16-.428.627.627,0,0,1,.48-.171.645.645,0,0,1,.485.171.593.593,0,0,1,.166.428.562.562,0,0,1-.166.412A.66.66,0,0,1,10.355,3.23Z" transform="translate(-246 2)" fill="#3a3a3a"/>
            <path id="Triangle_1" data-name="Triangle 1" d="M6.519.577l6.519-9.691S11.044-11,6.519-11,0-9.113,0-9.113Z" transform="translate(39 11.423)" fill="#3a3a3a" opacity="0.35"/>
            <path id="Triangle_2" data-name="Triangle 2" d="M4.5,0,9-6.7A6.731,6.731,0,0,0,4.5-8,6.731,6.731,0,0,0,0-6.7Z" transform="translate(41 12)" fill="#3a3a3a"/>
            <path id="Rectangle_8" data-name="Rectangle 8" d="M0,10.438H12.48V0Z" transform="translate(61 1.562)" fill="#3a3a3a" opacity="0.35"/>
            <path id="Rectangle_9" data-name="Rectangle 9" d="M0,5H6V0Z" transform="translate(61 7)" fill="#3a3a3a"/>
          </g>
        </g>
      </g>
    </g>
  </g>
</svg>
