<svg xmlns="http://www.w3.org/2000/svg" xmlns:xlink="http://www.w3.org/1999/xlink" width="360" height="720" viewBox="0 0 360 720">
  <defs>
    <filter id="Path_43" x="0" y="75" width="360" height="120.5" filterUnits="userSpaceOnUse">
      <feOffset dy="0.5" input="SourceAlpha"/>
      <feGaussianBlur result="blur"/>
      <feFlood flood-color="#cebfbd"/>
      <feComposite operator="in" in2="blur"/>
      <feComposite in="SourceGraphic"/>
    </filter>
    <filter id="Path_26" x="-4.5" y="-1.5" width="369" height="84" filterUnits="userSpaceOnUse">
      <feOffset dy="3" input="SourceAlpha"/>
      <feGaussianBlur stdDeviation="1.5" result="blur-2"/>
      <feFlood flood-opacity="0.051"/>
      <feComposite operator="in" in2="blur-2"/>
      <feComposite in="SourceGraphic"/>
    </filter>
    <filter id="Path_43-2" x="0" y="195.5" width="360" height="120.5" filterUnits="userSpaceOnUse">
      <feOffset dy="0.5" input="SourceAlpha"/>
      <feGaussianBlur result="blur-3"/>
      <feFlood flood-color="#cebfbd"/>
      <feComposite operator="in" in2="blur-3"/>
      <feComposite in="SourceGraphic"/>
    </filter>
    <filter id="Path_43-3" x="0" y="316" width="360" height="120.5" filterUnits="userSpaceOnUse">
      <feOffset dy="0.5" input="SourceAlpha"/>
      <feGaussianBlur result="blur-4"/>
      <feFlood flood-color="#cebfbd"/>
      <feComposite operator="in" in2="blur-4"/>
      <feComposite in="SourceGraphic"/>
    </filter>
    <filter id="Path_43-4" x="0" y="438" width="360" height="120.5" filterUnits="userSpaceOnUse">
      <feOffset dy="0.5" input="SourceAlpha"/>
      <feGaussianBlur result="blur-5"/>
      <feFlood flood-color="#cebfbd"/>
      <feComposite operator="in" in2="blur-5"/>
      <feComposite in="SourceGraphic"/>
    </filter>
    <clipPath id="clip-_26-Notifikasi">
      <rect width="360" height="720"/>
    </clipPath>
  </defs>
  <g id="_26-Notifikasi" data-name="26-Notifikasi" clip-path="url(#clip-_26-Notifikasi)">
    <rect width="360" height="720" fill="#f5f5f5"/>
    <g id="Group_72" data-name="Group 72" transform="translate(0 -292)">
      <g transform="matrix(1, 0, 0, 1, 0, 292)" filter="url(#Path_43)">
        <path id="Path_43-5" data-name="Path 43" d="M0,0H360V120H0Z" transform="translate(0 75)" fill="#fff5f4"/>
      </g>
      <g id="Group_71" data-name="Group 71" transform="translate(10 -3)">
        <text id="Kesepakatan_Peminjaman_Telah_dibuat" data-name="Kesepakatan Peminjaman Telah dibuat" transform="translate(10 395)" fill="#3a3a3a" font-size="12" font-family="Poppins-Medium, Poppins" font-weight="500"><tspan x="0" y="0">Kesepakatan Peminjaman Telah dibuat</tspan></text>
        <text id="Kamu_telah_menyetujui_kesepakatan_peminjaman_barang." data-name="Kamu telah menyetujui kesepakatan peminjaman
barang." transform="translate(10 413)" fill="#aaa" font-size="12" font-family="Poppins-Regular, Poppins"><tspan x="0" y="0">Kamu telah menyetujui kesepakatan peminjaman</tspan><tspan x="0" y="18">barang.</tspan></text>
        <text id="Ketuk_untuk_melihat_rincian." data-name="Ketuk untuk melihat rincian." transform="translate(10 456)" fill="#aaa" font-size="10" font-family="Poppins-Regular, Poppins"><tspan x="0" y="0">Ketuk untuk melihat rincian.</tspan></text>
        <text id="_25-03-20_12.24_PM" data-name="25-03-20  12.24 PM" transform="translate(10 476)" fill="#d1d1d1" font-size="10" font-family="Poppins-Regular, Poppins"><tspan x="0" y="0" xml:space="preserve">25-03-20  12.24 PM</tspan></text>
      </g>
    </g>
    <g id="Group_41" data-name="Group 41">
      <g transform="matrix(1, 0, 0, 1, 0, 0)" filter="url(#Path_26)">
        <path id="Path_26-2" data-name="Path 26" d="M0,0H360V75H0Z" fill="#f70"/>
      </g>
      <g id="Group_63" data-name="Group 63" transform="translate(0 -11)">
        <g id="Group_14" data-name="Group 14" transform="translate(-84.3 -25.3)">
          <text id="Notifikasi" transform="translate(129.3 92.3)" fill="#fff" font-size="20" font-family="Poppins-Medium, Poppins" font-weight="500"><tspan x="0" y="0">Notifikasi</tspan></text>
        </g>
      </g>
      <g id="Group_41-2" data-name="Group 41" transform="translate(-6 -1)">
        <g id="Group_9_Copy" data-name="Group 9 Copy">
          <g id="status_bar_icon" data-name="status bar icon" transform="translate(265 6)">
            <path id="Rectangle_2" data-name="Rectangle 2" d="M0,8.5V3.945A3.5,3.5,0,0,1,2.062.753.445.445,0,0,1,2.382,0H4.594a.445.445,0,0,1,.328.745A3.5,3.5,0,0,1,7,3.945V8.5a3.5,3.5,0,0,1-7,0Z" transform="translate(84)" fill="#fff" opacity="0.35"/>
            <path id="Rectangle_7" data-name="Rectangle 7" d="M0,0H7A0,0,0,0,1,7,0V2.5A3.5,3.5,0,0,1,3.5,6h0A3.5,3.5,0,0,1,0,2.5V0A0,0,0,0,1,0,0Z" transform="translate(84 6)" fill="#fff"/>
            <path id="_12:30" data-name="12:30" d="M21.429,8a2.283,2.283,0,0,1-1.936-.826,4.159,4.159,0,0,1-.652-2.468V3.385A4.28,4.28,0,0,1,19.464.834,2.288,2.288,0,0,1,21.418,0,2.314,2.314,0,0,1,23.36.8,4.126,4.126,0,0,1,24,3.289V4.572a4.383,4.383,0,0,1-.623,2.583A2.271,2.271,0,0,1,21.429,8ZM21.418.813a1.281,1.281,0,0,0-1.162.572,3.408,3.408,0,0,0-.376,1.76V4.728a3.549,3.549,0,0,0,.384,1.863,1.294,1.294,0,0,0,1.165.6,1.277,1.277,0,0,0,1.142-.567,3.43,3.43,0,0,0,.391-1.786V3.219a3.493,3.493,0,0,0-.371-1.831A1.3,1.3,0,0,0,21.418.813ZM14.862,8a2.862,2.862,0,0,1-1.872-.594,1.935,1.935,0,0,1-.721-1.567h1.044a1.25,1.25,0,0,0,.421.985,1.656,1.656,0,0,0,1.128.369,1.627,1.627,0,0,0,1.151-.374,1.413,1.413,0,0,0,.4-1.076A1.283,1.283,0,0,0,15.973,4.7a1.978,1.978,0,0,0-1.263-.374h-.78V3.519h.78a1.781,1.781,0,0,0,1.156-.369,1.214,1.214,0,0,0,.42-.968c0-.908-.481-1.369-1.431-1.369a1.54,1.54,0,0,0-1.075.366,1.256,1.256,0,0,0-.4.971H12.342a1.954,1.954,0,0,1,.71-1.538A2.68,2.68,0,0,1,14.856,0a2.645,2.645,0,0,1,1.813.583,2.061,2.061,0,0,1,.657,1.62,1.666,1.666,0,0,1-.345.984,2.08,2.08,0,0,1-.94.712,2.024,2.024,0,0,1,1.041.673,1.824,1.824,0,0,1,.367,1.15,2.088,2.088,0,0,1-.718,1.663A2.792,2.792,0,0,1,14.862,8Zm-4.513-.049a.643.643,0,0,1-.481-.166.571.571,0,0,1-.159-.411.6.6,0,0,1,.159-.428.633.633,0,0,1,.481-.171.651.651,0,0,1,.485.171A.594.594,0,0,1,11,7.375a.561.561,0,0,1-.166.411A.66.66,0,0,1,10.349,7.951ZM.138,7.893H-.906V1.3L-3,2.032v-.9L-.024.069H.138V7.892Zm8.4,0H3.181V7.182l2.829-3a6.589,6.589,0,0,0,.868-1.1A1.774,1.774,0,0,0,7.115,2.2a1.365,1.365,0,0,0-.387-1A1.4,1.4,0,0,0,5.7.813a1.657,1.657,0,0,0-1.2.42A1.566,1.566,0,0,0,4.062,2.4H3.023A2.251,2.251,0,0,1,3.75.663,2.787,2.787,0,0,1,5.7,0,2.682,2.682,0,0,1,7.5.57a1.908,1.908,0,0,1,.662,1.516A4.4,4.4,0,0,1,6.621,4.823L4.433,7.086h4.1v.806ZM10.355,3.23a.641.641,0,0,1-.48-.166.572.572,0,0,1-.16-.412.6.6,0,0,1,.16-.428.627.627,0,0,1,.48-.171.645.645,0,0,1,.485.171.593.593,0,0,1,.166.428.562.562,0,0,1-.166.412A.66.66,0,0,1,10.355,3.23Z" transform="translate(-246 2)" fill="#fff"/>
            <path id="Triangle_1" data-name="Triangle 1" d="M6.519.577l6.519-9.691S11.044-11,6.519-11,0-9.113,0-9.113Z" transform="translate(39 11.423)" fill="#fff" opacity="0.35"/>
            <path id="Triangle_2" data-name="Triangle 2" d="M4.5,0,9-6.7A6.731,6.731,0,0,0,4.5-8,6.731,6.731,0,0,0,0-6.7Z" transform="translate(41 12)" fill="#fff"/>
            <path id="Rectangle_8" data-name="Rectangle 8" d="M0,10.438H12.48V0Z" transform="translate(61 1.562)" fill="#fff" opacity="0.35"/>
            <path id="Rectangle_9" data-name="Rectangle 9" d="M0,5H6V0Z" transform="translate(61 7)" fill="#fff"/>
          </g>
        </g>
      </g>
      <g id="Group_73" data-name="Group 73" transform="translate(-16 -5)">
        <g id="Group_30" data-name="Group 30" transform="translate(26 43)">
          <rect id="Rectangle_4" data-name="Rectangle 4" width="25" height="25" fill="#fff" opacity="0"/>
        </g>
        <path id="_134-left-arrow" data-name="134-left-arrow" d="M7.487,15.926.265,8.7a.851.851,0,0,1-.136-.166v0L.119,8.52l0,0L.109,8.5l0-.007L.1,8.486l0-.008,0-.009-.005-.01,0-.007L.076,8.439l0-.006L.068,8.42l0-.005L.06,8.4l0-.005L.052,8.381l0,0L.045,8.361v0L.039,8.341v0L.033,8.321v0L.027,8.3h0a.848.848,0,0,1,.167-.752h0l.012-.014,0,0,.01-.012.006-.006L.234,7.5l.015-.015L7.487.249a.848.848,0,0,1,1.2,1.2L2.9,7.239H20.152a.848.848,0,0,1,0,1.7H2.9l5.792,5.791a.849.849,0,0,1-1.2,1.2Z" transform="translate(28 47.4)" fill="#fff"/>
      </g>
    </g>
    <g id="Group_188" data-name="Group 188" transform="translate(0 -171.5)">
      <g transform="matrix(1, 0, 0, 1, 0, 171.5)" filter="url(#Path_43-2)">
        <path id="Path_43-6" data-name="Path 43" d="M0,0H360V120H0Z" transform="translate(0 195.5)" fill="#fff5f4"/>
      </g>
      <g id="Group_71-2" data-name="Group 71" transform="translate(10 -3)">
        <text id="Durasi_Peminjaman_akan_segera_berakhir_" data-name="Durasi Peminjaman akan segera berakhir!" transform="translate(10 395)" fill="#3a3a3a" font-size="12" font-family="Poppins-Medium, Poppins" font-weight="500"><tspan x="0" y="0">Durasi Peminjaman akan segera berakhir!</tspan></text>
        <text id="Jangan_lupa_untuk_mengembalikan_barang_yang_kamu_pinjam." data-name="Jangan lupa untuk mengembalikan barang
yang kamu pinjam." transform="translate(10 413)" fill="#aaa" font-size="12" font-family="Poppins-Regular, Poppins"><tspan x="0" y="0">Jangan lupa untuk mengembalikan barang</tspan><tspan x="0" y="18">yang kamu pinjam.</tspan></text>
        <text id="Ketuk_untuk_melihat_rincian.-2" data-name="Ketuk untuk melihat rincian." transform="translate(10 456)" fill="#aaa" font-size="10" font-family="Poppins-Regular, Poppins"><tspan x="0" y="0">Ketuk untuk melihat rincian.</tspan></text>
        <text id="_24-03-20_12.24_PM" data-name="24-03-20  12.24 PM" transform="translate(10 476)" fill="#d1d1d1" font-size="10" font-family="Poppins-Regular, Poppins"><tspan x="0" y="0" xml:space="preserve">24-03-20  12.24 PM</tspan></text>
      </g>
    </g>
    <g id="Group_189" data-name="Group 189" transform="translate(0 -51)">
      <g transform="matrix(1, 0, 0, 1, 0, 51)" filter="url(#Path_43-3)">
        <path id="Path_43-7" data-name="Path 43" d="M0,0H360V120H0Z" transform="translate(0 316)" fill="#fff"/>
      </g>
      <g id="Group_71-3" data-name="Group 71" transform="translate(10 -3)">
        <text id="Mau_Jadi_Malaikat_Penolong_Siapa_Hari_Ini_" data-name="Mau Jadi Malaikat Penolong Siapa Hari Ini?" transform="translate(10 395)" fill="#3a3a3a" font-size="12" font-family="Poppins-Medium, Poppins" font-weight="500"><tspan x="0" y="0">Mau Jadi Malaikat Penolong Siapa Hari Ini?</tspan></text>
        <text id="Punya_barang_yang_jarang_dipakai_kira-kira_ada_yang_butuh_gak_yah_mending_dipinjemin_aja_Yuk_langsung_cek_aja_disini_" data-name="Punya barang yang jarang dipakai? kira-kira ada yang
butuh gak yah? mending dipinjemin aja! Yuk langsung
cek aja disini &gt;&gt;" transform="translate(10 413)" fill="#aaa" font-size="12" font-family="Poppins-Regular, Poppins"><tspan x="0" y="0">Punya barang yang jarang dipakai? kira-kira ada yang</tspan><tspan x="0" y="18">butuh gak yah? mending dipinjemin aja! Yuk langsung</tspan><tspan x="0" y="36">cek aja disini &gt;&gt;</tspan></text>
        <text id="_23-03-20_14.28_PM" data-name="23-03-20  14.28 PM" transform="translate(10 476)" fill="#d1d1d1" font-size="10" font-family="Poppins-Regular, Poppins"><tspan x="0" y="0" xml:space="preserve">23-03-20  14.28 PM</tspan></text>
      </g>
    </g>
    <g id="Group_190" data-name="Group 190" transform="translate(0 71)">
      <g transform="matrix(1, 0, 0, 1, 0, -71)" filter="url(#Path_43-4)">
        <path id="Path_43-8" data-name="Path 43" d="M0,0H360V120H0Z" transform="translate(0 438)" fill="#fff"/>
      </g>
      <g id="Group_71-4" data-name="Group 71" transform="translate(10 -3)">
        <text id="Selamat_Datang_di_Pinjemin_" data-name="Selamat Datang di Pinjemin!" transform="translate(10 395)" fill="#3a3a3a" font-size="12" font-family="Poppins-Medium, Poppins" font-weight="500"><tspan x="0" y="0">Selamat Datang di Pinjemin!</tspan></text>
        <text id="Halo_kamu_selamat_datang_di_aplikasi_peminjaman_khusus_Mahasiswa_Cek_katalog_Peminjaman_disini_" data-name="Halo kamu! selamat datang di aplikasi peminjaman
khusus Mahasiswa! Cek katalog Peminjaman disini!" transform="translate(10 413)" fill="#aaa" font-size="12" font-family="Poppins-Regular, Poppins"><tspan x="0" y="0">Halo kamu! selamat datang di aplikasi peminjaman</tspan><tspan x="0" y="18">khusus Mahasiswa! Cek katalog Peminjaman disini!</tspan></text>
        <text id="_10-03-20_10.00_AM" data-name="10-03-20  10.00 AM" transform="translate(10 476)" fill="#d1d1d1" font-size="10" font-family="Poppins-Regular, Poppins"><tspan x="0" y="0" xml:space="preserve">10-03-20  10.00 AM</tspan></text>
      </g>
    </g>
  </g>
</svg>
