<svg xmlns="http://www.w3.org/2000/svg" xmlns:xlink="http://www.w3.org/1999/xlink" width="360" height="720" viewBox="0 0 360 720">
  <defs>
    <filter id="Rectangle_69" x="15.5" y="594.5" width="329" height="60" filterUnits="userSpaceOnUse">
      <feOffset dy="1" input="SourceAlpha"/>
      <feGaussianBlur stdDeviation="1.5" result="blur"/>
      <feFlood flood-opacity="0.161"/>
      <feComposite operator="in" in2="blur"/>
      <feComposite in="SourceGraphic"/>
    </filter>
    <linearGradient id="linear-gradient" y1="0.5" x2="1" y2="0.5" gradientUnits="objectBoundingBox">
      <stop offset="0" stop-color="gray" stop-opacity="0.251"/>
      <stop offset="0.54" stop-color="gray" stop-opacity="0.122"/>
      <stop offset="1" stop-color="gray" stop-opacity="0.102"/>
    </linearGradient>
    <filter id="Union_1" x="556.374" y="161" width="141.753" height="129.014" filterUnits="userSpaceOnUse">
      <feOffset dy="1" input="SourceAlpha"/>
      <feGaussianBlur stdDeviation="3" result="blur-2"/>
      <feFlood flood-opacity="0.051"/>
      <feComposite operator="in" in2="blur-2"/>
      <feComposite in="SourceGraphic"/>
    </filter>
    <clipPath id="clip-_4-welcome-4">
      <rect width="360" height="720"/>
    </clipPath>
  </defs>
  <g id="_4-welcome-4" data-name="4-welcome-4" clip-path="url(#clip-_4-welcome-4)">
    <rect width="360" height="720" fill="#fff"/>
    <g id="Group_214" data-name="Group 214" transform="translate(10 -71)">
      <g transform="matrix(1, 0, 0, 1, -10, 71)" filter="url(#Rectangle_69)">
        <g id="Rectangle_69-2" data-name="Rectangle 69" transform="translate(20 598)" fill="#fff" stroke="#d1d1d1" stroke-width="1">
          <rect width="320" height="51" stroke="none"/>
          <rect x="0.5" y="0.5" width="319" height="50" fill="none"/>
        </g>
      </g>
      <g id="Group_94" data-name="Group 94" transform="translate(108.958 682)">
        <text id="Masuk_Dengan_Google" data-name="Masuk Dengan Google" transform="translate(10 17)" fill="#3a3a3a" font-size="12" font-family="Poppins-Regular, Poppins"><tspan x="0" y="0">Masuk Dengan Google</tspan></text>
        <g id="google" transform="translate(-22.958 2)">
          <path id="Path_67" data-name="Path 67" d="M4.922,106.6a5.544,5.544,0,0,1,.785-2.85v-3.54H2.167a10.505,10.505,0,0,0,0,12.779h3.54v-3.54A5.544,5.544,0,0,1,4.922,106.6Z" transform="translate(0 -96.105)" fill="#fbbd00"/>
          <path id="Path_68" data-name="Path 68" d="M198.461,373.742,196,376.2l2.461,2.461a10.42,10.42,0,0,0,6.39-2.167v-3.536h-3.536A5.577,5.577,0,0,1,198.461,373.742Z" transform="translate(-187.961 -357.664)" fill="#0f9d58"/>
          <path id="Path_69" data-name="Path 69" d="M56.363,325.477l-3.54,3.54a10.667,10.667,0,0,0,.909,1.035,10.431,10.431,0,0,0,7.425,3.075v-4.922A5.58,5.58,0,0,1,56.363,325.477Z" transform="translate(-50.656 -312.127)" fill="#31aa52"/>
          <path id="Path_70" data-name="Path 70" d="M266.5,199.731a10.592,10.592,0,0,0-.172-1.9l-.092-.5H256v4.922h4.981a5.553,5.553,0,0,1-2.128,2.282l3.536,3.536a10.67,10.67,0,0,0,1.035-.909A10.431,10.431,0,0,0,266.5,199.731Z" transform="translate(-245.5 -189.231)" fill="#3c79e6"/>
          <path id="Path_71" data-name="Path 71" d="M202.405,6.556l.435.435,3.48-3.48-.435-.435A10.431,10.431,0,0,0,198.461,0L196,2.461l2.461,2.461A5.542,5.542,0,0,1,202.405,6.556Z" transform="translate(-187.961)" fill="#cf2d48"/>
          <path id="Path_72" data-name="Path 72" d="M61.155,4.922V0a10.432,10.432,0,0,0-7.425,3.075,10.657,10.657,0,0,0-.909,1.035l3.54,3.54a5.581,5.581,0,0,1,4.793-2.728Z" transform="translate(-50.655 0)" fill="#eb4132"/>
        </g>
      </g>
    </g>
    <g id="Group_215" data-name="Group 215" transform="translate(10 -10)">
      <rect id="Rectangle_69-3" data-name="Rectangle 69" width="320" height="51" transform="translate(10 669)" fill="#fff"/>
      <g id="Group_94-2" data-name="Group 94" transform="translate(108.958 682)">
        <text id="Belum_punya_Akun_Register" data-name="Belum punya Akun? Register" transform="translate(-23 17)" fill="#3a3a3a" font-size="12" font-family="Poppins-Regular, Poppins"><tspan x="0" y="0">Belum punya Akun? Register</tspan></text>
        <line id="Line_8" data-name="Line 8" x2="47" transform="translate(97.542 21.5)" fill="none" stroke="#3a3a3a" stroke-width="1"/>
      </g>
    </g>
    <g id="Group_221" data-name="Group 221" transform="translate(-389)">
      <rect id="Rectangle_70" data-name="Rectangle 70" width="478" height="407" transform="translate(-85 173)" fill="#fff"/>
      <text id="Yah_namanya_juga_Mahasiswa._Buat_jajan_risol_goceng_aja_mikirnya_sampe_ubanan_apalagi_buat_beli_barangyang_gamurah_-_murah_amat._" data-name="Yah namanya juga Mahasiswa.
Buat jajan risol goceng aja
mikirnya sampe ubanan, 
apalagi buat beli barangyang
gamurah - murah amat. " transform="translate(105 305)" fill="#3a3a3a" font-size="12" font-family="Poppins-Regular, Poppins"><tspan x="58.088" y="13">Yah namanya juga Mahasiswa.</tspan><tspan x="86.144" y="31">Buat jajan risol goceng aja</tspan><tspan x="96.284" y="49">mikirnya sampe ubanan, </tspan><tspan x="65.108" y="67">apalagi buat beli barangyang</tspan><tspan x="98.252" y="85">gamurah - murah amat. </tspan></text>
      <g id="bpp" transform="translate(-214.941 150.414)">
        <path id="Path_75" data-name="Path 75" d="M471.685,281.8l-15.066-10.157h0l7.6-11.313-39.793-3.173-14.3,11.058-17.9-10.034-14.929,1.8-.177-3.935a111.064,111.064,0,0,0-1.235-12.248c.064-1.23.108-2.641.1-4.176,0-6.468-.876-15.042-4.722-20.757l.885-7.959-7.181-8.485a54.286,54.286,0,0,1,3.935-6.621c.246-.354.492-.7.757-1.033a17.86,17.86,0,0,0,16.675-17.708,11.33,11.33,0,0,0-.049-1.294,4.688,4.688,0,0,0-.054-.521c.91.492,1.83.984,2.75,1.476.172.246.369.492.585.782h0l.044.054.275.339.089.1c.1.118.2.231.3.349l.069.079c.261.29.536.585.831.876a.883.883,0,0,1,.1.093l.369.344.1.093c.315.28.649.551.984.807l.108.079.423.29.138.089c.162.1.33.2.492.3l.059.034c.192.1.389.2.585.3l.1.039q.251.108.492.207l.152.054c.172.059.339.113.516.162l.108.03c.216.054.433.1.654.133h.025a5.347,5.347,0,0,0,.63.064h.143a5.406,5.406,0,0,0,.566,0h.123a5.826,5.826,0,0,0,.7-.084,7.762,7.762,0,0,0,3.1-1.112,2.7,2.7,0,0,0,.63-.585,2.319,2.319,0,0,0-.1-2.7h0c-.384-.915-2.873-1.559-2.873-1.559s-7.87-3.286-7.87-5.9-1.968-16.193-22.277-19.3c0,0-13.212-.743-16.926,6.331l-.079.826c-1.092.684-2,2.056-3.074,2.459a5.023,5.023,0,0,0-1.333.492v-.093h0a1.268,1.268,0,0,0-.3.389,3.935,3.935,0,0,0-.408,1.476,5.557,5.557,0,0,1-.644,1.786,3.973,3.973,0,0,1-.3.453h0l-.084.133a3.591,3.591,0,0,0,1.672-.271,8.328,8.328,0,0,1-.492,1.968,1.633,1.633,0,0,0,1.515-.905v-.039l.064-.089a4.151,4.151,0,0,0,.3-.713l-.054.059c.1-.32.187-.644.3-.959a1.505,1.505,0,0,1,.241-.492,1.19,1.19,0,0,1,1.018-.339l-.2,4.265h.089a5.819,5.819,0,0,1-.433.9c-.7,1.131-1.968,1.9-2.435,3.143a4.624,4.624,0,0,0-.226,1.859c0,.369.044.743.074,1.112v-.03a4.148,4.148,0,0,1-.443,2.71c-.364.541-.949.949-1.151,1.564a1.524,1.524,0,0,0-.074.531,5.966,5.966,0,0,0,.334,1.579.069.069,0,0,0,0-.03,2.4,2.4,0,0,1,.084,1.161c-.221.984-1.417,1.805-1.358,2.745a1.058,1.058,0,0,0,.054.364,1.992,1.992,0,0,0,1.112.984,4.329,4.329,0,0,0,2.5.551,3.286,3.286,0,0,0,.935-.32c-.344.792-.7,1.574-1.058,2.317-.054.118-.113.236-.172.354,0,0-3.04-2.031-4.766,2.11a9.189,9.189,0,0,0-1.067,2.774,6.6,6.6,0,0,1-.364,1.141,7.344,7.344,0,0,1-3.286,2.951c-3.522,1.613-17.747,19.356-18,23.95a26.8,26.8,0,0,1-.905,5.3,31.554,31.554,0,0,0-.846,12.538,23.994,23.994,0,0,0,.871,4c1.51,4.589,2.518,13.153,2.518,13.153l1.633,14.865a42.3,42.3,0,0,0,.266,6.144c-1.667,1.9-8.362,9.838-5.8,12,1.968,1.7,5.411,1.422,7.344,1.072-1.628,4.029-4.191,11.033-4.53,15.844-.492,7.118.841,16.547,2.951,20.167s9.144,12.907,9.144,12.907-.33,12.74,2.184,17.368,3.527,14.23,3.527,14.23,2.346,8.106,1.171,11.087,2.179,5.46-1.343,7.442-8.028,46.66-8.028,46.66-1.815,29.282,0,30.772a1.843,1.843,0,0,0,.31.182v9.838s-1.259,2.066,3.861,2.484c3.507.28,13.448.915,19.346,1.284l4.57.285s10.821,2.154,15.6,0,13.256-2.105,12-7.8a16.19,16.19,0,0,0-.669-2.277c-1.382-3.532-3.728-3.935-8.052-4.919-.251-.054-.492-.1-.713-.143-4.555-.792-6.05,1.328-8.6-1.431-2.218-2.386-9.282-5.057-11.687-5.9.059-.177.133-.349.192-.531a3.6,3.6,0,0,1-1.825-.89l6.517.413,3.881.241s9.2,1.835,13.281,0,11.264-1.786,10.192-6.621a13.873,13.873,0,0,0-.566-1.938c-1.176-3-3.173-3.33-6.847-4.161-.212-.044-.408-.089-.605-.123-3.871-.674-5.14,1.126-7.309-1.215-1.859-2-7.727-4.235-9.838-5,0-1.092-1.476-2.646-2.405-4.206-1.092-1.82.925-8.19.925-8.19l1.151-26.429a5.105,5.105,0,0,1,1.377-.394s5.2-4.968,4.029-10.261a34,34,0,0,1-.374-4.835c1.712-1.589,4.068-3.935,4.737-5.381,1.092-2.356,0-13.773,0-13.773V322.524l8.706.88,7.9.812,2.405.246,7.9.8,18.155,1.835,16.36-3.1,7.078-1.338,14.555-2.755V284.29ZM351.857,163.794l-1.013-.108C351.179,163.7,351.533,163.764,351.857,163.794Z" transform="translate(-95.23 -76.907)" fill="url(#linear-gradient)"/>
        <path id="Path_76" data-name="Path 76" d="M519.15,445.371c-4.919,7.039-22.6,3.31-22.6,3.31l-13.7-12.823L481,434.122l3.094-6.572s.984.271,2.671.753C495.624,430.875,523.3,439.454,519.15,445.371Z" transform="translate(-178.008 -217.354)" fill="#efb7b9"/>
        <path id="Path_77" data-name="Path 77" d="M486.755,428.3a28.855,28.855,0,0,1-3.91,7.555L481,434.122l3.094-6.572S485.088,427.821,486.755,428.3Z" transform="translate(-178.008 -217.354)" opacity="0.1"/>
        <path id="Path_78" data-name="Path 78" d="M384.719,278.206s-12.632,5.6-12.012,19.361a226.829,226.829,0,0,0,2.892,26.444s-2.582,20.7,8.17,26.04,20.7,9.725,20.7,9.725,16.822,1.81,18.913,2.558,8.623-10.684,7.418-12.464-16.645-5.514-18.613-8.485-6.517-4.806-6.517-4.806-4.7-2.843-5.017-5.411.92-4.481,1.235-5.607,1.112-12,1.112-12S408.3,274.847,384.719,278.206Z" transform="translate(-122.971 -141.365)" fill="#dce6f2"/>
        <path id="Path_79" data-name="Path 79" d="M397.814,370.39s-17.329,2.9-15.652,8.967A36.738,36.738,0,0,1,397.814,370.39Z" transform="translate(-127.728 -188.31)" opacity="0.1"/>
        <path id="Path_80" data-name="Path 80" d="M406.2,375.38s-9.528,7.777-7.664,8.175S406.2,375.38,406.2,375.38Z" transform="translate(-135.986 -190.845)" opacity="0.1"/>
        <path id="Path_81" data-name="Path 81" d="M422.137,380.89s-2.553,5.229-.984,4.875S422.137,380.89,422.137,380.89Z" transform="translate(-147.34 -193.645)" opacity="0.1"/>
        <path id="Path_82" data-name="Path 82" d="M433.014,353.438l-1.053-.3a3.008,3.008,0,0,0,.138-2.15c-1.205-1.781-16.635-5.509-18.6-8.485s-6.517-4.806-6.517-4.806-4.7-2.843-5.017-5.411.92-4.481,1.235-5.607,1.112-12.007,1.112-12.007,5.288-38.706-18.3-35.347c0,0-12.632,5.607-12.017,19.365a226.189,226.189,0,0,0,2.9,26.444s-2.582,20.7,8.17,26.04,20.7,9.725,20.7,9.725,16.817,1.805,18.913,2.558c.792.285,2.223-1.185,3.625-3.207l.8.743,13.7,12.818s17.683,3.733,22.6-3.305C469.565,364.584,441.892,356.006,433.014,353.438Z" transform="translate(-123.627 -141.934)" opacity="0.1"/>
        <path id="Path_83" data-name="Path 83" d="M379.311,170.518a4.181,4.181,0,0,0-1.363.526c-.492.408-.492,1.107-.615,1.717a5.647,5.647,0,0,1-.984,2.351,3.537,3.537,0,0,0,1.638-.271,8.43,8.43,0,0,1-.492,1.968,1.594,1.594,0,0,0,1.476-.9,9.476,9.476,0,0,0,.615-1.727,1.422,1.422,0,0,1,.236-.492c.453-.536,1.294-.3,1.992-.226a3.271,3.271,0,0,0,2.991-1.436c.743-1.126.787-4.009-.984-4.314C381.972,167.409,380.821,169.957,379.311,170.518Z" transform="translate(-124.833 -85.314)" fill="#965d7b"/>
        <g id="Group_219" data-name="Group 219" transform="translate(251.59 85.603)" opacity="0.1">
          <path id="Path_84" data-name="Path 84" d="M378.7,174.983c.044-.241.074-.492.128-.733h0a2.885,2.885,0,0,0-.615,1.717,5.408,5.408,0,0,1-.29,1.038A5.637,5.637,0,0,0,378.7,174.983Z" transform="translate(-377.222 -174.25)"/>
          <path id="Path_85" data-name="Path 85" d="M378.133,181.968a8.181,8.181,0,0,0,.492-1.968,3.522,3.522,0,0,1-1.559.271,5.694,5.694,0,0,1-.566.984,3.5,3.5,0,0,0,1.633-.266,8.18,8.18,0,0,1-.492,1.968,1.6,1.6,0,0,0,1.476-.9,3.672,3.672,0,0,0,.3-.7A1.476,1.476,0,0,1,378.133,181.968Z" transform="translate(-376.5 -177.172)"/>
          <path id="Path_86" data-name="Path 86" d="M386.171,175.955c-.7-.069-1.544-.31-2,.226a1.52,1.52,0,0,0-.236.492c-.044.128-.084.261-.118.394.467-.369,1.225-.172,1.859-.108a3.286,3.286,0,0,0,2.991-1.436,2.725,2.725,0,0,0,.33-.772A3.276,3.276,0,0,1,386.171,175.955Z" transform="translate(-380.219 -174.504)"/>
        </g>
        <path id="Path_87" data-name="Path 87" d="M314.613,201l7.5,9.021-.979,9.1-9.065-14.191Z" transform="translate(-45.33 -75.171)" fill="#dce6f2"/>
        <path id="Path_88" data-name="Path 88" d="M322.109,210.021l-.92,8.564-.059.541-8.18-12.809-.88-1.382.256-.4L314.608,201l.507.61Z" transform="translate(-45.33 -75.171)" opacity="0.1"/>
        <path id="Path_89" data-name="Path 89" d="M403.532,217.506c-2.538.728-4.963,3.227-7.073,6.262a53.443,53.443,0,0,0-3.817,6.562c-.694,1.387-1.3,2.72-1.81,3.881l-.354.826c-.856,2.022-1.333,3.374-1.333,3.374s-19.429-14.609-16.355-15.593c1.033-.33,2.391-2.543,3.733-5.332l.167-.354c.851-1.79,1.687-3.787,2.43-5.666,1.52-3.861,2.646-7.216,2.646-7.216S411.279,215.293,403.532,217.506Z" transform="translate(-122.856 -103.891)" fill="#efb7b9"/>
        <path id="Path_90" data-name="Path 90" d="M459.26,202.58s4.486,8.116,10.512,7.009,3.546-4.358,3.546-4.358Z" transform="translate(-166.961 -103.042)" fill="#444053"/>
        <path id="Path_91" data-name="Path 91" d="M404.264,753.944c-3.974,1.815-12.961,0-12.961,0l-3.787-.236c-4.919-.315-13.153-.846-16.065-1.082-4.25-.349-3.207-2.091-3.207-2.091V740.014l20.62-5.224s8.15,2.789,10.384,5.224c2.12,2.322,3.36.536,7.142,1.205.187.034.384.074.59.123,3.591.821,5.539,1.146,6.69,4.122a13.821,13.821,0,0,1,.556,1.918C415.287,752.173,408.233,752.139,404.264,753.944Z" transform="translate(-120.657 -373.468)" fill="#a36468"/>
        <path id="Path_92" data-name="Path 92" d="M413.669,752.1a15.408,15.408,0,0,1-2.322,1.19c-2.705,1.235-5.278,2.74-8.013,3.906a18.74,18.74,0,0,1-8.642,1.776c-1.549-.113-3.133-.492-4.614-.049a10.657,10.657,0,0,0-2.563,1.422c-4.919-.315-13.153-.846-16.065-1.082-4.25-.349-3.207-2.091-3.207-2.091v-1.23c.152,0,.325-.044.521-.059a9.287,9.287,0,0,1,3,.448c2.135.58,4.26,1.151,6.394,1.722a5.052,5.052,0,0,1,2.459-3.138,7.84,7.84,0,0,1,3.965-.91c3.31.044,6.444,1.613,9.749,1.771a5.371,5.371,0,0,0,2.7-.453c.453-.226.851-.556,1.294-.807a9.439,9.439,0,0,1,2.228-.753,49.077,49.077,0,0,0,6.37-2.056c.59-.231,1.279-.649,1.2-1.279-.1-.836-1.417-.935-1.761-1.7a.984.984,0,0,1,.039-.871c.187.034.384.074.59.123C410.57,748.8,412.518,749.129,413.669,752.1Z" transform="translate(-120.657 -380.109)" opacity="0.1"/>
        <path id="Path_93" data-name="Path 93" d="M389.138,797.243c-4.673,2.135-15.248,0-15.248,0l-4.452-.261c-5.765-.369-15.475-.984-18.9-1.274-5-.413-3.773-2.459-3.773-2.459v-12.4l24.265-6.148s9.592,3.281,12.218,6.148c2.494,2.73,3.935.63,8.406,1.417.221.039.453.089.694.143,4.225.984,6.517,1.353,7.87,4.855a15.782,15.782,0,0,1,.654,2.258C402.089,795.157,393.811,795.113,389.138,797.243Z" transform="translate(-109.731 -393.747)" fill="#a36468"/>
        <path id="Path_94" data-name="Path 94" d="M400.2,795.1a18.311,18.311,0,0,1-2.73,1.4c-3.182,1.451-6.212,3.222-9.429,4.594a22.105,22.105,0,0,1-10.172,2.09c-1.82-.133-3.684-.59-5.411-.059a12.544,12.544,0,0,0-3.025,1.692c-5.765-.369-15.475-.984-18.9-1.274-5-.413-3.773-2.459-3.773-2.459v-1.446a6.17,6.17,0,0,1,.615-.069,10.794,10.794,0,0,1,3.532.526l7.521,2.027a5.952,5.952,0,0,1,2.917-3.694,9.179,9.179,0,0,1,4.668-1.072c3.9.054,7.58,1.9,11.471,2.086a6.35,6.35,0,0,0,3.168-.526c.536-.271.984-.659,1.525-.949a10.7,10.7,0,0,1,2.622-.885,58.877,58.877,0,0,0,7.457-2.42c.694-.275,1.505-.767,1.412-1.505-.123-.984-1.667-1.1-2.076-2.007a1.185,1.185,0,0,1,.049-1.023c.221.039.453.089.694.143C396.56,791.217,398.852,791.6,400.2,795.1Z" transform="translate(-109.731 -401.587)" opacity="0.1"/>
        <path id="Path_95" data-name="Path 95" d="M394.9,647.54l-1.313,30.9s-1.968,6.311-.9,8.116,2.868,3.605,2.213,4.673-8.524,12.607-11.067,8.18-5.052-23.61-5.052-23.61l2.346-23.694Z" transform="translate(-126.068 -329.135)" fill="#444053"/>
        <path id="Path_96" data-name="Path 96" d="M415.508,491l3.65,4.879v42.44s1.067,11.313,0,13.65-6.478,7.009-6.478,7.009l-4.55-23.364.984-24.717Z" transform="translate(-140.981 -249.594)" fill="#444053"/>
        <path id="Path_97" data-name="Path 97" d="M394.9,647.54l-1.313,30.9s-1.968,6.311-.9,8.116,2.868,3.605,2.213,4.673-8.524,12.607-11.067,8.18-5.052-23.61-5.052-23.61l2.346-23.694Z" transform="translate(-126.068 -329.135)" opacity="0.1"/>
        <path id="Path_98" data-name="Path 98" d="M415.508,491l3.65,4.879v42.44s1.067,11.313,0,13.65-6.478,7.009-6.478,7.009l-4.55-23.364.984-24.717Z" transform="translate(-140.981 -249.594)" opacity="0.1"/>
        <path id="Path_99" data-name="Path 99" d="M377.935,442.005v22.956l-4.1,17.87s-1.313,43.123-.167,48.367-3.935,10.167-3.935,10.167-2.951.33-2.951,2.622-4.919,8.854-4.919,8.854l.162,12.789s2.135,23.94-1.146,28.529,1.146,5.248,1.146,5.248c-4.1,13.443-23.773,10.33-25.548,8.854s0-30.5,0-30.5,4.4-44.269,7.841-46.237.167-4.427,1.313-7.378-1.146-10.984-1.146-10.984-.984-9.513-3.443-14.1-2.135-17.216-2.135-17.216-6.886-9.183-8.933-12.789-3.365-12.951-2.873-20c.334-4.766,2.838-11.707,4.427-15.7.762-1.913,1.313-3.153,1.313-3.153l.467.123,26.867,7.034Z" transform="translate(-99.758 -218.7)" fill="#444053"/>
        <path id="Path_100" data-name="Path 100" d="M410.407,217.471c-2.538.728-4.963,3.227-7.073,6.262h-.551a17.57,17.57,0,0,1-15.248-8.819,17.3,17.3,0,0,1-1.545-3.517c1.52-3.861,2.646-7.216,2.646-7.216S418.154,215.257,410.407,217.471Z" transform="translate(-129.732 -103.855)" opacity="0.1"/>
        <path id="Path_101" data-name="Path 101" d="M419.549,188.021a17.585,17.585,0,1,1-32.9-8.618,17.185,17.185,0,0,1,1.859-2.686,17.8,17.8,0,0,1,4.043-3.551,17.585,17.585,0,0,1,26.97,13.566C419.535,187.165,419.549,187.593,419.549,188.021Z" transform="translate(-128.913 -86.703)" fill="#efb7b9"/>
        <path id="Path_102" data-name="Path 102" d="M398.716,260.612l-.059.541-8.18-12.789c-.856,2.022-1.333,3.374-1.333,3.374s-19.429-14.629-16.355-15.612c1.033-.33,2.391-2.543,3.733-5.332l.167-.354c1.426,4.25,9.715,12.745,13.163,16.148.4.393.728.718.984.954l.526.492.275.275C392.893,249.6,398.185,255.31,398.716,260.612Z" transform="translate(-122.856 -117.199)" opacity="0.1"/>
        <path id="Path_103" data-name="Path 103" d="M378.422,303.858l-.9,28.81-.157,5.13s-10.6-.984-20.5-2.066c-7.969-.871-15.48-1.81-16.635-2.361A31.309,31.309,0,0,0,333.1,331.8c-1.928-.261-3.443-.4-3.443-.4s-.566.167-1.436.325c-1.9.344-5.234.625-7.177-1.062-2.484-2.159,4.043-10,5.671-11.889l.359-.408-.615-5.681-1.6-14.732s-.984-8.485-2.459-13.035a24.042,24.042,0,0,1-.851-3.96,31.717,31.717,0,0,1,.826-12.425,27.091,27.091,0,0,0,.885-5.258c.246-4.55,14.142-22.135,17.585-23.733a7.3,7.3,0,0,0,3.522-3.512,6.707,6.707,0,0,0,.536-1.53c1.476-6.394,5.209-3.856,5.209-3.856.9,5,14.835,18.244,14.835,18.244l.275.275c1.382,1.417,7.541,8.067,7.1,13.743a16.659,16.659,0,0,0,.93,6.217,105.139,105.139,0,0,1,4.845,27.545Z" transform="translate(-96.448 -117.051)" fill="#dce6f2"/>
        <path id="Path_104" data-name="Path 104" d="M391.457,310.45s-3.443,8.362-6.026,9.715S392.687,323.018,391.457,310.45Z" transform="translate(-129.227 -157.853)" opacity="0.1"/>
        <path id="Path_105" data-name="Path 105" d="M395.25,342.2s-7.87.984-7.87,2.459S395.25,342.2,395.25,342.2Z" transform="translate(-130.438 -173.986)" opacity="0.1"/>
        <path id="Path_106" data-name="Path 106" d="M404.617,361.7s-11.436,24.348-14.633,25.086S404.617,361.7,404.617,361.7Z" transform="translate(-131.566 -183.894)" opacity="0.1"/>
        <path id="Path_107" data-name="Path 107" d="M388.875,251.116l-9.459,4.112L368,237.983a6.709,6.709,0,0,0,.536-1.53c1.476-6.394,5.209-3.856,5.209-3.856.9,5,14.835,18.244,14.835,18.244Z" transform="translate(-120.591 -118.042)" opacity="0.1"/>
        <path id="Path_108" data-name="Path 108" d="M389.875,249.116l-9.459,4.112L369,235.983a6.71,6.71,0,0,0,.536-1.53c1.476-6.394,5.209-3.856,5.209-3.856.9,5,14.835,18.244,14.835,18.244Z" transform="translate(-121.099 -117.026)" fill="#dce6f2"/>
        <path id="Path_109" data-name="Path 109" d="M382.649,369.14s-10.6-.984-20.5-2.066l17.757,4.648v5.411c-.777.7-1.451,1.067-1.889.88-2.046-.861-18.746-3.566-18.746-3.566s-9.7-4.919-20.167-10.821a8.086,8.086,0,0,1-.738-.462,11.629,11.629,0,0,1-3.1-3.1,22.028,22.028,0,0,1-3.286-9.921,42.9,42.9,0,0,1-.256-6.09,49.93,49.93,0,0,1,.63-6.881,226.292,226.292,0,0,1-1.476-26.562c.123-13.773,13.035-18.691,13.035-18.691,23.733-2.091,16.375,36.276,16.375,36.276s-1.372,10.821-1.746,11.928-1.717,2.951-1.535,5.534,4.717,5.671,4.717,5.671,4.427,2.076,6.252,5.15c1.328,2.268,9.956,5.342,14.83,7.536Z" transform="translate(-101.728 -148.393)" opacity="0.1"/>
        <path id="Path_110" data-name="Path 110" d="M417.748,174.737a5.568,5.568,0,0,1-.492,2.351,14.535,14.535,0,0,1-.876,1.751,8.067,8.067,0,0,1-2.154,2.676,11.021,11.021,0,0,1-3.935,1.367,5.694,5.694,0,0,0-3.556,2.017,7.054,7.054,0,0,0-.831,2.41,5.184,5.184,0,0,1-.984,2.332,1.933,1.933,0,0,1-2.3.551,2.327,2.327,0,0,1-.89-1.146,16.437,16.437,0,0,1-.93-4.029,8.57,8.57,0,0,0-1.382-3.861,3.458,3.458,0,0,0-3.63-1.392,3.5,3.5,0,0,0-1.968,1.909,10.941,10.941,0,0,0-.743,2.715q-.915,5.007-2.159,9.956a.915.915,0,0,1-.162.374.708.708,0,0,1-.492.207c-1.1.148-2.159-.625-3.271-.541a1.88,1.88,0,0,0-.339.054,17.575,17.575,0,0,1,1.776-20.069l.089-.025a5.3,5.3,0,0,0,1.968-1.24,20.768,20.768,0,0,0,1.968-2.277l.393-.492a22.435,22.435,0,0,1,3.837-3.645,3.935,3.935,0,0,1,1.308-.708,3.876,3.876,0,0,1,1.24-.039,31.27,31.27,0,0,0,5.121.192,32.847,32.847,0,0,1,3.6-.364c3.114.089,5.77,2.287,7.737,4.7A7.276,7.276,0,0,1,417.748,174.737Z" transform="translate(-128.877 -84.339)" opacity="0.1"/>
        <path id="Path_111" data-name="Path 111" d="M379.087,177.013c-.684,1.121-1.918,1.884-2.381,3.114-.679,1.786.467,4.009-.585,5.6-.349.536-.925.935-1.121,1.549-.335,1.038.58,2.145.344,3.212s-1.643,1.968-1.269,3.01a1.967,1.967,0,0,0,1.082.984,4.23,4.23,0,0,0,2.459.546c1.343-.221,2.341-1.54,3.7-1.638,1.107-.079,2.164.689,3.266.546a.738.738,0,0,0,.492-.211.851.851,0,0,0,.162-.374q1.24-4.943,2.164-9.956a10.725,10.725,0,0,1,.738-2.715,3.527,3.527,0,0,1,1.968-1.909,3.469,3.469,0,0,1,3.63,1.392,8.519,8.519,0,0,1,1.387,3.861,16.655,16.655,0,0,0,.925,4.029,2.351,2.351,0,0,0,.9,1.151,1.927,1.927,0,0,0,2.3-.551,5.131,5.131,0,0,0,.984-2.336,7.024,7.024,0,0,1,.831-2.405,5.707,5.707,0,0,1,3.556-2.017,11.129,11.129,0,0,0,3.935-1.372,8.1,8.1,0,0,0,2.154-2.671,7.863,7.863,0,0,0,1.348-4.107,7.54,7.54,0,0,0-2.017-4.255c-1.968-2.41-4.629-4.609-7.742-4.693a30.6,30.6,0,0,0-3.6.364,30.776,30.776,0,0,1-5.12-.2,4.024,4.024,0,0,0-1.24.044,3.708,3.708,0,0,0-1.3.708,22.444,22.444,0,0,0-3.842,3.64,28.192,28.192,0,0,1-2.371,2.755,5.337,5.337,0,0,1-1.968,1.244c-.492.138-.984.039-1.451.192C379.953,174.008,379.761,175.9,379.087,177.013Z" transform="translate(-123.645 -83.846)" fill="#965d7b"/>
        <path id="Path_112" data-name="Path 112" d="M469.771,209.584c-3.935.723-7.2-2.459-9-4.781a19.292,19.292,0,0,1-1.51-2.223l13.507,2.548.546.1S475.8,208.483,469.771,209.584Z" transform="translate(-166.961 -103.042)" opacity="0.1"/>
        <g id="Group_220" data-name="Group 220" transform="translate(250.343 89.415)" opacity="0.1">
          <path id="Path_113" data-name="Path 113" d="M376.287,212.219A4.1,4.1,0,0,0,376,210.33c0,.049-.044.1-.059.148a3.661,3.661,0,0,0,.256,2.027A1.474,1.474,0,0,0,376.287,212.219Z" transform="translate(-374.931 -196.395)"/>
          <path id="Path_114" data-name="Path 114" d="M379.069,197.8a10.93,10.93,0,0,0,.039,2.041,10.959,10.959,0,0,0-.039-2.041Z" transform="translate(-376.542 -190.028)"/>
          <path id="Path_115" data-name="Path 115" d="M410.651,185.173a8.067,8.067,0,0,1-2.154,2.676,10.988,10.988,0,0,1-3.935,1.367,5.681,5.681,0,0,0-3.556,2.017,7.086,7.086,0,0,0-.831,2.41,5.15,5.15,0,0,1-.984,2.336,1.92,1.92,0,0,1-2.3.551,2.351,2.351,0,0,1-.9-1.151,16.376,16.376,0,0,1-.925-4.029,8.5,8.5,0,0,0-1.387-3.861,3.458,3.458,0,0,0-3.63-1.392,3.512,3.512,0,0,0-1.968,1.909,10.723,10.723,0,0,0-.738,2.715q-.92,5.012-2.164,9.956a.851.851,0,0,1-.162.374.738.738,0,0,1-.492.212c-1.1.143-2.159-.625-3.266-.546-1.363.1-2.361,1.417-3.7,1.633a4.157,4.157,0,0,1-2.459-.546,2.631,2.631,0,0,1-.9-.639,1.328,1.328,0,0,0-.182,1.146,1.918,1.918,0,0,0,1.082.984,4.156,4.156,0,0,0,2.459.546c1.343-.216,2.341-1.535,3.7-1.633,1.107-.079,2.164.689,3.266.546a.738.738,0,0,0,.492-.211.851.851,0,0,0,.162-.374q1.24-4.919,2.164-9.956a10.722,10.722,0,0,1,.738-2.715,3.512,3.512,0,0,1,1.968-1.908,3.461,3.461,0,0,1,3.63,1.392,8.519,8.519,0,0,1,1.387,3.861A16.658,16.658,0,0,0,396,196.87a2.351,2.351,0,0,0,.9,1.151,1.927,1.927,0,0,0,2.3-.551,5.15,5.15,0,0,0,.984-2.336,7.088,7.088,0,0,1,.831-2.41,5.73,5.73,0,0,1,3.556-2.017,11.219,11.219,0,0,0,3.935-1.367,8.067,8.067,0,0,0,2.154-2.676,7.832,7.832,0,0,0,1.348-4.1,5.293,5.293,0,0,0-.059-.561A9.666,9.666,0,0,1,410.651,185.173Z" transform="translate(-373.964 -182)"/>
        </g>
        <path id="Path_116" data-name="Path 116" d="M419.644,179.442a17.378,17.378,0,0,1,2.189,7.3c-4.383-2.459-8.5-5.16-10.585-6.1-3.625-1.638-17.181-1.392-22.277-1.24a17.183,17.183,0,0,1,1.859-2.686,17.8,17.8,0,0,1,4.058-3.551,17.595,17.595,0,0,1,24.781,6.262Z" transform="translate(-131.246 -86.707)" opacity="0.1"/>
        <path id="Path_117" data-name="Path 117" d="M471,207.5c-2.366.728-6.227-.679-10.231-2.7a19.292,19.292,0,0,1-1.51-2.223l13.507,2.548C473.662,205.738,473.889,206.609,471,207.5Z" transform="translate(-166.961 -103.042)" opacity="0.1"/>
        <path id="Path_118" data-name="Path 118" d="M403.348,154.057s-12.912-.738-16.542,6.272l-.585,6.212-.984-.108-.2,4.225s19.734-.861,24.225,1.166,18.446,12.238,24.038,10.516-.492-3.32-.492-3.32-7.7-3.261-7.7-5.819S423.205,157.131,403.348,154.057Z" transform="translate(-129.249 -78.376)" fill="#444053"/>
        <path id="Path_119" data-name="Path 119" d="M371.63,622.28s8.239,7.993,11.805,7.378C383.435,629.658,373.352,628.8,371.63,622.28Z" transform="translate(-122.435 -316.3)" opacity="0.1"/>
        <path id="Path_120" data-name="Path 120" d="M368.13,629.81s.738,4.112,2.705,3.709S368.13,629.81,368.13,629.81Z" transform="translate(-120.657 -320.126)" opacity="0.1"/>
        <path id="Path_121" data-name="Path 121" d="M384.1,769.53s-11.7,9.1-9.724,9.346S384.1,769.53,384.1,769.53Z" transform="translate(-123.718 -391.12)" opacity="0.1"/>
        <path id="Path_122" data-name="Path 122" d="M330.96,340.963l37.875-6.163v35.858l-35.986-1.884Z" transform="translate(-54.928 -143.158)" fill="#f70"/>
        <path id="Path_123" data-name="Path 123" d="M330.96,340.963l37.875-6.163v35.858l-35.986-1.884Z" transform="translate(-54.928 -143.158)" opacity="0.05"/>
        <path id="Path_124" data-name="Path 124" d="M407.96,334.8l45.42,3.4-2.513,31.2-42.907,1.254Z" transform="translate(-94.053 -143.158)" fill="#f70"/>
        <path id="Path_125" data-name="Path 125" d="M407.96,334.8l45.42,3.4-2.513,31.2-42.907,1.254Z" transform="translate(-94.053 -143.158)" opacity="0.1"/>
        <path id="Path_126" data-name="Path 126" d="M421.925,312.55,407.96,323.494l45.42,3.4,7.423-11.2Z" transform="translate(-94.053 -131.852)" fill="#f70"/>
        <path id="Path_127" data-name="Path 127" d="M303.08,318.741l34.1-4.151,17.491,9.941-37.875,6.163Z" transform="translate(-40.762 -132.888)" fill="#f70"/>
        <path id="Path_128" data-name="Path 128" d="M377.138,350.478V399.5l-17.742-1.82-7.718-.787-2.351-.246-7.713-.792-10.654-1.092V347.33l37.87,2.577Z" transform="translate(-54.928 -149.524)" fill="#f70"/>
        <path id="Path_129" data-name="Path 129" d="M461.957,341.71v47.811l-14.22,2.73-6.916,1.328-15.981,3.069V347.622Z" transform="translate(-102.63 -146.669)" fill="#f70"/>
        <path id="Path_130" data-name="Path 130" d="M461.957,341.71v47.811l-14.22,2.73-6.916,1.328-15.981,3.069V347.622Z" transform="translate(-102.63 -146.669)" opacity="0.05"/>
        <path id="Path_131" data-name="Path 131" d="M303.08,357.65l13.714-10.32,46.178,3.148-6.8,11.451Z" transform="translate(-40.762 -149.524)" fill="#f70"/>
        <path id="Path_132" data-name="Path 132" d="M303.08,357.65l13.714-10.32,46.178,3.148-6.8,11.451Z" transform="translate(-40.762 -149.524)" fill="#fff" opacity="0.1"/>
        <path id="Path_133" data-name="Path 133" d="M461.957,341.71l-37.117,5.912,12.081,10.821,39.759-6.67Z" transform="translate(-102.63 -146.669)" fill="#f70"/>
        <path id="Path_134" data-name="Path 134" d="M461.957,341.71l-37.117,5.912,12.081,10.821,39.759-6.67Z" transform="translate(-102.63 -146.669)" fill="#fff" opacity="0.1"/>
        <path id="Path_135" data-name="Path 135" d="M464.246,433.591l-6.916,1.328V424.7l6.478-1.633Z" transform="translate(-119.139 -188.009)" fill="#fff" opacity="0.1"/>
        <path id="Path_136" data-name="Path 136" d="M380.8,435.96v6.758l-7.718-.787V435.96Z" transform="translate(-76.33 -194.559)" fill="#fff" opacity="0.1"/>
        <path id="Path_137" data-name="Path 137" d="M360.333,440.29v3.6l-7.713-.792v-2.8Z" transform="translate(-65.934 -196.759)" fill="#fff" opacity="0.1"/>
        <path id="Path_138" data-name="Path 138" d="M471.906,463.375c-5.288,6.763-22.75,2.09-22.75,2.09l-12.976-13.537-1.761-1.835,3.443-6.394s.984.325,2.627.9C449.186,447.635,476.358,457.684,471.906,463.375Z" transform="translate(-154.34 -225.56)" opacity="0.1"/>
        <path id="Path_139" data-name="Path 139" d="M470.906,461.375c-5.288,6.763-22.75,2.09-22.75,2.09l-12.976-13.537-1.761-1.835,3.443-6.394s.984.325,2.627.9C448.186,445.635,475.358,455.684,470.906,461.375Z" transform="translate(-153.832 -224.544)" fill="#efb7b9"/>
        <path id="Path_140" data-name="Path 140" d="M439.45,442.6a29.08,29.08,0,0,1-4.309,7.334l-1.761-1.835,3.443-6.394S437.812,442.025,439.45,442.6Z" transform="translate(-153.811 -224.544)" opacity="0.1"/>
        <path id="Path_141" data-name="Path 141" d="M344.914,287.913S332,292.832,331.879,306.6a226.3,226.3,0,0,0,1.476,26.562s-3.689,20.536,6.763,26.439,20.167,10.821,20.167,10.821,16.7,2.705,18.751,3.566,9.179-10.207,8.072-12.051-16.311-6.394-18.116-9.469-6.252-5.145-6.252-5.145-4.535-3.094-4.717-5.676,1.156-4.427,1.535-5.534,1.751-11.928,1.751-11.928S368.647,285.8,344.914,287.913Z" transform="translate(-102.236 -146.359)" fill="#dce6f2"/>
        <path id="Path_142" data-name="Path 142" d="M353.662,380.7s-17.462,1.968-16.109,8.116A36.736,36.736,0,0,1,353.662,380.7Z" transform="translate(-105.082 -193.548)" opacity="0.1"/>
        <path id="Path_143" data-name="Path 143" d="M361.791,385.7s-9.911,7.255-8.091,7.747S361.791,385.7,361.791,385.7Z" transform="translate(-113.211 -196.089)" opacity="0.1"/>
        <path id="Path_144" data-name="Path 144" d="M377.6,391.7s-2.828,5.086-1.23,4.82S377.6,391.7,377.6,391.7Z" transform="translate(-124.597 -199.138)" opacity="0.1"/>
        <path id="Path_145" data-name="Path 145" d="M731.764,167.395s-18.691-1.126-16.508,11.987a3.2,3.2,0,0,0,1.663,3.369s.034-.984,1.918-.644a8.613,8.613,0,0,0,2.031.1,4.215,4.215,0,0,0,2.489-1.028h0s5.258-2.169,7.3-10.767c0,0,1.515-1.879,1.476-2.361L728.98,169.4a5.659,5.659,0,0,1,.226,4.171s-.1-4.088-.708-3.994c-.123,0-1.638.792-1.638.792s1.854,3.965.453,6.852c0,0,.531-4.889-1.033-6.567l-2.223,1.3s2.169,4.1.7,7.442c0,0,.379-5.13-1.166-7.127l-2.017,1.569s2.041,4.043.8,6.817c0,0-.162-5.971-1.235-6.424a12.165,12.165,0,0,0-2.027,2.194s1.392,2.951.526,4.481c0,0-.531-3.979-.984-4a13.241,13.241,0,0,0-1.938,4.427,9.572,9.572,0,0,1,1.51-4.693,5.269,5.269,0,0,0-2.686,1.392s.271-1.864,3.118-2.027a13.456,13.456,0,0,1,1.84-2.125,11.534,11.534,0,0,0-4.55.526s1.51-1.756,5.071-.984l1.968-1.623s-3.729-.492-5.312.054c0,0,1.82-1.554,5.849-.423l2.164-1.294a19.431,19.431,0,0,0-5.071-.438s2-1.077,5.706.089l1.549-.694s-2.332-.457-3.01-.531-.718-.261-.718-.261a8.048,8.048,0,0,1,4.373.492S731.833,167.6,731.764,167.395Z" transform="translate(-296.948 -85.152)" fill="#f70"/>
        <path id="Path_147" data-name="Path 147" d="M620.431,257.992s4.3-18.244-9-18.308a3.2,3.2,0,0,0-3.6,1.062s.949.2.3,2a8.76,8.76,0,0,0-.443,1.968,4.225,4.225,0,0,0,.585,2.622h0s1.244,5.558,9.346,9.041c0,0,1.594,1.81,2.076,1.83l-.787-3.34a5.652,5.652,0,0,1-4.151-.492s4.048.6,4.053,0c0-.123-.492-1.751-.492-1.751s-4.225,1.151-6.832-.723c0,0,4.727,1.358,6.65.1l-.885-2.42s-4.427,1.441-7.457-.58c0,0,4.993,1.249,7.226.069l-1.205-2.253s-4.329,1.318-6.852-.379c0,0,5.9.856,6.542-.118a12.219,12.219,0,0,0-1.815-2.376s-3.128.876-4.506-.241c0,0,4.009.152,4.1-.271a13.261,13.261,0,0,0-4.048-2.671,9.641,9.641,0,0,1,4.373,2.292,5.307,5.307,0,0,0-.915-2.887s1.79.59,1.476,3.443a12.252,12.252,0,0,1,1.776,2.174,11.567,11.567,0,0,0,.256-4.574s1.476,1.79.084,5.16l1.259,2.238s1.141-3.591.851-5.243c0,0,1.225,2.056-.58,5.834l.91,2.356a19.7,19.7,0,0,0,1.294-4.919s.723,2.154-1.062,5.612l.423,1.643s.846-2.218,1.033-2.878.379-.664.379-.664a8.057,8.057,0,0,1-1.225,4.23S620.22,258.017,620.431,257.992Z" transform="translate(-242.373 -121.804)" fill="#f70" opacity="0.1"/>
        <path id="Path_148" data-name="Path 148" d="M528.422,284.849s-15.012-11.23-20.379.935a3.2,3.2,0,0,0-.462,3.728s.561-.792,1.968.521a8.611,8.611,0,0,0,1.643,1.2,4.22,4.22,0,0,0,2.641.492h0s5.588,1.077,12.022-4.978c0,0,2.3-.738,2.513-1.171l-3.389-.6a5.683,5.683,0,0,1-2.1,3.61s2.159-3.473,1.6-3.724c-.113-.054-1.805-.246-1.805-.246s-.63,4.338-3.384,5.976c0,0,3.133-3.792,2.745-6.055l-2.573-.138s-.438,4.619-3.507,6.606c0,0,3.133-4.078,2.951-6.6l-2.548.207s-.516,4.491-3.079,6.124c0,0,3.143-5.076,2.5-6.04a12.366,12.366,0,0,0-2.9.713s-.448,3.217-2.022,4.033c0,0,1.746-3.615,1.392-3.866a13.222,13.222,0,0,0-4.063,2.641,9.606,9.606,0,0,1,3.847-3.089,5.3,5.3,0,0,0-3.01-.315s1.249-1.407,3.719.025a12.419,12.419,0,0,1,2.705-.762,11.511,11.511,0,0,0-4.092-2.061s2.233-.639,4.766,1.967l2.553-.261s-2.838-2.459-4.466-2.873c0,0,2.376-.3,5.116,2.858l2.518.113a19.636,19.636,0,0,0-3.994-3.158s2.258.2,4.717,3.212l1.677.271s-1.7-1.663-2.228-2.1-.457-.615-.457-.615a8.082,8.082,0,0,1,3.389,2.814S528.358,285.051,528.422,284.849Z" transform="translate(-191.298 -142.444)" fill="#f70" opacity="0.1"/>
        <path id="Path_151" data-name="Path 151" d="M671.239,108.208s-18.642-2.076-17.1,11.151a3.193,3.193,0,0,0,1.476,3.443s.084-.984,1.968-.541a9.05,9.05,0,0,0,2.026.2,4.23,4.23,0,0,0,2.533-.9h0s5.366-1.9,7.87-10.389c0,0,1.6-1.8,1.569-2.282l-3.222,1.19a5.486,5.486,0,0,1,0,4.176s.1-4.088-.492-4.024c-.123,0-1.677.708-1.677.708s1.653,4.058.108,6.886c0,0,.777-4.86-.7-6.611l-2.287,1.181s1.968,4.206.32,7.472c0,0,.64-5.106-.8-7.177l-2.09,1.476s1.83,4.137.448,6.847c0,0,.143-5.971-.905-6.478a12.8,12.8,0,0,0-2.14,2.086s1.245,3,.3,4.5c0,0-.33-4-.762-4.038a13.227,13.227,0,0,0-2.164,4.338,9.576,9.576,0,0,1,1.751-4.614,5.293,5.293,0,0,0-2.755,1.254s.364-1.845,3.217-1.864c0,0,1.549-1.923,1.968-2.027a11.565,11.565,0,0,0-4.575.3s1.6-1.682,5.111-.7l2.071-1.52s-3.743-.757-5.327-.266c0,0,1.9-1.476,5.863-.123l2.228-1.185a19.586,19.586,0,0,0-5.047-.694s2.051-.984,5.7.379l1.584-.615s-2.307-.576-2.986-.684-.7-.3-.7-.3a8.091,8.091,0,0,1,4.348.708A20.122,20.122,0,0,0,671.239,108.208Z" transform="translate(-265.936 -55.03)" fill="#f70" opacity="0.1"/>
        <path id="Path_154" data-name="Path 154" d="M927.972,134.989s-15.012-11.23-20.379.935a3.2,3.2,0,0,0-.462,3.728s.561-.792,1.968.521a8.611,8.611,0,0,0,1.643,1.2,4.225,4.225,0,0,0,2.641.492h0s5.588,1.077,12.027-4.978c0,0,2.292-.738,2.509-1.171l-3.379-.61a5.683,5.683,0,0,1-2.1,3.61s2.159-3.473,1.6-3.724c-.113-.054-1.8-.246-1.8-.246s-.635,4.338-3.389,5.976c0,0,3.133-3.792,2.745-6.055l-2.573-.138s-.438,4.619-3.507,6.606c0,0,3.138-4.078,2.951-6.6l-2.548.207s-.492,4.491-3.079,6.124c0,0,3.148-5.076,2.5-6.04a12.365,12.365,0,0,0-2.9.713s-.443,3.217-2.017,4.033c0,0,1.741-3.615,1.387-3.866a13.222,13.222,0,0,0-4.063,2.641,9.607,9.607,0,0,1,3.847-3.089,5.3,5.3,0,0,0-3.01-.315s1.254-1.407,3.724.025a12.366,12.366,0,0,1,2.7-.762,11.511,11.511,0,0,0-4.093-2.061s2.233-.639,4.766,1.968l2.553-.261s-2.833-2.459-4.466-2.873c0,0,2.376-.3,5.116,2.858l2.523.113a19.721,19.721,0,0,0-4-3.158s2.263.2,4.717,3.212l1.677.271s-1.7-1.663-2.228-2.1-.453-.575-.453-.575a8.087,8.087,0,0,1,3.384,2.814S927.908,135.191,927.972,134.989Z" transform="translate(-394.317 -66.297)" fill="#f70" opacity="0.1"/>
        <path id="Path_157" data-name="Path 157" d="M851.6,212.713s-9.557-16.129-19.183-6.95a3.2,3.2,0,0,0-1.859,3.266s.821-.521,1.608,1.225a8.5,8.5,0,0,0,1.058,1.741,4.176,4.176,0,0,0,2.243,1.476h0s4.747,3.138,13.015,0c0,0,2.4.2,2.764-.118l-2.887-1.859a5.655,5.655,0,0,1-3.325,2.528s3.33-2.376,2.912-2.823c-.089-.093-1.574-.92-1.574-.92s-2.248,3.763-5.411,4.22c0,0,4.348-2.3,4.855-4.535l-2.322-1.092s-2.179,4.1-5.775,4.752c0,0,4.461-2.563,5.248-4.958l-2.43-.787s-2.2,3.935-5.194,4.476c0,0,4.85-3.483,4.624-4.619a12.148,12.148,0,0,0-2.951-.453s-1.648,2.8-3.414,2.951c0,0,3-2.666,2.769-3.04a13.241,13.241,0,0,0-4.766.885,9.6,9.6,0,0,1,4.737-1.377,5.288,5.288,0,0,0-2.661-1.446s1.7-.821,3.443,1.446a12.459,12.459,0,0,1,2.789.334,11.766,11.766,0,0,0-2.986-3.473s2.3.266,3.635,3.66l2.459.738s-1.667-3.374-3.025-4.368c0,0,2.312.635,3.63,4.6l2.287,1.067a19.764,19.764,0,0,0-2.459-4.427s2.012,1.048,3.128,4.776l1.441.9s-.925-2.189-1.249-2.794-.187-.738-.187-.738a8.081,8.081,0,0,1,2.051,3.9S851.46,212.875,851.6,212.713Z" transform="translate(-355.61 -103.224)" fill="#f70"/>
        <path id="Path_158" data-name="Path 158" d="M734.073,274.866s.492-18.741-12.528-16.1a3.205,3.205,0,0,0-3.315,1.776s.984,0,.708,1.894a8.632,8.632,0,0,0-.03,2.036,4.205,4.205,0,0,0,1.107,2.459h0s2.346,5.184,11.008,6.945c0,0,1.923,1.451,2.405,1.372l-1.476-3.109a5.677,5.677,0,0,1-4.161.369s4.083-.241,3.969-.841c0-.123-.846-1.618-.846-1.618s-3.906,1.992-6.832.684c0,0,4.919.369,6.527-1.249l-1.372-2.179s-4.024,2.3-7.418.944c0,0,5.14.207,7.088-1.4l-1.638-1.968s-3.969,2.174-6.783,1.023c0,0,5.962-.359,6.394-1.446a12.758,12.758,0,0,0-2.263-1.968s-2.882,1.476-4.456.679c0,0,3.935-.659,3.96-1.1a13.2,13.2,0,0,0-4.506-1.79,9.576,9.576,0,0,1,4.747,1.358A5.287,5.287,0,0,0,722.888,259s1.874.212,2.13,3.05a12.23,12.23,0,0,1,2.184,1.771,11.5,11.5,0,0,0-.679-4.53s1.81,1.451,1.131,5.032l1.687,1.938s.384-3.748-.231-5.307c0,0,1.613,1.766.62,5.829l1.362,2.12a19.612,19.612,0,0,0,.271-5.086s1.141,1.968.1,5.711l.748,1.525s.379-2.346.428-3.03.236-.728.236-.728a8.077,8.077,0,0,1-.339,4.393S733.857,274.93,734.073,274.866Z" transform="translate(-298.549 -131.462)" fill="#f70"/>
      </g>
    </g>
    <g id="Group_222" data-name="Group 222">
      <rect id="Rectangle_70-2" data-name="Rectangle 70" width="478" height="425" transform="translate(-85 151)" fill="#fff"/>
      <g id="pinjeeem" transform="translate(-10 141)">
        <g id="Group_223" data-name="Group 223" transform="translate(14.86 157)">
          <path id="Path_180" data-name="Path 180" d="M726.354,198.09V216.97a.66.66,0,0,1-.658.658h-.468v98.357a10.263,10.263,0,0,1-10.262,10.263H653.508a10.26,10.26,0,0,1-10.26-10.262V221.078h-.339a.465.465,0,0,1-.466-.463V209.87a.466.466,0,0,1,.466-.466h.339v-4.048h-.342a.488.488,0,0,1-.486-.489v-10.6a.487.487,0,0,1,.486-.486h.342v-5.525H642.9a.431.431,0,0,1-.431-.431v-5.784a.433.433,0,0,1,.431-.434h.348V169.9a10.26,10.26,0,0,1,10.259-10.26h61.458a10.263,10.263,0,0,1,10.263,10.26v27.533h.468A.66.66,0,0,1,726.354,198.09Z" transform="translate(-642.42 -159.638)" fill="#3f3d56"/>
          <rect id="Rectangle_71" data-name="Rectangle 71" width="11.448" height="2.325" rx="1.162" transform="translate(34.06 5.263)" fill="#e6e8ec"/>
          <circle id="Ellipse_24" data-name="Ellipse 24" cx="1.319" cy="1.319" r="1.319" transform="translate(47.239 5.106)" fill="#e6e8ec"/>
          <path id="Path_181" data-name="Path 181" d="M735.287,186.249V331.158a6.511,6.511,0,0,1-6.511,6.508h-58.83a6.5,6.5,0,0,1-6.511-6.508V186.249a6.511,6.511,0,0,1,6.511-6.511h8.8v1.13a5.361,5.361,0,0,0,5.361,5.361h29.92a5.361,5.361,0,0,0,5.361-5.361v-1.13h9.383A6.509,6.509,0,0,1,735.287,186.249Z" transform="translate(-657.394 -173.96)" fill="#fff"/>
          <rect id="Rectangle_72" data-name="Rectangle 72" width="59.793" height="7.762" transform="translate(12.191 101.176)" fill="#e6e6e6"/>
          <rect id="Rectangle_73" data-name="Rectangle 73" width="59.793" height="7.762" transform="translate(12.191 114.975)" fill="#e6e6e6"/>
          <rect id="Rectangle_74" data-name="Rectangle 74" width="59.793" height="7.762" transform="translate(12.191 128.773)" fill="#e6e6e6"/>
          <circle id="Ellipse_25" data-name="Ellipse 25" cx="5.749" cy="5.749" r="5.749" transform="translate(59.623 20.398)" fill="#f70"/>
          <rect id="Rectangle_75" data-name="Rectangle 75" width="59.793" height="39.67" transform="translate(12.071 45.408)" fill="#e6e6e6"/>
          <g id="Group_225" data-name="Group 225" transform="translate(34.399 51.83)">
            <g id="Group_98" data-name="Group 98">
              <path id="Path_7" data-name="Path 7" d="M233.54,51.416l-8.24-4.558,8.24-4.558,8.072,4.558Z" transform="translate(-225.3 -42.3)" fill="#fa3"/>
              <path id="Path_8" data-name="Path 8" d="M283.242,80.385l-.042,9.187,8.2-4.629-.042-9.046Z" transform="translate(-275.086 -71.34)" fill="#f90"/>
              <path id="Path_9" data-name="Path 9" d="M225.642,151.084,225.6,141.9l8.2,4.629-.042,9.046Z" transform="translate(-225.558 -128.676)" fill="#f70"/>
            </g>
          </g>
        </g>
        <g id="Group_224" data-name="Group 224" transform="translate(70.249 214.901)">
          <path id="Path_159" data-name="Path 159" d="M304.558,538.263s6.989,11.085,4.493,14.086,18.726,3.076,18.726,3.076-3.188-16.125-2.25-19.836Z" transform="translate(-277.102 -490.301)" fill="#ffb8b8"/>
          <circle id="Ellipse_21" data-name="Ellipse 21" cx="21.915" cy="21.915" r="21.915" transform="translate(16.71 8.15)" fill="#2f2e41"/>
          <path id="Path_160" data-name="Path 160" d="M245.51,536.052v12.992l12.991-2.707-1.082-9.2Z" transform="translate(-155.34 -387.201)" fill="#ffb8b8"/>
          <path id="Path_161" data-name="Path 161" d="M468.888,699.038l36.269,5.955-9.2,13.533s-25.442-8.661-31.938-8.661S468.888,699.038,468.888,699.038Z" transform="translate(-332.706 -548.022)" fill="#ffb8b8"/>
          <path id="Path_162" data-name="Path 162" d="M341.895,642.582s27.066-31.4,35.727-29.773,12.45,11.368,12.45,11.368l4.872,48.178s-17.322,1.624-17.322,0-3.248-36.268-3.248-36.268-25.442,56.3-38.975,18.946Z" transform="translate(-287.993 -517.549)" fill="#d0cde1"/>
          <path id="Path_163" data-name="Path 163" d="M277.656,680.953s.541,28.36,16.781,29.984,34.1-12.12,34.1-12.12l29.231-14s34.645,18.335,44.93,13.463c0,0,10.826-11.368,3.789-14.616s-.541,0-.541,0l-41.682-21.653s-8.12-2.165-22.194,3.789-33.021,8.661-33.021,8.661Z" transform="translate(-267.602 -534.809)" fill="#d0cde1"/>
          <circle id="Ellipse_22" data-name="Ellipse 22" cx="16.24" cy="16.24" r="16.24" transform="translate(20.88 21.099)" fill="#ffb8b8"/>
          <path id="Path_164" data-name="Path 164" d="M325.423,578.217l-1.083,22.736s.541,29.773-4.331,31.938c-2.463,1.094-7.411,3.291-11.985,5.695a44.56,44.56,0,0,0-8.45,5.343,6.057,6.057,0,0,0-1.218,1.413c-2.165,3.789-16.24,3.248-19.488.541s-1.083,3.248-3.789,4.331c-2.62,1.05-6.252-7.535-4.027-20.354.07-.428.152-.861.238-1.3,2.485-12.423-1.418-42.18-.817-53.677a20.232,20.232,0,0,1,.276-2.62c1.624-8.661,22.346-26.287,26.222-18.779,4.774,9.267,15.742.8,17.625-3.416,10.826-.541,14.616,12.45,14.616,12.45Z" transform="translate(-265.026 -495.408)" fill="#f70"/>
          <path id="Path_165" data-name="Path 165" d="M413.528,708.243s-8.661,3.248-11.368,2.707a4.681,4.681,0,0,0-5.413,4.872c0,3.248-3.248,10.826,1.624,11.368s24.9-.541,29.231,1.083c0,0,19.488.541,17.864-7.578s-9.744-7.578-9.744-7.578S413.528,712.032,413.528,708.243Z" transform="translate(-309.284 -551.272)" fill="#2f2e41"/>
          <path id="Path_166" data-name="Path 166" d="M515.17,708.981s1.083-3.248,2.707-3.248,14.616,2.165,16.24,1.624,20.57-1.624,17.322,7.578-14.074,10.285-14.074,10.285-19.488-2.165-22.194-1.624-12.45,0-10.826-2.707S516.253,713.312,515.17,708.981Z" transform="translate(-347.592 -550.386)" fill="#2f2e41"/>
          <path id="Path_167" data-name="Path 167" d="M437.43,590.231l2.97,12.25a.765.765,0,0,1-.015.414l-13.472,42.1a.765.765,0,0,1-1.489-.147l-1.864-16.4a.765.765,0,0,1,.033-.323l12.365-37.949a.765.765,0,0,1,1.472.057Z" transform="translate(-319.126 -509.39)" fill="#3f3d56"/>
          <path id="Path_168" data-name="Path 168" d="M280.829,432.512l2.742,10.511L271.689,481.41l-2.742-11.881Z" transform="translate(-163.617 -350.637)" fill="#fff"/>
          <path id="Path_169" data-name="Path 169" d="M350.721,668.984c.457,1.371,47.527-.457,47.984-.914a9.923,9.923,0,0,0,1.005-1.828c.43-.914.823-1.828.823-1.828l-1.828-14.8-46.613-1.654s-1.165,12.54-1.4,18.279A13.712,13.712,0,0,0,350.721,668.984Z" transform="translate(-293.374 -529.984)" fill="#3f3d56"/>
          <path id="Path_170" data-name="Path 170" d="M249.035,493.975l.914,12.8H229.385v-12.8Z" transform="translate(-149.646 -372.342)" opacity="0.1"/>
          <path id="Path_171" data-name="Path 171" d="M212.3,500.321l.123-.025-.58,5.508H200.419v-5.483Z" transform="translate(-139.417 -374.574)" opacity="0.1"/>
          <path id="Path_172" data-name="Path 172" d="M350.721,678.963c.457,1.371,47.527-.457,47.984-.914a9.922,9.922,0,0,0,1.005-1.828H350.689A13.711,13.711,0,0,0,350.721,678.963Z" transform="translate(-293.374 -539.964)" opacity="0.1"/>
          <circle id="Ellipse_23" data-name="Ellipse 23" cx="6.107" cy="6.107" r="6.107" transform="translate(36.149)" fill="#2f2e41"/>
          <path id="Path_173" data-name="Path 173" d="M309.733,485.3s-6.24,10.379-20.75,14.265-.119,25.69-.119,25.69-5.233-7.929,2.315-16.326S310.875,494.786,309.733,485.3Z" transform="translate(-269.314 -472.539)" fill="#2f2e41"/>
          <path id="Path_174" data-name="Path 174" d="M308.051,651.3a54.374,54.374,0,0,0-3.172,6.214c-.179.72-2.16.3-5.278-.871-6.252-2.366-17.09-7.784-27.2-13.2a8.536,8.536,0,0,1-1.321-.866c.07-.428.152-.861.238-1.3,2.485-12.423-1.418-42.18-.817-53.678l4.607-1.537,9.2,8.661v36.81s23.818,12.992,25.442,14.074C310.579,646.16,309.437,648.677,308.051,651.3Z" transform="translate(-265.052 -508.125)" opacity="0.1"/>
          <path id="Path_175" data-name="Path 175" d="M356.4,641.185l14.616,7.578s8.661-9.2,14.074-2.165-15.7,9.2-15.7,9.2-18.4-4.331-18.946-10.285S356.4,641.185,356.4,641.185Z" transform="translate(-293.296 -527.52)" fill="#ffb8b8"/>
          <path id="Path_176" data-name="Path 176" d="M320.133,668.786l8.661,2.165s9.744-11.909,20.029-7.579-12.992,12.992-12.992,12.992-12.45,6.5-17.322,1.083S320.133,668.786,320.133,668.786Z" transform="translate(-281.389 -535.092)" fill="#ffb8b8"/>
          <path id="Path_177" data-name="Path 177" d="M346.866,561.794c.541.541,6.5,4.872,6.5,4.872s1.624,20.57-.541,24.9-3.789,4.331-2.165,6.5,3.789.541,1.624,4.331-4.331,3.248-2.707,4.872,1.083,2.165,1.083,2.165l6.5,5.413s-3.985,6.348-9.03,5.88-9.375-24.827-9.375-24.827Z" transform="translate(-289.176 -499.555)" fill="#f70"/>
          <path id="Path_178" data-name="Path 178" d="M272.167,581.878,267.3,583.5s-12.992,47.636,2.165,55.756S301.4,655.5,301.94,653.332s6.5-10.826,4.871-11.909-25.442-14.074-25.442-14.074v-36.81Z" transform="translate(-262.113 -506.647)" fill="#f70"/>
          <path id="Path_179" data-name="Path 179" d="M132.362,452.785l-1.082,25.983L159.97,492.3l-26.525-13.534Z" transform="translate(-115.001 -357.796)" opacity="0.1"/>
        </g>
        <text id="Maka_dari_itu_hadirlah_aplikasi_Peminjaman_Online_khusus_Mahasiswa._Mari_tebarkan_kebaikan_dari_lingkungan_terdekatmu_dulu._" data-name="Maka dari itu, hadirlah aplikasi Peminjaman Online khusus Mahasiswa.
Mari tebarkan kebaikan dari  lingkungan terdekatmu dulu.
" transform="translate(115 164)" fill="#3a3a3a" font-size="12" font-family="Poppins-Regular, Poppins"><tspan x="65.216" y="13">Maka dari itu, hadirlah aplikasi </tspan><tspan x="10.748" y="31">Peminjaman Online khusus Mahasiswa.</tspan><tspan x="5.456" y="49" xml:space="preserve">Mari tebarkan kebaikan dari  lingkungan </tspan><tspan x="143.228" y="67">terdekatmu dulu.</tspan><tspan x="245" y="85"></tspan></text>
      </g>
    </g>
    <g id="Group_218" data-name="Group 218">
      <circle id="Ellipse_19" data-name="Ellipse 19" cx="4" cy="4" r="4" transform="translate(176 560)" fill="#aaa" opacity="0.3"/>
      <circle id="Ellipse_18" data-name="Ellipse 18" cx="4" cy="4" r="4" transform="translate(163 560)" fill="#aaa" opacity="0.3"/>
      <circle id="Ellipse_16" data-name="Ellipse 16" cx="4" cy="4" r="4" transform="translate(189 560)" fill="#aaa"/>
    </g>
    <g id="Group_217" data-name="Group 217" transform="translate(435)">
      <rect id="Rectangle_70-3" data-name="Rectangle 70" width="478" height="447" transform="translate(-85 135)" fill="#fff"/>
      <text id="Pernah_gak_waktu_mau_pakai_barang_tapi_barangnya_ilang_Atau_lagi_butuh_banget_barang_itu_dengan_segera_tapi_malah_gaada_Pasti_kesel_banget_sih." data-name="Pernah gak waktu mau pakai
barang, tapi barangnya ilang?
Atau lagi butuh banget barang itu dengan segera tapi malah gaada?
Pasti kesel banget sih." transform="translate(105 305)" fill="#3a3a3a" font-size="12" font-family="Poppins-Regular, Poppins"><tspan x="71.288" y="13">Pernah gak waktu mau pakai</tspan><tspan x="62.972" y="31">barang, tapi barangnya ilang?</tspan><tspan x="41.156" y="49">Atau lagi butuh banget barang itu </tspan><tspan x="34.952" y="67">dengan segera tapi malah gaada?</tspan><tspan x="114.92" y="85">Pasti kesel banget sih.</tspan></text>
      <g id="Group_216" data-name="Group 216" transform="translate(-11.37 -39)">
        <g id="Group_213" data-name="Group 213" transform="translate(-32.63 208)">
          <g id="thinking" transform="translate(0 98.252)">
            <path id="Path_51" data-name="Path 51" d="M491.864,526.029a51.271,51.271,0,0,0-7.989,5.059,17.181,17.181,0,0,0-5.56,7.525,69.324,69.324,0,0,1-3.44-10.173,169.28,169.28,0,0,0-7.025-18.281,24.359,24.359,0,0,0,11.056-8.49c5.46,5.414,11.02,11.056,13.722,18.2.464,1.238,1.82,2.557,2.138,3.64C495.194,525.12,493.047,525.374,491.864,526.029Z" transform="translate(-341.504 -463.184)" fill="#ffbfc5"/>
            <path id="Path_52" data-name="Path 52" d="M329,715.576c0,40.6,29.291,44.906,65.434,44.906s65.425-4.3,65.425-44.906-29.291-56.026-65.425-56.026S329,674.983,329,715.576Z" transform="translate(-329 -477.401)" fill="#f70"/>
            <path id="Path_53" data-name="Path 53" d="M549.433,673.337a50.111,50.111,0,0,1,16.324,8.735,1.683,1.683,0,0,1,.737,1c.127.91-1.128,1.319-2.038,1.583-2.73.773-4.4,3.294-6.37,5.26s-5.141,3.521-7.443,1.947a7.281,7.281,0,0,1-1.565-1.647L539.36,677.55A58.844,58.844,0,0,1,549.706,673" transform="translate(-347.943 -478.612)" fill="#f1f1f1"/>
            <path id="Path_54" data-name="Path 54" d="M567.448,676.11c1.292,1.31,1.82,3.2,3.112,4.55a11.131,11.131,0,0,0,2.875,1.993l7.443,4.095a20.578,20.578,0,0,0,3.64,1.7,32.3,32.3,0,0,0,4.268.91,30.749,30.749,0,0,1,6.024,1.82c1.456.6,3.085,1.629,3.076,3.2a3.476,3.476,0,0,1-.91,2.075c-2.93,3.694-8.126,4.55-12.821,5.014-10.155,1.074-20.547,1.875-30.474-.519a13,13,0,0,1-5.36-2.32c-2.994-2.484-3.64-7.007-2.475-10.728a5.805,5.805,0,0,1,2.366-3.521c1.574-.91,3.531-.482,5.341-.619a16.849,16.849,0,0,0,5.46-1.756c1.137-.51,2.439-1.174,2.73-2.521s-1.247-2.511-.91-3.64C561.47,673.307,566.265,674.9,567.448,676.11Z" transform="translate(-348.478 -478.746)" fill="#585963"/>
            <path id="Path_56" data-name="Path 56" d="M586.275,720.044l3.13,2.066a5.6,5.6,0,0,1,2.266,2.239c.683,1.592-.237,3.394-1.256,4.8a27.554,27.554,0,0,1-12.048,9.336,17.959,17.959,0,0,1-5.232,1.3,2.184,2.184,0,0,1-1.21-.146c-.956-.51-.819-1.865-.828-2.948,0-3.121-2.393-5.66-4.55-7.962s-4.286-5.123-3.794-8.19a10.192,10.192,0,0,1,2.73-4.8,19.647,19.647,0,0,1,4.095-3.867c2.211-1.447,2.985-.664,5.059.655Q580.488,716.24,586.275,720.044Z" transform="translate(-350.043 -482.042)" fill="#f1f1f1"/>
            <path id="Path_57" data-name="Path 57" d="M576.431,736.177a5.578,5.578,0,0,0,4.923-1.11,12.333,12.333,0,0,0,3.194-4.113,33.421,33.421,0,0,0,1.984-4.35c.655-1.756,1.256-3.694,2.8-4.759,1.82-1.292,4.5-.783,6.37.464s3.294,3.094,4.9,4.7c3.794,3.785,8.79,6.179,13.922,7.744s10.455,2.348,15.724,3.358a8.915,8.915,0,0,1,3.021.974c2.129,1.3,2.848,4.2,2.247,6.625a14.472,14.472,0,0,1-3.895,6.242,15.687,15.687,0,0,1-5.214,4.031,16.644,16.644,0,0,1-5.269,1,89.987,89.987,0,0,1-26.025-2.038,69.62,69.62,0,0,0-9.536-1.9c-1.956-.173-3.94-.118-5.9-.255a31.043,31.043,0,0,1-11.265-2.967,3.976,3.976,0,0,1-2.047-1.711,4.2,4.2,0,0,1-.155-2.257l1.3-11.411c.118-.992.446-2.229,1.438-2.384s1.62.819,2.211,1.565a8.071,8.071,0,0,0,9.654,2.111" transform="translate(-350.354 -482.943)" fill="#585963"/>
            <path id="Path_58" data-name="Path 58" d="M489.24,579.5c5.724-.646,12.366-.755,16.243,3.512,2.375,2.621,3.094,6.288,3.913,9.718a63.107,63.107,0,0,0,6.206,16.525c1.82,3.221,4.031,6.233,5.46,9.654s1.966,7.28,2.8,11a66.372,66.372,0,0,0,23.24,36.98c-2.066,5.614-8.044,8.826-13.858,10.264a7.636,7.636,0,0,1-4.341.137,7.752,7.752,0,0,1-2.812-2.075,96.471,96.471,0,0,1-7.58-9.29c-8.381-11.193-16.88-22.612-21.448-35.816-1.6-4.641-3.2-10.009-7.707-11.984-2.566-1.11-5.505-.764-8.262-.291a112.005,112.005,0,0,0-18.126,4.65c-6.3,2.193-13.5,4.887-19.264,1.538-3.449-2.011-5.46-5.86-6.251-9.773s-.391-7.953,0-11.92a12.275,12.275,0,0,1,1.256-5.15,11.167,11.167,0,0,1,3.012-3.048,62.016,62.016,0,0,1,16.961-9.1c5.815-2.057,12.075-2.73,18.144-3.758Q483.007,580.2,489.24,579.5Z" transform="translate(-338.725 -470.162)" fill="#3a3a3a"/>
            <path id="Path_59" data-name="Path 59" d="M489.24,579.5c5.724-.646,12.366-.755,16.243,3.512,2.375,2.621,3.094,6.288,3.913,9.718a63.107,63.107,0,0,0,6.206,16.525c1.82,3.221,4.031,6.233,5.46,9.654s1.966,7.28,2.8,11a66.372,66.372,0,0,0,23.24,36.98c-2.066,5.614-8.044,8.826-13.858,10.264a7.636,7.636,0,0,1-4.341.137,7.752,7.752,0,0,1-2.812-2.075,96.471,96.471,0,0,1-7.58-9.29c-8.381-11.193-16.88-22.612-21.448-35.816-1.6-4.641-3.2-10.009-7.707-11.984-2.566-1.11-5.505-.764-8.262-.291a112.005,112.005,0,0,0-18.126,4.65c-6.3,2.193-13.5,4.887-19.264,1.538-3.449-2.011-5.46-5.86-6.251-9.773s-.391-7.953,0-11.92a12.275,12.275,0,0,1,1.256-5.15,11.167,11.167,0,0,1,3.012-3.048,62.016,62.016,0,0,1,16.961-9.1c5.815-2.057,12.075-2.73,18.144-3.758Q483.007,580.2,489.24,579.5Z" transform="translate(-338.725 -470.162)" opacity="0.1"/>
            <path id="Path_60" data-name="Path 60" d="M529.33,624.613a29.554,29.554,0,0,1,7.28,5.141,26.123,26.123,0,0,1,4.932,8.854,10.747,10.747,0,0,1,.855,3.421,3.886,3.886,0,0,1-1.265,3.167,5.669,5.669,0,0,1-3.576.91c-1.656,0-3.321,0-4.977-.127a8.318,8.318,0,0,1-2.948-.564,8.19,8.19,0,0,1-2.293-1.738,32.24,32.24,0,0,1-7.052-9.518c-1.2-2.648-3.185-8.763-1.292-11.52S527.273,623.44,529.33,624.613Z" transform="translate(-346.039 -473.985)" fill="#ffbfc5"/>
            <path id="Path_61" data-name="Path 61" d="M435.946,623.87c8.472,2.73,17.489,3.021,26.343,3.849a220.007,220.007,0,0,1,43.9,8.681c2.93.91,5.924,1.893,8.281,3.849a24.623,24.623,0,0,1,4.8,6.115,103.266,103.266,0,0,1,6.306,11.028c1.611,3.44,2.839,7.043,4.331,10.528A73.987,73.987,0,0,0,553,697.485c1.82,1.41,3.9,2.939,4.377,5.2a7.225,7.225,0,0,1-.682,4.277c-2.184,5.087-6.715,8.79-11.474,11.62-2.038,1.219-4.295,2.448-5.3,4.613-7.225-2.985-12.6-9.354-17.071-15.76s-8.444-13.313-14.177-18.627c-2.521-2.348-5.387-4.386-7.38-7.207-3.03-4.295-3.849-10.173-7.926-13.485s-10.009-2.885-15.278-2.366a374.912,374.912,0,0,1-81.122-.91c-5.6-.664-11.347-1.52-16.2-4.4s-8.626-8.271-7.944-13.868c.646-5.241,5-9.391,9.873-11.438s10.237-2.42,15.469-3.012C411.2,630.685,423.625,628.32,435.946,623.87Z" transform="translate(-332.94 -474.188)" fill="#3a3a3a"/>
            <path id="Path_62" data-name="Path 62" d="M357.076,624.183c.664-4.441,2.384-8.644,3.467-13a78.648,78.648,0,0,1,2.057-8.126c0-.082.064-.155.091-.227a1.875,1.875,0,0,0,1.383-.792,2.292,2.292,0,0,0,.118-1.219,8.845,8.845,0,0,1,0-1.3,93.042,93.042,0,0,1,5.805-8.6c3.64-5.2,6.843-10.719,10.009-16.233,2.6-4.55,5.2-9.045,7.352-13.795,1.62-3.558,2.976-7.28,4.759-10.719,6.37-12.375,17.762-21.5,30.028-28.054,11.775-6.288,24.5-10.519,36.88-15.524a8.385,8.385,0,0,1,.864,1.019c6.688,9.145,7.407,21.156,10.164,32.148,1.11,4.441,2.593,8.863,2.593,13.431,0,6.752-3.23,13.03-6.442,18.972A102.563,102.563,0,0,1,456.1,588.294c-1.893,2.348-3.976,4.55-5.878,6.87-7.807,9.564-12.312,21.329-16.7,32.877-2.53,6.688-6.679,12.612-9.463,19.2-1.074,2.53-1.692,5.25-3.039,7.653s-3.685,4.5-6.433,4.55a9.649,9.649,0,0,1-2.375-.373c-9.946-2.557-18.272-9.1-26.534-15.232-1.483-1.092-2.966-2.166-4.55-3.148s-3.185-1.884-4.8-2.73l-3.694-2.029c-4.022-2.2-8.062-4.413-12.257-6.279a22.3,22.3,0,0,1-3.64-1.82A21.732,21.732,0,0,1,357.076,624.183Z" transform="translate(-331.497 -463.627)" fill="#aaa"/>
            <circle id="Ellipse_13" data-name="Ellipse 13" cx="22.913" cy="22.913" r="22.913" transform="translate(132.68 16.256)" fill="#ffbfc5"/>
            <path id="Path_63" data-name="Path 63" d="M511.977,487.825a5.46,5.46,0,0,0,5.642,2.648,7.908,7.908,0,0,0,5.269-3.758,14.858,14.858,0,0,0,1.947-6.315c.191-1.738.164-3.64-.956-5a10.974,10.974,0,0,0-2.9-2.038,11.048,11.048,0,0,1-3.64-3.64c-.637-1.065-1.1-2.22-1.674-3.312-2.084-3.958-6.142-7.18-10.61-7.034-2.147.073-4.195.91-6.315,1.256-7.107,1.247-14.823-2.511-21.42.419a20.015,20.015,0,0,0-4.477,2.985q-2.784,2.3-5.351,4.841a11.047,11.047,0,0,0-3.258,4.741c-.91,3.367,1.228,7.125-.127,10.328a15.212,15.212,0,0,1-1.647,2.593c-1.492,2.193.127,10.756,0,13.4a4.959,4.959,0,0,0,.91,3.64c1.083,1.21,2.894,1.31,4.55,1.329h2.975a3.776,3.776,0,0,0,1.319-.137,4,4,0,0,0,1.5-1.147c2.475-2.611,3-11.138,6.6-11.1a2.566,2.566,0,0,1,1.556.4c.646.473.837,1.356,1.3,2.011a3.8,3.8,0,0,0,4.413,1.037,9.955,9.955,0,0,0,3.758-3.039,14.809,14.809,0,0,1,3.512-3.358c1.92-1.119,4.086-1.6,5.951-2.866,1.556-1.056,2.439-2.584,3.84-3.749s2.584-1,4.077-.228C510.875,483.93,510.966,485.823,511.977,487.825Z" transform="translate(-340.961 -459.375)" fill="#3f3d56"/>
            <path id="Path_64" data-name="Path 64" d="M456.393,534.964a36.462,36.462,0,0,1,15.96,1.274,8.481,8.481,0,0,1,4.45,2.648,7.989,7.989,0,0,1,1.274,3.33,26.926,26.926,0,0,1-1.938,16.234,2.147,2.147,0,0,0-.264,1.729,3.059,3.059,0,0,0,.91.91,3.167,3.167,0,0,1-.191,4.723c-.428.309-.992.582-1.074,1.1s.446,1.019.864,1.42a5.086,5.086,0,0,1,1.419,4.677,10.246,10.246,0,0,0-.464,2.066,6.742,6.742,0,0,0,.755,2.466,10.791,10.791,0,0,1,.682,5.46,6.015,6.015,0,0,0-.064,2.666,6.206,6.206,0,0,0,1.019,1.6c1.647,2.22,2,5.933-.382,7.28a5.524,5.524,0,0,1,2.939,5.7c1.429-.755,3.157.218,4.349,1.31s2.4,2.439,4.013,2.521c1.128.054,2.32-.528,3.34-.064,1.565.7,1.51,3.239,3.048,3.995,1.347.673,3.23-.419,4.377.555.4.337.6.855.992,1.21.865.8,2.229.464,3.412.41,2.794-.109,5.369,1.82,6.816,4.168a20.292,20.292,0,0,1,2.339,7.98,10.563,10.563,0,0,1-.091,4.6,3.94,3.94,0,0,1-3.23,2.912c-14.059.91-27.935-2.466-41.63-5.8-4.022-.983-8.108-2.129-11.465-4.55-3.048-2.211-5.287-5.323-7.471-8.381-4.031-5.651-8.089-11.338-10.974-17.644-3.713-8.108-5.369-16.989-6.988-25.77a23.97,23.97,0,0,1-.592-7.189,20.373,20.373,0,0,1,3.167-7.88,85.812,85.812,0,0,1,6.37-9.036C445.592,539.25,450.861,535.755,456.393,534.964Z" transform="translate(-338.318 -466.149)" opacity="0.1"/>
            <path id="Path_65" data-name="Path 65" d="M457.409,533.964a36.4,36.4,0,0,1,15.97,1.283,8.407,8.407,0,0,1,4.45,2.639,8.117,8.117,0,0,1,1.274,3.33,26.99,26.99,0,0,1-1.938,16.234,2.147,2.147,0,0,0-.264,1.729,3.056,3.056,0,0,0,.91.91,3.167,3.167,0,0,1-.191,4.723c-.428.309-.992.582-1.074,1.1s.446,1.019.91,1.42a5.087,5.087,0,0,1,1.42,4.677,10.246,10.246,0,0,0-.464,2.066,6.723,6.723,0,0,0,.746,2.466,10.711,10.711,0,0,1,.692,5.46,3.931,3.931,0,0,0,.955,4.268c1.647,2.22,2,5.933-.382,7.334a5.505,5.505,0,0,1,2.939,5.687c1.429-.755,3.157.218,4.349,1.31s2.4,2.439,4.013,2.521c1.128.055,2.311-.528,3.339-.064,1.565.71,1.511,3.239,3.048,4,1.347.664,3.23-.428,4.377.546.4.337.6.855.992,1.21.864.8,2.229.464,3.412.409,2.794-.109,5.369,1.82,6.815,4.168a20.475,20.475,0,0,1,2.339,7.98,10.858,10.858,0,0,1-.091,4.55,3.94,3.94,0,0,1-3.23,2.912c-14.059.91-27.935-2.466-41.63-5.8-4.022-.983-8.117-2.129-11.465-4.55-3.048-2.2-5.287-5.323-7.471-8.381-4.031-5.642-8.089-11.329-10.974-17.635-3.713-8.117-5.369-17-6.988-25.77a24.019,24.019,0,0,1-.591-7.2,20.372,20.372,0,0,1,3.085-7.889,83.473,83.473,0,0,1,6.37-9.027C446.617,538.232,451.885,534.746,457.409,533.964Z" transform="translate(-338.415 -466.059)" fill="#aaa"/>
          </g>
          <g transform="matrix(1, 0, 0, 1, -391, -169)" filter="url(#Union_1)">
            <path id="Union_1-2" data-name="Union 1" d="M31.3,103.776c-7.064.623-18.258.039-22.561-.228a17.376,17.376,0,0,0,5.7-2.916,19.414,19.414,0,0,0,4.633-5.04C7.32,85.488,0,71.263,0,55.507,0,24.851,27.7,0,61.876,0s61.877,24.851,61.877,55.507-27.7,55.507-61.877,55.507A67.132,67.132,0,0,1,31.3,103.776Zm-24.328-.345s.653.048,1.766.117a4.152,4.152,0,0,1-.885.107A1.284,1.284,0,0,1,6.974,103.431Z" transform="translate(565.37 169)" fill="#f5f5f5"/>
          </g>
        </g>
        <path id="Path_73" data-name="Path 73" d="M-2241.7-1.595s1.383,8.646,8.54,11.188c8.113,2.647,5.229-6.161,7.491-5.382,10.927,3.76,18.42-5.013,19.98-12.846,1.166-5.851-3.765-9.954-6.229-7.687-.454.351-.876,1.708-.64,3.927.4,3.781,1.033,8.594,2.811,8.146,1.436-.281,4.058-7.092,4.058-11.906,0-8.459-15.61-17.859-14.049-9.4s-2.809,11.279,3.123,5.013,2.5-21.932-6.556-17.545-20.6,10.026-10.927,16.292,10.615,2.506,5.932-3.76-17.171-16.292-15.922-2.506,9.99,22.871,9.99,15.665-4.683-24.751-9.99-10.966A26.236,26.236,0,0,0-2245.474-7.8c1.3,5.507,5.235,9.045,9.816,7.942,7.805-1.88,19.668-6.579,9.991-12.532s-5.932,5.326-5.932,5.326,9.054,14.725,13.425,5.953,5.932-18.172-1.562-15.039-11.238,22.245,3.123,23.5,15.61,3.76,15.3-3.133-12.8-8.146-6.557-2.506-30.595-13.786-34.341-10.339-5.307,16.292,1.561,12.846,17.171-42.923,10.927-42.3-6.245,28.511,1.561,28.2" transform="translate(2426.712 279.657)" fill="none" stroke="#707070" stroke-width="2"/>
      </g>
    </g>
    <g id="Group_53" data-name="Group 53" transform="translate(0 -138)">
      <g id="Group_9" data-name="Group 9" transform="translate(-80.3 187.7)">
        <rect id="Rectangle_21" data-name="Rectangle 21" width="100" height="100" transform="translate(210.3 40.3)" fill="#fff" opacity="0"/>
        <g id="Group_98-2" data-name="Group 98" transform="translate(0 0)">
          <path id="Path_7-2" data-name="Path 7" d="M250.845,99.947,67.2,168.841v-226L446.8,22.367Z" transform="translate(8.438 1.125)" fill="#fa3"/>
          <path id="Path_8-2" data-name="Path 8" d="M495.116,81.388l-24.667-124L101.212-51.49,83.116,54.055Z" transform="translate(-21.483 -16.755)" fill="#f90"/>
          <path id="Path_9-2" data-name="Path 9" d="M472.018,143.513,56.684,22.18l11.8-33.146H439.353Z" transform="translate(8.282 -52.88)" fill="#f70"/>
        </g>
        <g id="Group_10" data-name="Group 10" transform="translate(51.3 -168)">
          <text id="Selamat_Datang_Mau_Pinjem_Apa_Hari_ini_" data-name="Selamat Datang,
Mau Pinjem Apa
Hari ini?" transform="translate(39 177)" fill="#fff" font-size="20" font-family="Poppins-SemiBold, Poppins" font-weight="600" letter-spacing="-0.03em"><tspan x="0" y="0">Selamat Datang,</tspan><tspan x="0" y="30">Mau Pinjem Apa</tspan><tspan x="0" y="60">Hari ini?</tspan></text>
        </g>
      </g>
      <g id="Group_237" data-name="Group 237" transform="translate(0 138)">
        <g id="Group_236" data-name="Group 236" transform="translate(26 -14)">
          <g id="Ellipse_26" data-name="Ellipse 26" transform="translate(306 59)" fill="none" stroke="#fff" stroke-width="1.5">
            <circle cx="6" cy="6" r="6" stroke="none"/>
            <circle cx="6" cy="6" r="5.25" fill="none"/>
          </g>
          <rect id="Rectangle_76" data-name="Rectangle 76" width="1.714" height="4.286" transform="translate(311.143 61.571)" fill="#fff"/>
          <rect id="Rectangle_77" data-name="Rectangle 77" width="1.714" height="1.714" transform="translate(311.143 66.714)" fill="#fff"/>
        </g>
        <text id="Syarat_dan_ketentuan_" data-name="Syarat dan ketentuan " transform="translate(329 54)" fill="#fff" font-size="10" font-family="Poppins-Regular, Poppins" letter-spacing="-0.03em"><tspan x="-104.53" y="0">Syarat dan ketentuan </tspan></text>
      </g>
      <g id="Group_41" data-name="Group 41" transform="translate(0 138)">
        <g id="Group_41-2" data-name="Group 41" transform="translate(-6 -1)">
          <g id="Group_9_Copy" data-name="Group 9 Copy">
            <g id="status_bar_icon" data-name="status bar icon" transform="translate(265 6)">
              <path id="Rectangle_2" data-name="Rectangle 2" d="M0,8.5V3.945A3.5,3.5,0,0,1,2.062.753.445.445,0,0,1,2.382,0H4.594a.445.445,0,0,1,.328.745A3.5,3.5,0,0,1,7,3.945V8.5a3.5,3.5,0,0,1-7,0Z" transform="translate(84)" fill="#fff" opacity="0.35"/>
              <path id="Rectangle_7" data-name="Rectangle 7" d="M0,0H7A0,0,0,0,1,7,0V2.5A3.5,3.5,0,0,1,3.5,6h0A3.5,3.5,0,0,1,0,2.5V0A0,0,0,0,1,0,0Z" transform="translate(84 6)" fill="#fff"/>
              <path id="_12:30" data-name="12:30" d="M21.429,8a2.283,2.283,0,0,1-1.936-.826,4.159,4.159,0,0,1-.652-2.468V3.385A4.28,4.28,0,0,1,19.464.834,2.288,2.288,0,0,1,21.418,0,2.314,2.314,0,0,1,23.36.8,4.126,4.126,0,0,1,24,3.289V4.572a4.383,4.383,0,0,1-.623,2.583A2.271,2.271,0,0,1,21.429,8ZM21.418.813a1.281,1.281,0,0,0-1.162.572,3.408,3.408,0,0,0-.376,1.76V4.728a3.549,3.549,0,0,0,.384,1.863,1.294,1.294,0,0,0,1.165.6,1.277,1.277,0,0,0,1.142-.567,3.43,3.43,0,0,0,.391-1.786V3.219a3.493,3.493,0,0,0-.371-1.831A1.3,1.3,0,0,0,21.418.813ZM14.862,8a2.862,2.862,0,0,1-1.872-.594,1.935,1.935,0,0,1-.721-1.567h1.044a1.25,1.25,0,0,0,.421.985,1.656,1.656,0,0,0,1.128.369,1.627,1.627,0,0,0,1.151-.374,1.413,1.413,0,0,0,.4-1.076A1.283,1.283,0,0,0,15.973,4.7a1.978,1.978,0,0,0-1.263-.374h-.78V3.519h.78a1.781,1.781,0,0,0,1.156-.369,1.214,1.214,0,0,0,.42-.968c0-.908-.481-1.369-1.431-1.369a1.54,1.54,0,0,0-1.075.366,1.256,1.256,0,0,0-.4.971H12.342a1.954,1.954,0,0,1,.71-1.538A2.68,2.68,0,0,1,14.856,0a2.645,2.645,0,0,1,1.813.583,2.061,2.061,0,0,1,.657,1.62,1.666,1.666,0,0,1-.345.984,2.08,2.08,0,0,1-.94.712,2.024,2.024,0,0,1,1.041.673,1.824,1.824,0,0,1,.367,1.15,2.088,2.088,0,0,1-.718,1.663A2.792,2.792,0,0,1,14.862,8Zm-4.513-.049a.643.643,0,0,1-.481-.166.571.571,0,0,1-.159-.411.6.6,0,0,1,.159-.428.633.633,0,0,1,.481-.171.651.651,0,0,1,.485.171A.594.594,0,0,1,11,7.375a.561.561,0,0,1-.166.411A.66.66,0,0,1,10.349,7.951ZM.138,7.893H-.906V1.3L-3,2.032v-.9L-.024.069H.138V7.892Zm8.4,0H3.181V7.182l2.829-3a6.589,6.589,0,0,0,.868-1.1A1.774,1.774,0,0,0,7.115,2.2a1.365,1.365,0,0,0-.387-1A1.4,1.4,0,0,0,5.7.813a1.657,1.657,0,0,0-1.2.42A1.566,1.566,0,0,0,4.062,2.4H3.023A2.251,2.251,0,0,1,3.75.663,2.787,2.787,0,0,1,5.7,0,2.682,2.682,0,0,1,7.5.57a1.908,1.908,0,0,1,.662,1.516A4.4,4.4,0,0,1,6.621,4.823L4.433,7.086h4.1v.806ZM10.355,3.23a.641.641,0,0,1-.48-.166.572.572,0,0,1-.16-.412.6.6,0,0,1,.16-.428.627.627,0,0,1,.48-.171.645.645,0,0,1,.485.171.593.593,0,0,1,.166.428.562.562,0,0,1-.166.412A.66.66,0,0,1,10.355,3.23Z" transform="translate(-246 2)" fill="#fff"/>
              <path id="Triangle_1" data-name="Triangle 1" d="M6.519.577l6.519-9.691S11.044-11,6.519-11,0-9.113,0-9.113Z" transform="translate(39 11.423)" fill="#fff" opacity="0.35"/>
              <path id="Triangle_2" data-name="Triangle 2" d="M4.5,0,9-6.7A6.731,6.731,0,0,0,4.5-8,6.731,6.731,0,0,0,0-6.7Z" transform="translate(41 12)" fill="#fff"/>
              <path id="Rectangle_8" data-name="Rectangle 8" d="M0,10.438H12.48V0Z" transform="translate(61 1.562)" fill="#fff" opacity="0.35"/>
              <path id="Rectangle_9" data-name="Rectangle 9" d="M0,5H6V0Z" transform="translate(61 7)" fill="#fff"/>
            </g>
          </g>
        </g>
      </g>
    </g>
  </g>
</svg>
