<svg xmlns="http://www.w3.org/2000/svg" xmlns:xlink="http://www.w3.org/1999/xlink" width="360" height="720" viewBox="0 0 360 720">
  <defs>
    <filter id="Rectangle_69" x="15.5" y="300.5" width="329" height="60" filterUnits="userSpaceOnUse">
      <feOffset dy="1" input="SourceAlpha"/>
      <feGaussianBlur stdDeviation="1.5" result="blur"/>
      <feFlood flood-opacity="0.161"/>
      <feComposite operator="in" in2="blur"/>
      <feComposite in="SourceGraphic"/>
    </filter>
    <filter id="Rectangle_69-2" x="15.5" y="361.5" width="329" height="60" filterUnits="userSpaceOnUse">
      <feOffset dy="1" input="SourceAlpha"/>
      <feGaussianBlur stdDeviation="1.5" result="blur-2"/>
      <feFlood flood-opacity="0.161"/>
      <feComposite operator="in" in2="blur-2"/>
      <feComposite in="SourceGraphic"/>
    </filter>
    <clipPath id="clip-_5-login-1">
      <rect width="360" height="720"/>
    </clipPath>
  </defs>
  <g id="_5-login-1" data-name="5-login-1" clip-path="url(#clip-_5-login-1)">
    <rect width="360" height="720" fill="#fff"/>
    <g id="Group_229" data-name="Group 229" transform="translate(0 -21)">
      <g id="Group_214" data-name="Group 214" transform="translate(10 -344)">
        <g transform="matrix(1, 0, 0, 1, -10, 365)" filter="url(#Rectangle_69)">
          <g id="Rectangle_69-3" data-name="Rectangle 69" transform="translate(20 304)" fill="#fff" stroke="#d1d1d1" stroke-width="1">
            <rect width="320" height="51" stroke="none"/>
            <rect x="0.5" y="0.5" width="319" height="50" fill="none"/>
          </g>
        </g>
        <g id="Group_94" data-name="Group 94" transform="translate(108.958 682)">
          <text id="Daftar_Dengan_Google" data-name="Daftar Dengan Google" transform="translate(10 17)" fill="#3a3a3a" font-size="12" font-family="Poppins-Regular, Poppins"><tspan x="0" y="0">Daftar Dengan Google</tspan></text>
          <g id="google" transform="translate(-22.958 2)">
            <path id="Path_67" data-name="Path 67" d="M4.922,106.6a5.544,5.544,0,0,1,.785-2.85v-3.54H2.167a10.505,10.505,0,0,0,0,12.779h3.54v-3.54A5.544,5.544,0,0,1,4.922,106.6Z" transform="translate(0 -96.105)" fill="#fbbd00"/>
            <path id="Path_68" data-name="Path 68" d="M198.461,373.742,196,376.2l2.461,2.461a10.42,10.42,0,0,0,6.39-2.167v-3.536h-3.536A5.577,5.577,0,0,1,198.461,373.742Z" transform="translate(-187.961 -357.664)" fill="#0f9d58"/>
            <path id="Path_69" data-name="Path 69" d="M56.363,325.477l-3.54,3.54a10.667,10.667,0,0,0,.909,1.035,10.431,10.431,0,0,0,7.425,3.075v-4.922A5.58,5.58,0,0,1,56.363,325.477Z" transform="translate(-50.656 -312.127)" fill="#31aa52"/>
            <path id="Path_70" data-name="Path 70" d="M266.5,199.731a10.592,10.592,0,0,0-.172-1.9l-.092-.5H256v4.922h4.981a5.553,5.553,0,0,1-2.128,2.282l3.536,3.536a10.67,10.67,0,0,0,1.035-.909A10.431,10.431,0,0,0,266.5,199.731Z" transform="translate(-245.5 -189.231)" fill="#3c79e6"/>
            <path id="Path_71" data-name="Path 71" d="M202.405,6.556l.435.435,3.48-3.48-.435-.435A10.431,10.431,0,0,0,198.461,0L196,2.461l2.461,2.461A5.542,5.542,0,0,1,202.405,6.556Z" transform="translate(-187.961)" fill="#cf2d48"/>
            <path id="Path_72" data-name="Path 72" d="M61.155,4.922V0a10.432,10.432,0,0,0-7.425,3.075,10.657,10.657,0,0,0-.909,1.035l3.54,3.54a5.581,5.581,0,0,1,4.793-2.728Z" transform="translate(-50.655 0)" fill="#eb4132"/>
          </g>
        </g>
      </g>
      <g id="Group_226" data-name="Group 226" transform="translate(10 -283)">
        <g transform="matrix(1, 0, 0, 1, -10, 304)" filter="url(#Rectangle_69-2)">
          <g id="Rectangle_69-4" data-name="Rectangle 69" transform="translate(20 365)" fill="#fff" stroke="#d1d1d1" stroke-width="1">
            <rect width="320" height="51" stroke="none"/>
            <rect x="0.5" y="0.5" width="319" height="50" fill="none"/>
          </g>
        </g>
        <g id="Group_94-2" data-name="Group 94" transform="translate(108.958 682)">
          <text id="Daftar_Dengan_Email" data-name="Daftar Dengan Email" transform="translate(10 17)" fill="#3a3a3a" font-size="12" font-family="Poppins-Regular, Poppins"><tspan x="0" y="0">Daftar Dengan Email</tspan></text>
          <g id="Group_228" data-name="Group 228" transform="translate(-91.958 -313)">
            <path id="email" d="M10.5,0a10.5,10.5,0,1,0,5.251,19.595l-1.314-2.273A7.876,7.876,0,1,1,18.375,10.5v1.143a1.358,1.358,0,0,1-1.313,1.482,1.314,1.314,0,0,1-1.313-1.313V6.562H13.936a5.245,5.245,0,1,0,.127,7.77,3.913,3.913,0,0,0,3,1.417A3.982,3.982,0,0,0,21,11.643V10.5A10.512,10.512,0,0,0,10.5,0Zm0,13.125A2.625,2.625,0,1,1,13.125,10.5,2.628,2.628,0,0,1,10.5,13.125Z" transform="translate(69 315)" fill="#ed4c28"/>
          </g>
        </g>
      </g>
    </g>
    <g id="Group_215" data-name="Group 215" transform="translate(10 -10)">
      <rect id="Rectangle_69-5" data-name="Rectangle 69" width="320" height="51" transform="translate(10 669)" fill="#fff"/>
      <g id="Group_94-3" data-name="Group 94" transform="translate(108.958 682)">
        <text id="Sudah_punya_Akun_Login" data-name="Sudah punya Akun? Login" transform="translate(-23 17)" fill="#3a3a3a" font-size="12" font-family="Poppins-Regular, Poppins"><tspan x="0" y="0">Sudah punya Akun? Login</tspan></text>
        <line id="Line_8" data-name="Line 8" x2="31" transform="translate(97.542 21.5)" fill="none" stroke="#3a3a3a" stroke-width="1"/>
      </g>
    </g>
    <g id="Group_237" data-name="Group 237">
      <g id="Group_236" data-name="Group 236" transform="translate(26 -14)">
        <g id="Ellipse_26" data-name="Ellipse 26" transform="translate(306 59)" fill="none" stroke="#fff" stroke-width="1.5">
          <circle cx="6" cy="6" r="6" stroke="none"/>
          <circle cx="6" cy="6" r="5.25" fill="none"/>
        </g>
        <rect id="Rectangle_76" data-name="Rectangle 76" width="1.714" height="4.286" transform="translate(311.143 61.571)" fill="#fff"/>
        <rect id="Rectangle_77" data-name="Rectangle 77" width="1.714" height="1.714" transform="translate(311.143 66.714)" fill="#fff"/>
      </g>
      <text id="Syarat_dan_ketentuan_" data-name="Syarat dan ketentuan " transform="translate(329 54)" fill="#fff" font-size="10" font-family="Poppins-Regular, Poppins" letter-spacing="-0.03em"><tspan x="-104.53" y="0">Syarat dan ketentuan </tspan></text>
    </g>
    <g id="Group_53" data-name="Group 53" transform="translate(0 -138)">
      <g id="Group_9" data-name="Group 9" transform="translate(-80.3 187.7)">
        <rect id="Rectangle_21" data-name="Rectangle 21" width="100" height="100" transform="translate(210.3 40.3)" fill="#fff" opacity="0"/>
        <g id="Group_98" data-name="Group 98" transform="translate(0 0)">
          <path id="Path_7" data-name="Path 7" d="M250.845,99.947,67.2,168.841v-226L446.8,22.367Z" transform="translate(8.438 1.125)" fill="#fa3"/>
          <path id="Path_8" data-name="Path 8" d="M495.116,81.388l-24.667-124L101.212-51.49,83.116,54.055Z" transform="translate(-21.483 -16.755)" fill="#f90"/>
          <path id="Path_9" data-name="Path 9" d="M472.018,143.513,56.684,22.18l11.8-33.146H439.353Z" transform="translate(8.282 -52.88)" fill="#f70"/>
        </g>
        <g id="Group_10" data-name="Group 10" transform="translate(51.3 -168)">
          <text id="Selamat_Datang_Mau_Pinjem_Apa_Hari_ini_" data-name="Selamat Datang,
Mau Pinjem Apa
Hari ini?" transform="translate(39 177)" fill="#fff" font-size="20" font-family="Poppins-SemiBold, Poppins" font-weight="600" letter-spacing="-0.03em"><tspan x="0" y="0">Selamat Datang,</tspan><tspan x="0" y="30">Mau Pinjem Apa</tspan><tspan x="0" y="60">Hari ini?</tspan></text>
        </g>
      </g>
      <g id="Group_237-2" data-name="Group 237" transform="translate(0 138)">
        <g id="Group_236-2" data-name="Group 236" transform="translate(26 -14)">
          <g id="Ellipse_26-2" data-name="Ellipse 26" transform="translate(306 59)" fill="none" stroke="#fff" stroke-width="1.5">
            <circle cx="6" cy="6" r="6" stroke="none"/>
            <circle cx="6" cy="6" r="5.25" fill="none"/>
          </g>
          <rect id="Rectangle_76-2" data-name="Rectangle 76" width="1.714" height="4.286" transform="translate(311.143 61.571)" fill="#fff"/>
          <rect id="Rectangle_77-2" data-name="Rectangle 77" width="1.714" height="1.714" transform="translate(311.143 66.714)" fill="#fff"/>
        </g>
        <text id="Syarat_dan_ketentuan_2" data-name="Syarat dan ketentuan " transform="translate(329 54)" fill="#fff" font-size="10" font-family="Poppins-Regular, Poppins" letter-spacing="-0.03em"><tspan x="-104.53" y="0">Syarat dan ketentuan </tspan></text>
      </g>
      <g id="Group_41" data-name="Group 41" transform="translate(0 138)">
        <g id="Group_41-2" data-name="Group 41" transform="translate(-6 -1)">
          <g id="Group_9_Copy" data-name="Group 9 Copy">
            <g id="status_bar_icon" data-name="status bar icon" transform="translate(265 6)">
              <path id="Rectangle_2" data-name="Rectangle 2" d="M0,8.5V3.945A3.5,3.5,0,0,1,2.062.753.445.445,0,0,1,2.382,0H4.594a.445.445,0,0,1,.328.745A3.5,3.5,0,0,1,7,3.945V8.5a3.5,3.5,0,0,1-7,0Z" transform="translate(84)" fill="#fff" opacity="0.35"/>
              <path id="Rectangle_7" data-name="Rectangle 7" d="M0,0H7A0,0,0,0,1,7,0V2.5A3.5,3.5,0,0,1,3.5,6h0A3.5,3.5,0,0,1,0,2.5V0A0,0,0,0,1,0,0Z" transform="translate(84 6)" fill="#fff"/>
              <path id="_12:30" data-name="12:30" d="M21.429,8a2.283,2.283,0,0,1-1.936-.826,4.159,4.159,0,0,1-.652-2.468V3.385A4.28,4.28,0,0,1,19.464.834,2.288,2.288,0,0,1,21.418,0,2.314,2.314,0,0,1,23.36.8,4.126,4.126,0,0,1,24,3.289V4.572a4.383,4.383,0,0,1-.623,2.583A2.271,2.271,0,0,1,21.429,8ZM21.418.813a1.281,1.281,0,0,0-1.162.572,3.408,3.408,0,0,0-.376,1.76V4.728a3.549,3.549,0,0,0,.384,1.863,1.294,1.294,0,0,0,1.165.6,1.277,1.277,0,0,0,1.142-.567,3.43,3.43,0,0,0,.391-1.786V3.219a3.493,3.493,0,0,0-.371-1.831A1.3,1.3,0,0,0,21.418.813ZM14.862,8a2.862,2.862,0,0,1-1.872-.594,1.935,1.935,0,0,1-.721-1.567h1.044a1.25,1.25,0,0,0,.421.985,1.656,1.656,0,0,0,1.128.369,1.627,1.627,0,0,0,1.151-.374,1.413,1.413,0,0,0,.4-1.076A1.283,1.283,0,0,0,15.973,4.7a1.978,1.978,0,0,0-1.263-.374h-.78V3.519h.78a1.781,1.781,0,0,0,1.156-.369,1.214,1.214,0,0,0,.42-.968c0-.908-.481-1.369-1.431-1.369a1.54,1.54,0,0,0-1.075.366,1.256,1.256,0,0,0-.4.971H12.342a1.954,1.954,0,0,1,.71-1.538A2.68,2.68,0,0,1,14.856,0a2.645,2.645,0,0,1,1.813.583,2.061,2.061,0,0,1,.657,1.62,1.666,1.666,0,0,1-.345.984,2.08,2.08,0,0,1-.94.712,2.024,2.024,0,0,1,1.041.673,1.824,1.824,0,0,1,.367,1.15,2.088,2.088,0,0,1-.718,1.663A2.792,2.792,0,0,1,14.862,8Zm-4.513-.049a.643.643,0,0,1-.481-.166.571.571,0,0,1-.159-.411.6.6,0,0,1,.159-.428.633.633,0,0,1,.481-.171.651.651,0,0,1,.485.171A.594.594,0,0,1,11,7.375a.561.561,0,0,1-.166.411A.66.66,0,0,1,10.349,7.951ZM.138,7.893H-.906V1.3L-3,2.032v-.9L-.024.069H.138V7.892Zm8.4,0H3.181V7.182l2.829-3a6.589,6.589,0,0,0,.868-1.1A1.774,1.774,0,0,0,7.115,2.2a1.365,1.365,0,0,0-.387-1A1.4,1.4,0,0,0,5.7.813a1.657,1.657,0,0,0-1.2.42A1.566,1.566,0,0,0,4.062,2.4H3.023A2.251,2.251,0,0,1,3.75.663,2.787,2.787,0,0,1,5.7,0,2.682,2.682,0,0,1,7.5.57a1.908,1.908,0,0,1,.662,1.516A4.4,4.4,0,0,1,6.621,4.823L4.433,7.086h4.1v.806ZM10.355,3.23a.641.641,0,0,1-.48-.166.572.572,0,0,1-.16-.412.6.6,0,0,1,.16-.428.627.627,0,0,1,.48-.171.645.645,0,0,1,.485.171.593.593,0,0,1,.166.428.562.562,0,0,1-.166.412A.66.66,0,0,1,10.355,3.23Z" transform="translate(-246 2)" fill="#fff"/>
              <path id="Triangle_1" data-name="Triangle 1" d="M6.519.577l6.519-9.691S11.044-11,6.519-11,0-9.113,0-9.113Z" transform="translate(39 11.423)" fill="#fff" opacity="0.35"/>
              <path id="Triangle_2" data-name="Triangle 2" d="M4.5,0,9-6.7A6.731,6.731,0,0,0,4.5-8,6.731,6.731,0,0,0,0-6.7Z" transform="translate(41 12)" fill="#fff"/>
              <path id="Rectangle_8" data-name="Rectangle 8" d="M0,10.438H12.48V0Z" transform="translate(61 1.562)" fill="#fff" opacity="0.35"/>
              <path id="Rectangle_9" data-name="Rectangle 9" d="M0,5H6V0Z" transform="translate(61 7)" fill="#fff"/>
            </g>
          </g>
        </g>
      </g>
    </g>
  </g>
</svg>
